/* XPM */
static char *result[] = {
/* columns rows colors chars-per-pixel */
"50 50 7 1 ",
"  c black",
". c #983B00",
"X c #CD7C07",
"o c #DB8837",
"O c #D99C63",
"+ c white",
"@ c None",
/* pixels */
"@@@@@@@@@@@@@@@@@@@@@@@@@@@@@@@@@@@@@@@@@@@@@@@@@@",
"@@@@@@@@@@@@@@@@@@@@@@@@@@@@@@@@@@@@@@@@@@@@@@@@@@",
"@@@@@@@@@@@@@@@@@@@@@@@@@@@@@@@@@@@@@@@@@@@@@@@@@@",
"@@@@@@@@@@@@@@@@@@@@@@@@@@@@@@@@@@@@@@@@@@@@@@@@@@",
"@@@@@@@@@@@@@@@@@@@@@@@@@@@@@@@@@@@@@@@@@@@@@@@@@@",
"@@@@@@@@@@@@@@@@@@@@@@@@@@@@@@@@@@@@@@@@@@@@@@@@@@",
"@@@@@@@@@@@@@@@@@+++O@@@@@@@@@@@@@@@@@@@@@@@@@@@@@",
"@@@@@@@@@@@@@@@@@++OOO@@@@@@@@@@@@@@@@@@@@@@@@@@@@",
"@@@@@@@@@@@@@@@@@+XXXXOO@@@@@@@@@@@@@@@@@@@@@@@@@@",
"@@@@@@@@@@@@@@@@@@..XXOXO@@@@@@@@@@@@@@@@@@@@@@@@@",
"@@@@@@@@@@@@@@@@@@@.XXXXXO@@@@@@@@@@@@@@@@@@@@@@@@",
"@@@@@@@@@@@@@@  @@@@...XXXO@@@@@@@@@@@@@@@@@@@@@@@",
"@@@@@@@@@@@@@@   @@@@@..XXOO@@@@@@@@@@@@@@@@@@@@@@",
"@@@@@@@@@@@@@@@@  X.@@@..XOO@@@@@@@@@@@@@@@@@@@@@@",
"@@@@@@@@@@@@@@@@ XXX......XOO@@@@@@@@@@@@@@@@@@@@@",
"@@@@@@@@@@@@@@@@@@XXX....XXXO@@@@@@@@@@@@@@@@@@@@@",
"@@@@@@@@@@@@@@@@@@@XXXX..XXXO@@@@@@@@@@@@@@@@@@@@@",
"@@@@@@@@@@@@@@@@@@@XXXXX..XOO@@@@@@@@@@@@@@@@@@@@@",
"@@@@@@@@@@@@@@@@@@...XXXX..XO@@@@@@@@@@@@@@@@@@@@@",
"@@@@@@@@@@@@@@@@@.....XXXX.XO@@@@@@@@@@@@@@@@@@@@@",
"@@@@@@@@@@@@@@@@......XXXX.XO@@@@@@@@@@@@@@@@@@@@@",
"@@@@@@@@@@@@@@@   ....XXXX.XO@@@@@@@@@@@@@@@@@@@@@",
"@@@@@@@@@@@@@@   @@@...XXXXOO@@@@@@@@@@@@@@@@@@@@@",
"@@@@@@@@@@@@@@  @@@@....XXXXO@@@@@@@@@@@@@@@@@@@@@",
"@@@@@@@@@@@@@@@@@@@@.....XXOO@@@@@@@@@@@@@@@@@@@@@",
"@@@@@@@@@@@@@@@@@@@@.....XXXO@@@@@@@@@@@@@@@@@@@@@",
"@@@@@@@@@@@@@@@@  @@.....XXXO@@@@@@@@@@@@@@@@@@@@@",
"@@@@@@@@@@@@@@     .......XOO@@@@@@@@@@@@@@@@@@@@@",
"@@@@@@@@@@@@@@  .......XX.XXO@@@@@@@@@@@@@@@@@@@@@",
"@@@@@@@@@@@@@@@@@.....XXXX.XO@@@@@@@@@@@@@@@@@@@@@",
"@@@@@@@@@@@@@@@@@..X.XXXXX.XOO@@@@@@@@@@@@@@@@@@@@",
"@@@@@@@@@@@@@@@@@.XXXXXXXX.XOOO@@@@@@@@@@@@@@@@@@@",
"@@@@@@@@@@@@@@@@@ XXXXXXXX.XOO@@@@@@@@@@@@@@@@@@@@",
"@@@@@@@@@@@@@@@@   X++XXXX.OXX.@@@@@@@@@@@@@@@@@@@",
"@@@@@@@@@@@@@@    @@+++XXXXXX..   @@@@@@@@@@@@@@@@",
"@@@@@@@@@@@@@@  @@@@@++XX.XXXOoO    @@@@@@@@@@@@@@",
"@@@@@@@@@@@@@@@@@@@@@+++.XXXXoo...o@@@@@@@@@@@@@@@",
"@@@@@@@@@@@@@@@@@@@@@@++.XXXOXoooo @@@@@@@@@@@@@@@",
"@@@@@@@@@@@@@@@@@@@@@@@+.XXO+XXOOO@@@@@@@@@@@@@@@@",
"@@@@@@@@@@@@@@@@@@@@@@@+.XXO OO@O@@@@@@@@@@@@@@@@@",
"@@@@@@@@@@@@@@@@@@@@@@@@.XXO O@@@@@@@@@@@@@@@@@@@@",
"@@@@@@@@@@@@@@@@@@@@@@@@.XXXXOO@@@@@@@@@@@@@@@@@@@",
"@@@@@@@@@@@@@@@@@@@@@@@@.XXXOO@@@@@@@@@@@@@@@@@@@@",
"@@@@@@@@@@@@@@@@@@@@@@@@.XXXO@@@@@@@@@@@@@@@@@@@@@",
"@@@@@@@@@@@@@@@@@@@@@@@@XXXOO@@@@@@@@@@@@@@@@@@@@@",
"@@@@@@@@@@@@@@@@@@@@@@@@XOOO@@@@@@@@@@@@@@@@@@@@@@",
"@@@@@@@@@@@@@@@@@@@@@@@@@O @@@@@@@@@@@@@@@@@@@@@@@",
"@@@@@@@@@@@@@@@@@@@@@@@@@@@@@@@@@@@@@@@@@@@@@@@@@@",
"@@@@@@@@@@@@@@@@@@@@@@@@@@@@@@@@@@@@@@@@@@@@@@@@@@",
"@@@@@@@@@@@@@@@@@@@@@@@@@@@@@@@@@@@@@@@@@@@@@@@@@@"
};
