/* XPM */
static char *d7b1420e89f846bef8c3c91a7b3c251dWR8wsBDLhusnOgXI[] = {
/* columns rows colors chars-per-pixel */
"50 50 7 1 ",
"  c None",
". c black",
"X c #DB8837",
"o c #D99C63",
"O c #983B00",
"+ c #CD7C07",
"@ c white",
/* pixels */
"                                                  ",
"                                                  ",
"                                                  ",
"                                                  ",
"                                                  ",
"                                                  ",
"                                                  ",
"                                                  ",
"                                                  ",
"                                                  ",
"                                                  ",
"                                                  ",
"                                                  ",
"                                                  ",
"               .                                  ",
"             .X.                                  ",
"            ooO..                                 ",
"           oooO..                                 ",
"            ooOo.                                 ",
"         o o+oXXOO                                ",
"        oooo++ooO+o                               ",
"      ooo+..@o++++oooo                            ",
"     oo+++ooo++++++oooo oooooooooooooo            ",
"    .o+++++++++++OOooooo+oo+ooooooo+ooo           ",
"    oo++++++++O++++OOO++++++++OO++++++ooo         ",
"     ++OOOOOOO+++++OOOO+++++++OOOO++OOoo+o        ",
"           @@@++++++++OO++++++++OO+OOOO+++o       ",
"             @@@++++++++OOOO++++++OOO OO+++o      ",
"              @@@++++++OOOOOO++++++OO  OO++oo     ",
"               @@@++++OOOOOOOO+++++OO   OO+oo     ",
"                @@+++OOOOOOOOOOO+++OO   OO+o@     ",
"                 ++++OOOOO OO OOO++O     O+@@@    ",
"                  ++++OOO      OO++O      @@@@    ",
"                   .++ .O      .O .O       @@     ",
"                   ..  ..      .. ..              ",
"                   .. ...     ... ..              ",
"                  ... ..      .. ..               ",
"                  ..             ..               ",
"                                                  ",
"                                                  ",
"                                                  ",
"                                                  ",
"                                                  ",
"                                                  ",
"                                                  ",
"                                                  ",
"                                                  ",
"                                                  ",
"                                                  ",
"                                                  "
};
