/* XPM */
static char *_9b32b67a4f7445da1aa9ba2b336eb08HNhHeTadhhJ7BFq6[] = {
/* columns rows colors chars-per-pixel */
"50 50 7 1 ",
"  c None",
". c black",
"X c #DB8837",
"o c #D99C63",
"O c #983B00",
"+ c #CD7C07",
"@ c white",
/* pixels */
"                                                  ",
"                                                  ",
"                                                  ",
"                                                  ",
"                                                  ",
"                                                  ",
"                                                  ",
"                                                  ",
"                                                  ",
"                                                  ",
"                                                  ",
"                                                  ",
"                                                  ",
"                                                  ",
"                                                  ",
"                                                  ",
"                                                  ",
"              .                                   ",
"            .X.                                   ",
"           oXO..                                  ",
"          ooXO..                                  ",
"           oXOo.                                  ",
"        o o+XXXOO o                               ",
"       oooo++XoO+ooo                              ",
"     ooo+..@o++++ooooooooooooooooooo              ",
"    oo+++ooo++++o+++++o++o+o++++o++ooo            ",
"   .o+++++++++++OOOOO+++++++OOOO++++ooo           ",
"   oo+++++++++O++++++OO++++++++OO++O+++o          ",
"    ++OOOOOOOO++++++++OOOO++++++OOOOO+++o         ",
"          @@@@++++++++OOOOO++++++OOOOO+++o        ",
"            @@@@+++++OOOOOOO++++++OO OO+oo        ",
"             @@@@+++OOOOOOOOOOO+++OO  O+++o       ",
"               @@++OOOOOOOOOOOOO+++O  O+++oo      ",
"                ++++OOO     OOOO++++O  OO+o@      ",
"                .++OOO.     OOOO  +++   O+@@      ",
"               ...OOOO..    .OO    +.    @@@      ",
"               ..    O..   ..O     ...            ",
"              ..     ..   ...        ..           ",
"              ..     ..   ..         ..           ",
"                                                  ",
"                                                  ",
"                                                  ",
"                                                  ",
"                                                  ",
"                                                  ",
"                                                  ",
"                                                  ",
"                                                  ",
"                                                  ",
"                                                  "
};
