/* XPM */
static char *_d8d64523fab4b8dfe743436cdb6ccf3ZO0CmX1pyKti7f3Y[] = {
/* columns rows colors chars-per-pixel */
"50 50 7 1 ",
"  c None",
". c black",
"X c #983B00",
"o c #CD7C07",
"O c #DB8837",
"+ c #D99C63",
"@ c white",
/* pixels */
"                                                  ",
"                                                  ",
"                                                  ",
"                                                  ",
"                                                  ",
"                                                  ",
"                                                  ",
"                                                  ",
"                                                  ",
"                                                  ",
"                                                  ",
"                                                  ",
"                                                  ",
"                                                  ",
"                                 .                ",
"                                 .O.              ",
"                                ..XO+             ",
"                                ..XO++            ",
"                                .+XO+             ",
"                             + XXOOOo+ +          ",
"                            +++oXOOoo++++         ",
"           ++++++++++++++++++++oooo+@..o+++       ",
"       +  +o+oo+ooooooooo+oooooooooo+++ooo++      ",
"      ++++ooooooXXXXoooooooXXXXXooooooooooo+.     ",
"     +++oooXXooXXooooooooXXooooooXooooooooo++     ",
"    +++ooXXXXXXXooooooXXXXooooooooXXXXXXXXoo      ",
"    ++oooX  XXXooooooXXXXXoooooooo@@@@            ",
"   +++oXX   XXooooooXXXXXXXooooo@@@@              ",
"   ++ooX    XXoooooXXXXXXXXXooo@@@@               ",
"   @ooX     XXXoooooXXXXXXXXoooo@                 ",
"  @@@X     XXXXXoooo     XXooooo                  ",
"  @@@@     XXX XXooo     XooooX.                  ",
"  @@@      .X    X..     X..ooX..                 ",
"          ...      ..    ..    ..                 ",
"         ..         ..  ..      ..                ",
"         ..         ..  ..      ..                ",
"                                                  ",
"                                                  ",
"                                                  ",
"                                                  ",
"                                                  ",
"                                                  ",
"                                                  ",
"                                                  ",
"                                                  ",
"                                                  ",
"                                                  ",
"                                                  ",
"                                                  ",
"                                                  "
};
