/* XPM */
static char *c74cfcecc4894929b8e71ba1604728dfHjN5XjFf3awAHwtz[] = {
/* columns rows colors chars-per-pixel */
"50 50 8 1 ",
"  c None",
". c black",
"X c #DB8837",
"o c #983B00",
"O c #D99C63",
"+ c #CD7C07",
"@ c white",
"# c white",
/* pixels */
"                                                  ",
"                                                  ",
"                                                  ",
"                                                  ",
"                                                  ",
"                                                  ",
"                                                  ",
"                                                  ",
"                                                  ",
"                                                  ",
"                                                  ",
"                                 .                ",
"                                 .X.              ",
"                                ..oOO             ",
"                                ..oOOO            ",
"                                .OoOO             ",
"                               ooXXO+O O          ",
"                              O+oOO++OOOO         ",
"                           OOOO++++O@..+OOO       ",
"           OOOOOOOOOOOOOO OOOO++++++OOO+++OO      ",
"          OOO+OOOOOOO+OO+OOOOOoo+++++++++++O.     ",
"        OOO++++++oo++++++++ooo++++o++++++++OO     ",
"       O+OOoo++oooo+++++++oooo+++++ooooooo++      ",
"      O+++oooo+oo++++++++oo++++++++@@@            ",
"     O+++oo ooo++++++oooo++++++++@@@              ",
"    OO++oo  oo++++++oooooo++++++@@@               ",
"    OO+oo   oo+++++oooooooo++++@@@                ",
"    @O+oo   oo+++ooooooooooo+++@@                 ",
"   @@@+o     o++ooo oo ooooo++++                  ",
"   @@@@      o++oo      ooo++++                   ",
"    @@       o. o.      o. ++.                    ",
"             .. ..      ..  ..                    ",
"             .. ...     ... ..                    ",
"              .. ..      .. ...                   ",
"              ..             ..                   ",
"                                                  ",
"                                                  ",
"                                                  ",
"                                                  ",
"                                                  ",
"                                                  ",
"                                                  ",
"                                                  ",
"                                                  ",
"                                                  ",
"                                                  ",
"                                                  ",
"                                                  ",
"                                                  ",
"                                                  "
};
