/* XPM */
static char *_eef743aaf6e4f6cf22aab5e0935f0a31a9mYWlAEC4Xq450[] = {
/* columns rows colors chars-per-pixel */
"50 50 8 1 ",
"  c None",
". c black",
"X c #DB8837",
"o c #983B00",
"O c #D99C63",
"+ c #CD7C07",
"@ c white",
"# c white",
/* pixels */
"                                                  ",
"                                                  ",
"                                                  ",
"                                                  ",
"                                                  ",
"                                                  ",
"                                                  ",
"                                                  ",
"                                                  ",
"                                                  ",
"                                                  ",
"                                                  ",
"                                                  ",
"                                                  ",
"                                   .              ",
"                                   .X.            ",
"                                  ..oXO           ",
"                                  ..oXOO          ",
"                                  .OoXO           ",
"                               O ooXXX+O O        ",
"                              OOO+oOX++OOOO       ",
"              OOOOOOOOOOOOOOOOOOO++++O@..+OOO     ",
"            OOO++O++++O+O++O+++++O++++OOO+++OO    ",
"           OOO++++oooo+++++++ooooo+++++++++++O.   ",
"          O+++o++oo++++++++oo++++++o+++++++++OO   ",
"         O+++ooooo++++++oooo++++++++oooooooo++    ",
"        O+++ooooo++++++ooooo++++++++@@@@          ",
"        OO+oo oo++++++ooooooo+++++@@@@            ",
"       O+++o  oo+++ooooooooooo+++@@@@             ",
"      OO+++o  o+++ooooooooooooo++@@               ",
"      @O+oo  o++++oooo     ooo++++                ",
"      @@+o   +++  oooo     .ooo++.                ",
"      @@@    .+    oo.    ..oooo...               ",
"            ...     o..   ..o    ..               ",
"           ..        ...   ..     ..              ",
"           ..         ..   ..     ..              ",
"                                                  ",
"                                                  ",
"                                                  ",
"                                                  ",
"                                                  ",
"                                                  ",
"                                                  ",
"                                                  ",
"                                                  ",
"                                                  ",
"                                                  ",
"                                                  ",
"                                                  ",
"                                                  "
};
