/* XPM */
static char *result[] = {
/* columns rows colors chars-per-pixel */
"50 50 7 1 ",
"  c black",
". c #983B00",
"X c #CD7C07",
"o c #DB8837",
"O c #D99C63",
"+ c white",
"@ c None",
/* pixels */
"@@@@@@@@@@@@@@@@@@@@@@@@@@@@@@@@@@@@@@@@@@@@@@@@@@",
"@@@@@@@@@@@@@@@@@@@@@@@@@@@@@@@@@@@@@@@@@@@@@@@@@@",
"@@@@@@@@@@@@@@@@@@@@@@@@@@@@@@@@@@@@@@@@@@@@@@@@@@",
"@@@@@@@@@@@@@@@@@@@@@@@ O@@@@@@@@@@@@@@@@@@@@@@@@@",
"@@@@@@@@@@@@@@@@@@@@@@OOOX@@@@@@@@@@@@@@@@@@@@@@@@",
"@@@@@@@@@@@@@@@@@@@@@OOXXX@@@@@@@@@@@@@@@@@@@@@@@@",
"@@@@@@@@@@@@@@@@@@@@@OXXX.@@@@@@@@@@@@@@@@@@@@@@@@",
"@@@@@@@@@@@@@@@@@@@@OOXXX.@@@@@@@@@@@@@@@@@@@@@@@@",
"@@@@@@@@@@@@@@@@@@@OOXXXX.@@@@@@@@@@@@@@@@@@@@@@@@",
"@@@@@@@@@@@@@@@@@@@@O OXX.@@@@@@@@@@@@@@@@@@@@@@@@",
"@@@@@@@@@@@@@@@@@O@OO OXX.+@@@@@@@@@@@@@@@@@@@@@@@",
"@@@@@@@@@@@@@@@@OOOXX+OXX.+@@@@@@@@@@@@@@@@@@@@@@@",
"@@@@@@@@@@@@@@@ ooooXOXXX.++@@@@@@@@@@@@@@@@@@@@@@",
"@@@@@@@@@@@@@@@o...ooXXXX.+++@@@@@@@@@@@@@@@@@@@@@",
"@@@@@@@@@@@@@@    OoOXXX.XX++@@@@@  @@@@@@@@@@@@@@",
"@@@@@@@@@@@@@@@@   ..XXXXXX+++@@    @@@@@@@@@@@@@@",
"@@@@@@@@@@@@@@@@@@@.XXO.XXXX++X   @@@@@@@@@@@@@@@@",
"@@@@@@@@@@@@@@@@@@@@OOX.XXXXXXXX @@@@@@@@@@@@@@@@@",
"@@@@@@@@@@@@@@@@@@@OOOX.XXXXXXXX.@@@@@@@@@@@@@@@@@",
"@@@@@@@@@@@@@@@@@@@@OOX.XXXXX.X..@@@@@@@@@@@@@@@@@",
"@@@@@@@@@@@@@@@@@@@@@OX.XXXX.....@@@@@@@@@@@@@@@@@",
"@@@@@@@@@@@@@@@@@@@@@OXX.XX.......  @@@@@@@@@@@@@@",
"@@@@@@@@@@@@@@@@@@@@@OOX.......     @@@@@@@@@@@@@@",
"@@@@@@@@@@@@@@@@@@@@@OXXX.....@@  @@@@@@@@@@@@@@@@",
"@@@@@@@@@@@@@@@@@@@@@OXXX.....@@@@@@@@@@@@@@@@@@@@",
"@@@@@@@@@@@@@@@@@@@@@OOXX.....@@@@@@@@@@@@@@@@@@@@",
"@@@@@@@@@@@@@@@@@@@@@OXXXX....@@@@  @@@@@@@@@@@@@@",
"@@@@@@@@@@@@@@@@@@@@@OOXXXX...@@@   @@@@@@@@@@@@@@",
"@@@@@@@@@@@@@@@@@@@@@OX.XXXX....   @@@@@@@@@@@@@@@",
"@@@@@@@@@@@@@@@@@@@@@OX.XXXX......@@@@@@@@@@@@@@@@",
"@@@@@@@@@@@@@@@@@@@@@OX.XXXX.....@@@@@@@@@@@@@@@@@",
"@@@@@@@@@@@@@@@@@@@@@OX..XXXX...@@@@@@@@@@@@@@@@@@",
"@@@@@@@@@@@@@@@@@@@@@OOX..XXXXX@@@@@@@@@@@@@@@@@@@",
"@@@@@@@@@@@@@@@@@@@@@OXXX..XXXX@@@@@@@@@@@@@@@@@@@",
"@@@@@@@@@@@@@@@@@@@@@OXXX....XXX@@@@@@@@@@@@@@@@@@",
"@@@@@@@@@@@@@@@@@@@@@OOX......XXX @@@@@@@@@@@@@@@@",
"@@@@@@@@@@@@@@@@@@@@@@OOX..@@@.X  @@@@@@@@@@@@@@@@",
"@@@@@@@@@@@@@@@@@@@@@@OOXX..@@@@@   @@@@@@@@@@@@@@",
"@@@@@@@@@@@@@@@@@@@@@@@OXXX...@@@@  @@@@@@@@@@@@@@",
"@@@@@@@@@@@@@@@@@@@@@@@@OXXXXX.@@@@@@@@@@@@@@@@@@@",
"@@@@@@@@@@@@@@@@@@@@@@@@@OXOXX..@@@@@@@@@@@@@@@@@@",
"@@@@@@@@@@@@@@@@@@@@@@@@@@OOXXXX+@@@@@@@@@@@@@@@@@",
"@@@@@@@@@@@@@@@@@@@@@@@@@@@@OOO++@@@@@@@@@@@@@@@@@",
"@@@@@@@@@@@@@@@@@@@@@@@@@@@@@O+++@@@@@@@@@@@@@@@@@",
"@@@@@@@@@@@@@@@@@@@@@@@@@@@@@@@@@@@@@@@@@@@@@@@@@@",
"@@@@@@@@@@@@@@@@@@@@@@@@@@@@@@@@@@@@@@@@@@@@@@@@@@",
"@@@@@@@@@@@@@@@@@@@@@@@@@@@@@@@@@@@@@@@@@@@@@@@@@@",
"@@@@@@@@@@@@@@@@@@@@@@@@@@@@@@@@@@@@@@@@@@@@@@@@@@",
"@@@@@@@@@@@@@@@@@@@@@@@@@@@@@@@@@@@@@@@@@@@@@@@@@@",
"@@@@@@@@@@@@@@@@@@@@@@@@@@@@@@@@@@@@@@@@@@@@@@@@@@"
};
