/* XPM */
static char *result[] = {
/* columns rows colors chars-per-pixel */
"50 50 7 1 ",
"  c black",
". c #983B00",
"X c #CD7C07",
"o c #DB8837",
"O c #D99C63",
"+ c white",
"@ c None",
/* pixels */
"@@@@@@@@@@@@@@@@@@@@@@@@@@@@@@@@@@@@@@@@@@@@@@@@@@",
"@@@@@@@@@@@@@@@@@@@@@@@@@@@@@@@@@@@@@@@@@@@@@@@@@@",
"@@@@@@@@@@@@@@@@@@@@@@@@@@@@@@@@@@@@@@@@@@@@@@@@@@",
"@@@@@@@@@@@@@@@@@@@@++@@@@@@@@@@@@@@@@@@@@@@@@@@@@",
"@@@@@@@@@@@@@@@@@@@++++OO@@@@@@@@@@@@@@@@@@@@@@@@@",
"@@@@@@@@@@@@@@@@@@@+++OOOO@@@@@@@@@@@@@@@@@@@@@@@@",
"@@@@@@@@@@@@@@@@@@@@+XXXXXO@@@@@@@@@@@@@@@@@@@@@@@",
"@@@@@@@@@@@@@@@@@@@@@...XXXO@@@@@@@@@@@@@@@@@@@@@@",
"@@@@@@@@@@@@@@@@@@@@@@...XXXO@@@@@@@@@@@@@@@@@@@@@",
"@@@@@@@@@@@@@@@@@@@@@@@@..XOO@@@@@@@@@@@@@@@@@@@@@",
"@@@@@@@@@@@@@@@@@@@@@@@@@..OOO@@@@@@@@@@@@@@@@@@@@",
"@@@@@@@@@@@@@@@@@@@@@@@@@@..XOO@@@@@@@@@@@@@@@@@@@",
"@@@@@@@@@@@@@@@@@@@@@@......XOO@@@@@@@@@@@@@@@@@@@",
"@@@@@@@@@@@@@@@@@  ........XXXO@@@@@@@@@@@@@@@@@@@",
"@@@@@@@@@@@@@@@     XXXXX.XXXOO@@@@@@@@@@@@@@@@@@@",
"@@@@@@@@@@@@@@@  @@@XXXXXX..XOO@@@@@@@@@@@@@@@@@@@",
"@@@@@@@@@@@@@@@@@  ...XXXX..XOO@@@@@@@@@@@@@@@@@@@",
"@@@@@@@@@@@@@@@@    ...XXXX..OO@@@@@@@@@@@@@@@@@@@",
"@@@@@@@@@@@@@@@@  @@@..XXXX..OO@@@@@@@@@@@@@@@@@@@",
"@@@@@@@@@@@@@@@@@@@@@@..XXXXXOO@@@@@@@@@@@@@@@@@@@",
"@@@@@@@@@@@@@@@@@@@@@....XXXXOO@@@@@@@@@@@@@@@@@@@",
"@@@@@@@@@@@@@@@@@@@@@.....XXXXO@@@@@@@@@@@@@@@@@@@",
"@@@@@@@@@@@@@@@@@@@@@@....XXXOO@@@@@@@@@@@@@@@@@@@",
"@@@@@@@@@@@@@@@@@@@@@.....XXXOO@@@@@@@@@@@@@@@@@@@",
"@@@@@@@@@@@@@@@@@  .......XXXXO@@@@@@@@@@@@@@@@@@@",
"@@@@@@@@@@@@@@@@    .....X.XXO@@@@@@@@@@@@@@@@@@@@",
"@@@@@@@@@@@@@@@@  @@....XX..XOO@@@@@@@@@@@@@@@@@@@",
"@@@@@@@@@@@@@@@@@@@XX..XXXX..OOO@@@@@@@@@@@@@@@@@@",
"@@@@@@@@@@@@@@@@   XXXXXXXX..OOO@@@@@@@@@@@@@@@@@@",
"@@@@@@@@@@@@@@@     XXXXXXX..OOO@@@@@@@@@@@@@@@@@@",
"@@@@@@@@@@@@@@@  @@@XXXXXXXXX.XOO@@@@@@@@@@@@@@@@@",
"@@@@@@@@@@@@@@@@@@@@@X++XXXXX.XXX.@@@@@@@@@@@@@@@@",
"@@@@@@@@@@@@@@@@@@@@@@+++XXXXXXX..   @@@@@@@@@@@@@",
"@@@@@@@@@@@@@@@@@@@@@@@+++XXXXXXOoO    @@@@@@@@@@@",
"@@@@@@@@@@@@@@@@@@@@@@@@++XX.XXXOo...o@@@@@@@@@@@@",
"@@@@@@@@@@@@@@@@@@@@@@@@@++.XXXOXOOOO @@@@@@@@@@@@",
"@@@@@@@@@@@@@@@@@@@@@@@@@@+.XXO+XXOOO@@@@@@@@@@@@@",
"@@@@@@@@@@@@@@@@@@@@@@@@@@+.XXO OO@O@@@@@@@@@@@@@@",
"@@@@@@@@@@@@@@@@@@@@@@@@@@@.XXO O@@@@@@@@@@@@@@@@@",
"@@@@@@@@@@@@@@@@@@@@@@@@@@@.XXXXOO@@@@@@@@@@@@@@@@",
"@@@@@@@@@@@@@@@@@@@@@@@@@@@.XXXOO@@@@@@@@@@@@@@@@@",
"@@@@@@@@@@@@@@@@@@@@@@@@@@@.XXXO@@@@@@@@@@@@@@@@@@",
"@@@@@@@@@@@@@@@@@@@@@@@@@@@XXXOO@@@@@@@@@@@@@@@@@@",
"@@@@@@@@@@@@@@@@@@@@@@@@@@@XOOO@@@@@@@@@@@@@@@@@@@",
"@@@@@@@@@@@@@@@@@@@@@@@@@@@@O @@@@@@@@@@@@@@@@@@@@",
"@@@@@@@@@@@@@@@@@@@@@@@@@@@@@@@@@@@@@@@@@@@@@@@@@@",
"@@@@@@@@@@@@@@@@@@@@@@@@@@@@@@@@@@@@@@@@@@@@@@@@@@",
"@@@@@@@@@@@@@@@@@@@@@@@@@@@@@@@@@@@@@@@@@@@@@@@@@@",
"@@@@@@@@@@@@@@@@@@@@@@@@@@@@@@@@@@@@@@@@@@@@@@@@@@",
"@@@@@@@@@@@@@@@@@@@@@@@@@@@@@@@@@@@@@@@@@@@@@@@@@@"
};
