/* XPM */
static char *ddda9099b5154000afb7e99ef22f856avVTIr0PSCVz9vc1Y[] = {
/* columns rows colors chars-per-pixel */
"50 50 7 1 ",
"  c None",
". c black",
"X c #983B00",
"o c #CD7C07",
"O c #DB8837",
"+ c #D99C63",
"@ c white",
/* pixels */
"                                                  ",
"                                                  ",
"                                                  ",
"                                                  ",
"                                                  ",
"                       .+                         ",
"                      +++o                        ",
"                     ++ooo                        ",
"                     +oooX                        ",
"                    ++oooX                        ",
"                   ++ooooX                        ",
"                    +.+ooX                        ",
"                 + ++.+ooX@                       ",
"                +++oo@+ooX@                       ",
"               .OOOOo+oooX@@                      ",
"               OXXXOOooooX@@@                     ",
"              ....+OOoooXoo@@     ..              ",
"                ...XXoooooo@@@  ....              ",
"                   XoooXoooo@oo...                ",
"                    ++oXoooooooXX                 ",
"                   +++oXooooooooo                 ",
"                    ++oXooooooooo                 ",
"                     +oXooooXXoo.                 ",
"                     +ooXooXXXXo..                ",
"                     ++oXXXXXXXXX...              ",
"                     +oooXXXXX    ..              ",
"                     +oooXXXXX                    ",
"                     +oooXXXXX                    ",
"                     +ooooXXXX    ..              ",
"                     +oooooXXX   ...              ",
"                     +oXooooXooo..                ",
"                     +oXoooooooo.                 ",
"                     +oXooooooooX                 ",
"                     +oXXooooooX                  ",
"                     ++oXXooooXX                  ",
"                     +oooXXooXX                   ",
"                     +oooXXXXXXX                  ",
"                     ++oXXXXXXXXX.                ",
"                     +ooXX    XX..                ",
"                      +ooX       ...              ",
"                       +oXX       ..              ",
"                       +oooX                      ",
"                      +++ooXX                     ",
"                       +++oooX                    ",
"                        ++++ooX@                  ",
"                         ++++o@@@                 ",
"                           ++@@@@                 ",
"                              @@@                 ",
"                                                  ",
"                                                  "
};
