/* XPM */
static char *_c49650b9bfe4bcb83521fc8aa293ce7G4JCJ1vPDsA1JNxp[] = {
/* columns rows colors chars-per-pixel */
"50 50 7 1 ",
"  c None",
". c black",
"X c #DB8837",
"o c #D99C63",
"O c #983B00",
"+ c #CD7C07",
"@ c white",
/* pixels */
"                                                  ",
"                                                  ",
"                                                  ",
"                                                  ",
"                                                  ",
"                                                  ",
"                                                  ",
"                                                  ",
"                                                  ",
"                                                  ",
"                                                  ",
"                                                  ",
"                                                  ",
"                                                  ",
"                                                  ",
"                                                  ",
"                                                  ",
"              .                                   ",
"            .X.                                   ",
"           oXO..                                  ",
"          ooXO..                                  ",
"           oXOo.                                  ",
"        o o+XXXOO o                               ",
"       oooo++XXO+ooo                              ",
"     ooo+..@o++++oooooooooooooooooooo             ",
"    oo+++ooo++++++++++o+++++++++o++o+o  o         ",
"   .o+++++++++++OOOOO+++++++OOOO++++++oooo        ",
"   oo+++++++++O++++++OO++++++++OO++OO+++ooo       ",
"    ++OOOOOOOO++++++++OOOO++++++OOOOOOO++ooo      ",
"          @@@@++++++++OOOOO++++++OOO  O+++oo      ",
"            @@@@+++++OOOOOOO++++++OO   OO+ooo     ",
"             @@@@+++OOOOOOOOO+++++OO    O++oo     ",
"               @++++OOOOOOOO+++++OOO     O++@     ",
"                +++++OO     ++++OOOOO     O@@@    ",
"                .O++++O     +++OO OOO     @@@@    ",
"               ..O++..O     ..O    O.      @@@    ",
"               ..    ..    ..      ...            ",
"              ..      ..  ..         ..           ",
"              ..      ..  ..         ..           ",
"                                                  ",
"                                                  ",
"                                                  ",
"                                                  ",
"                                                  ",
"                                                  ",
"                                                  ",
"                                                  ",
"                                                  ",
"                                                  ",
"                                                  "
};
