/* XPM */
static char *result[] = {
/* columns rows colors chars-per-pixel */
"50 50 7 1 ",
"  c black",
". c #983B00",
"X c #CD7C07",
"o c #DB8837",
"O c #D99C63",
"+ c white",
"@ c None",
/* pixels */
"@@@@@@@@@@@@@@@@@@@@@@@@@@@@@@@@@@@@@@@@@@@@@@@@@@",
"@@@@@@@@@@@@@@@@@@@@@@@@@@@@@@@@@@@@@@@@@@@@@@@@@@",
"@@@@@@@@@@@@@@@@@+++@@@@@@@@@@@@@@@@@@@@@@@@@@@@@@",
"@@@@@@@@@@@@@@@@@++++OO@@@@@@@@@@@@@@@@@@@@@@@@@@@",
"@@@@@@@@@@@@@@@@@+++XOOOO@@@@@@@@@@@@@@@@@@@@@@@@@",
"@@@@@@@@@@@@@@@@@@+.XXOOOO@@@@@@@@@@@@@@@@@@@@@@@@",
"@@@@@@@@@@@@@@@@@@@@.XXXOOO@@@@@@@@@@@@@@@@@@@@@@@",
"@@@@@@@@@@@@@@@@@@@@@..XXOOO@@@@@@@@@@@@@@@@@@@@@@",
"@@@@@@@@@@@@@@@@@@@@@@.XXXO@@@@@@@@@@@@@@@@@@@@@@@",
"@@@@@@@@@@@@@@  @@@@@@@..XO@@@@@@@@@@@@@@@@@@@@@@@",
"@@@@@@@@@@@@@@   @@@@@@@.XXO@@@@@@@@@@@@@@@@@@@@@@",
"@@@@@@@@@@@@@@@@  ..@@@@..XXO@@@@@@@@@@@@@@@@@@@@@",
"@@@@@@@@@@@@@@@@ .........XOO@@@@@@@@@@@@@@@@@@@@@",
"@@@@@@@@@@@@@@@@@@.......XXXO@@@@@@@@@@@@@@@@@@@@@",
"@@@@@@@@@@@@@@@@@@@..XX..XXXO@@@@@@@@@@@@@@@@@@@@@",
"@@@@@@@@@@@@@@@@@@..XXXX..XOO@@@@@@@@@@@@@@@@@@@@@",
"@@@@@@@@@@@@@@@@@@.XXXXXX..XO@@@@@@@@@@@@@@@@@@@@@",
"@@@@@@@@@@@@@@@@@.XXXXXXXX.XO@@@@@@@@@@@@@@@@@@@@@",
"@@@@@@@@@@@@@@@@@ XXXXXXXX.XO@@@@@@@@@@@@@@@@@@@@@",
"@@@@@@@@@@@@@@@@  XXX.XXXX.XO@@@@@@@@@@@@@@@@@@@@@",
"@@@@@@@@@@@@@@   @@@...XXXXXO@@@@@@@@@@@@@@@@@@@@@",
"@@@@@@@@@@@@@@  @@@@....XXXXO@@@@@@@@@@@@@@@@@@@@@",
"@@@@@@@@@@@@@@@@@@@@.....XXXO@@@@@@@@@@@@@@@@@@@@@",
"@@@@@@@@@@@@@@@@@@@@.....XXXO@@@@@@@@@@@@@@@@@@@@@",
"@@@@@@@@@@@@@@  @@@@.....XXXO@@@@@@@@@@@@@@@@@@@@@",
"@@@@@@@@@@@@@@   .........XOO@@@@@@@@@@@@@@@@@@@@@",
"@@@@@@@@@@@@@@@@  X....XX.XXO@@@@@@@@@@@@@@@@@@@@@",
"@@@@@@@@@@@@@@@@@ XX..XXXX.XO@@@@@@@@@@@@@@@@@@@@@",
"@@@@@@@@@@@@@@@@@XXXXXXXXX.XOO@@@@@@@@@@@@@@@@@@@@",
"@@@@@@@@@@@@@@@@@XXXXXXXXX.XOOO@@@@@@@@@@@@@@@@@@@",
"@@@@@@@@@@@@@@@@@..XXXXXXX.XOO@@@@@@@@@@@@@@@@@@@@",
"@@@@@@@@@@@@@@@@   XX+XXXX.XXX.@@@@@@@@@@@@@@@@@@@",
"@@@@@@@@@@@@@@    @@+++XXXXXX..   @@@@@@@@@@@@@@@@",
"@@@@@@@@@@@@@@  @@@@@++XX.XXXooO    @@@@@@@@@@@@@@",
"@@@@@@@@@@@@@@@@@@@@@+++.XXXXoo...o@@@@@@@@@@@@@@@",
"@@@@@@@@@@@@@@@@@@@@@@++.XXXOXoooo @@@@@@@@@@@@@@@",
"@@@@@@@@@@@@@@@@@@@@@@@+.XXO+XXOOO@@@@@@@@@@@@@@@@",
"@@@@@@@@@@@@@@@@@@@@@@@+.XXO OO@O@@@@@@@@@@@@@@@@@",
"@@@@@@@@@@@@@@@@@@@@@@@@.XXO O@@@@@@@@@@@@@@@@@@@@",
"@@@@@@@@@@@@@@@@@@@@@@@@.XXXXOO@@@@@@@@@@@@@@@@@@@",
"@@@@@@@@@@@@@@@@@@@@@@@@.XXXOO@@@@@@@@@@@@@@@@@@@@",
"@@@@@@@@@@@@@@@@@@@@@@@@.XXXO@@@@@@@@@@@@@@@@@@@@@",
"@@@@@@@@@@@@@@@@@@@@@@@@XXXOO@@@@@@@@@@@@@@@@@@@@@",
"@@@@@@@@@@@@@@@@@@@@@@@@XOOO@@@@@@@@@@@@@@@@@@@@@@",
"@@@@@@@@@@@@@@@@@@@@@@@@@O @@@@@@@@@@@@@@@@@@@@@@@",
"@@@@@@@@@@@@@@@@@@@@@@@@@@@@@@@@@@@@@@@@@@@@@@@@@@",
"@@@@@@@@@@@@@@@@@@@@@@@@@@@@@@@@@@@@@@@@@@@@@@@@@@",
"@@@@@@@@@@@@@@@@@@@@@@@@@@@@@@@@@@@@@@@@@@@@@@@@@@",
"@@@@@@@@@@@@@@@@@@@@@@@@@@@@@@@@@@@@@@@@@@@@@@@@@@",
"@@@@@@@@@@@@@@@@@@@@@@@@@@@@@@@@@@@@@@@@@@@@@@@@@@"
};
