/* XPM */
static char *_84ad9b8afc044d2b0989965c139ce986U45mfTNCqXUxnbi[] = {
/* columns rows colors chars-per-pixel */
"50 50 7 1 ",
"  c None",
". c black",
"X c #983B00",
"o c #CD7C07",
"O c #DB8837",
"+ c #D99C63",
"@ c white",
/* pixels */
"                                                  ",
"                                                  ",
"                                                  ",
"                                                  ",
"                                                  ",
"                    .+                            ",
"                   +++o                           ",
"                  ++ooo                           ",
"                  +oooX                           ",
"                 ++oooX                           ",
"                ++ooooX                           ",
"                 +.+ooX                           ",
"              + ++.+ooX@                          ",
"             +++oo@+ooX@                          ",
"            .++++o+oooX@@                         ",
"            OXXXO+oooXoo@@                        ",
"           ....+O+oooooo@@@                       ",
"             ...XXooooooo@@@                      ",
"                XoooXooooo@@o                     ",
"                 ++oXooooooooo   ..               ",
"                  +++XXooooooo.....               ",
"                  +++XXoooooooo...                ",
"                  +++XXooooXXoo                   ",
"                   ++oXXooXXXX  ..                ",
"                    +ooXoXXXXX....                ",
"                   +ooooXXXXXXX..                 ",
"                   ++oooXXXXX                     ",
"                   ++oooXXXX                      ",
"                   +ooooXXXXX                     ",
"                   ++ooooXXXX                     ",
"                   ++oooooXX                      ",
"                   ++XXooooXX   ..                ",
"                   ++XXooooXXX....                ",
"                   ++oXXooooXXX..                 ",
"                   ++oXXoooooo   ..               ",
"                   ++oooXooooo.....               ",
"                   +oooXXXXXXXX..                 ",
"                   ++oXXXXXX                      ",
"                   ++oXX                          ",
"                    +++XX                         ",
"                     ++oXX                        ",
"                     +oooXXX                      ",
"                      +oooXXX                     ",
"                       +ooooo@                    ",
"                        ++++@@@                   ",
"                         ++@@@@                   ",
"                            @@                    ",
"                                                  ",
"                                                  ",
"                                                  "
};
