/* XPM */
static char *result[] = {
/* columns rows colors chars-per-pixel */
"50 50 57 1 ",
"  c #010000",
". c #0A0203",
"X c #0B0B0B",
"o c #150306",
"O c #1A0205",
"+ c #1E0509",
"@ c #110E0E",
"# c #141313",
"$ c #21050A",
"% c #2C070D",
"& c #31070E",
"* c #33080F",
"= c #360810",
"- c #3D0A12",
"; c #1E2020",
": c #292A2A",
"> c #352326",
", c #323232",
"< c #373838",
"1 c gray22",
"2 c #430B14",
"3 c #4B0C16",
"4 c #4F0D18",
"5 c #500C17",
"6 c #530D19",
"7 c #5C0F1B",
"8 c #49161E",
"9 c #620F1D",
"0 c #760E1F",
"q c #65101E",
"w c #69101F",
"e c #4C1921",
"r c #6D1121",
"t c #741222",
"y c #7C1425",
"u c #3F4040",
"i c #544346",
"p c #525252",
"a c #831427",
"s c #861528",
"d c #8B162A",
"f c #8E182B",
"g c #91172B",
"h c #94182D",
"j c #9A1A2F",
"k c #9E1A30",
"l c #A11B31",
"z c #828483",
"x c #98878A",
"c c #999B9B",
"v c #AF9EA1",
"b c #A7A8A8",
"n c #ABABAB",
"m c #C2B2B4",
"M c #C5C5C5",
"N c #DEDEDE",
"B c None",
/* pixels */
"BBBBBBBBBBBBBBBBBBBBBBBBBBBBBBBBBBBBBBBBBBBBBBBBBB",
"BBBBBBBBBBBBBBBBBBBBBBBBBBBBBBBBBBBBBBBBBBBBBBBBBB",
"BBBBBBBBBBBBBBBBBB2-----2---2-BBBBBBBBBBBBBBBBBBBB",
"BBBBBBBBBBBBBBBBB-6qryyyyyyyyt8BBBBBBBBBBBBBBBBBBB",
"BBBBBBBBBBBBBBBB23rdllljfffgfa73BBBBBBBBBBBBBBBBBB",
"BBBBBBBBBBBBBBB*4tdlllkt446647ar-BBBBBBBBBBBBBBBBB",
"BBBBBBBBBBBBBB26wdjllhy2+$$$o*rtq6BBBBBBBBBBBBBBBB",
"BBBBBBBBBBBBB=2tdkllly-o     X%rdq-BBBBBBBBBBBBBBB",
"BBBBBBBBBBBBB*2thllhr2+       .=qyr3BBBBBBBBBBBBBB",
"BBBBBBBBBBBBB26tgllf8+         o-yf8*BBBBBBBBBBBBB",
"BBBBBBBBBBBB-9yygllg6+         o=yf4*BBBBBBBBBBBBB",
"BBBBBBBBBBBB-9aadhkf6O ip#   #pi2yf4*BBBBBBBBBBBBB",
"BBBBBBBBBBBB-qayyajf4OXcM,   ,Mv80f4*BBBBBBBBBBBBB",
"BBBBBBBBBBBB-qy7qyjf4O@nN<   <Nme0f4*BBBBBBBBBBBBB",
"BBBBBBBBBBBB-qt26ajf4OXzb:   :bx80d3*BBBBBBBBBBBBB",
"BBBBBBBBBBBB2qt36yjf6$ ;:X   X:>-wy4=BBBBBBBBBBBBB",
"BBBBBBBBBBBB-7726ygdr2o        .*wt2*BBBBBBBBBBBBB",
"BBBBBBBBBBBBB---6yadjt-O       O2wt3=BBBBBBBBBBBBB",
"BBBBBBBBBBBBBBBB27wdga9-o     o29762BBBBBBBBBBBBBB",
"BBBBBBBBBBBBBBBBB-7ttyy9-o...o-7r6=BBBBBBBBBBBBBBB",
"BBBBBBBBBBBBBBBBBB2229ayq=%&%-qq42BBBBBBBBBBBBBBBB",
"BBBBBBBBBBBBBBBBBB3669yddrqqqray62BBBBBBBBBBBBBBBB",
"BBBBBBBBBBBBBBBBB2qayaahkkljjllhy6-BBBBBBBBBBBBBBB",
"BBBBBBBBBBBBBBBB49ajjhhjllllllljgy92BBBBBBBBBBBBBB",
"BBBBBBBBBBBBBBB=6yjlllllllllkllllgt2=BBBBBBBBBBBBB",
"BBBBBBBBBBBBBBB=6ahllllllllllllllgt2=BBBBBBBBBBBBB",
"BBBBBBBBBBBBBBB=7djllllkllllkllllhy3=BBBBBBBBBBBBB",
"BBBBBBBBBBBBBBB-qjlllkllllklllllkld4*BBBBBBBBBBBBB",
"BBBBBBBBBBBBBB27yllllkllllllllllllg4*BBBBBBBBBBBBB",
"BBBBBBBBBBBBB*3tfjllllllllkjkllkllg72BBBBBBBBBBBBB",
"BBBBBBBBBBBBB=2tgjllllllllhfhlllllja7-BBBBBBBBBBBB",
"BBBBBBBBBBBBB=3tgllllkllllhahlllkljd9-BBBBBBBBBBBB",
"BBBBBBBBBBBBB=3tgklllllllkhaglllllks9-BBBBBBBBBBBB",
"BBBBBBBBBBBBB*2rgklkllklkht7tglllhdaq-BBBBBBBBBBBB",
"BBBBBBBBBBBBB26tdjkkkjlkhs929shkldaaq-BBBBBBBBBBBB",
"BBBBBBBBBBBB27taadjjdhkhsa929adgkfyaq-BBBBBBBBBBBB",
"BBBBBBBBBBBB-qaaaydggdgdy03%3wydgdaa92BBBBBBBBBBBB",
"BBBBBBBBBBBB-qaayaadjhaat2$.$3taaaya9-BBBBBBBBBBBB",
"BBBBBBBBBBBB-qy7waaaddaw2$. $3tsy97y92BBBBBBBBBBBB",
"BBBBBBBBBBBB29q26yytyay6%.  O-wyy75w9-BBBBBBBBBBBB",
"BBBBBBBBBBBBB22-6y76tay7%.   O=9yyw62BBBBBBBBBBBBB",
"BBBBBBBBBBBBBB==3q429w94=o   .%49w72BBBBBBBBBBBBBB",
"BBBBBBBBBBBBBBB---BB=---=BBB .%=--2BBBBBBBBBBBBBBB",
"BBBBBBBBBBBBBBBBBBBBooo$BBBBB.o+BBBBBBBBBBBBBBBBBB",
"BBBBBBBBBBBBBBBBBBBB   BBBBBBB  BBBBBBBBBBBBBBBBBB",
"BBBBBBBBBBBBBBBBBBBBB  BBBBBBB  BBBBBBBBBBBBBBBBBB",
"BBBBBBBBBBBBBBBBBBBBBB BBBBBBB  BBBBBBBBBBBBBBBBBB",
"BBBBBBBBBBBBBBBBBBBBBB BBBBBBB  BBBBBBBBBBBBBBBBBB",
"BBBBBBBBBBBBBBBBBBBBBBBBBBBBBBBBBBBBBBBBBBBBBBBBBB",
"BBBBBBBBBBBBBBBBBBBBBBBBBBBBBBBBBBBBBBBBBBBBBBBBBB"
};
