/* XPM */
static char *result[] = {
/* columns rows colors chars-per-pixel */
"50 50 61 1 ",
"  c #010000",
". c #0C0203",
"X c #0C0B0B",
"o c #130205",
"O c #190204",
"+ c #1E0409",
"@ c #110E0E",
"# c #141313",
"$ c #24060A",
"% c #2D070D",
"& c #30070E",
"* c #34080F",
"= c #360810",
"- c #3A0911",
"; c #1F2020",
": c #292A2A",
"> c #342326",
", c #323232",
"< c #373838",
"1 c gray22",
"2 c #440B14",
"3 c #4B0C16",
"4 c #4F0D18",
"5 c #500C17",
"6 c #540D19",
"7 c #5B0E1B",
"8 c #49161E",
"9 c #5F101D",
"0 c #630F1D",
"q c #6F0F1F",
"w c #770E1F",
"e c #65101E",
"r c #6A101F",
"t c #4C1921",
"y c #780F20",
"u c #6D1121",
"i c #731222",
"p c #7D1425",
"a c #3E4040",
"s c #554446",
"d c #525252",
"f c #821426",
"g c #861528",
"h c #8C172A",
"j c #8E182B",
"k c #91172B",
"l c #94182D",
"z c #9A192E",
"x c #9E1B30",
"c c #A11B31",
"v c #A81C33",
"b c #828483",
"n c #98878A",
"m c #999B9B",
"M c #AF9EA1",
"N c #A7A8A8",
"B c #ABABAB",
"V c #C2B2B4",
"C c #C5C5C5",
"Z c #DEDEDE",
"A c None",
/* pixels */
"AAAAAAAAAAAAAAAAAAAAAAAAAAAAAAAAAAAAAAAAAAAAAAAAAA",
"AAAAAAAAAAAAAAAAAAAAAAAAAAAAAAAAAAAAAAAAAAAAAAAAAA",
"AAAAAAAAAAAAAAAAAAAAAAAAAAAAAAAAAAAAAAAAAAAAAAAAAA",
"AAAAAAAAAAAAAAAAAAAAAAAAAAAAAAAAAAAAAAAAAAAAAAAAAA",
"AAAAAAAAAAAAAAAAAAAAAAAAAAAAAAAAAAAAAAAAAAAAAAAAAA",
"AAAAAAAAAAAAAAAAAAA----=-*---*AAAAAAAAAAAAAAAAAAAA",
"AAAAAAAAAAAAAAAAAA567eeeeeeeee2AAAAAAAAAAAAAAAAAAA",
"AAAAAAAAAAAAAAAAA2egzzzllllllg6-AAAAAAAAAAAAAAAAAA",
"AAAAAAAAAAAAAAAA3epxcvvfrrrreuiu-AAAAAAAAAAAAAAAAA",
"AAAAAAAAAAAAAAA29fxccxg5%%%%$2pi62AAAAAAAAAAAAAAAA",
"AAAAAAAAAAAAAA2efzxccg3$ ....o2ug9=AAAAAAAAAAAAAAA",
"AAAAAAAAAAAAA*2ilxcxg6$.      o8iu93AAAAAAAAAAAAAA",
"AAAAAAAAAAAAA-3ijxvj6$.        +2pg4*AAAAAAAAAAAAA",
"AAAAAAAAAAAA-6rpjcvj4+         .-pj5*AAAAAAAAAAAAA",
"AAAAAAAAAAA23qffhlcj5+ ;:X   X:>-pj4*AAAAAAAAAAAAA",
"AAAAAAAAAA-5ipfpfgxj5O@bN:   :Nn8pj5*AAAAAAAAAAAAA",
"AAAAAAAAAA-6fgpuupxh4O@BZ1   <ZVtwh5=AAAAAAAAAAAAA",
"AAAAAAAAAA-6pfi36fzj4O@mC,   ,CNtyg5=AAAAAAAAAAAAA",
"AAAAAAAAAAA3563-6pxh3o.ad#   #ds2uf3=AAAAAAAAAAAAA",
"AAAAAAAAAAAA--=-6plh9=.        O-ri3=AAAAAAAAAAAAA",
"AAAAAAAAAAAAAAA-6pghhu&o       o-ui2=AAAAAAAAAAAAA",
"AAAAAAAAAAAAAAAA4eiglf6&.     o%6072AAAAAAAAAAAAAA",
"AAAAAAAAAAAAAAAAA2efffp6&.  ..%6p6-AAAAAAAAAAAAAAA",
"AAAAAAAAAAAAAAAAAA355epi6%+++%6062AAAAAAAAAAAAAAAA",
"AAAAAAAAAAAAAAAAAA2227pgf73447pu3-AAAAAAAAAAAAAAAA",
"AAAAAAAAAAAAAAAAA27iipfjllhjhllji5-AAAAAAAAAAAAAAA",
"AAAAAAAAAAAAAAAA26phkjjxcvcvcvvxhu52AAAAAAAAAAAAAA",
"AAAAAAAAAAAAAAA-6pkccxxccccccxcxxhi2=AAAAAAAAAAAAA",
"AAAAAAAAAAAAAAA=6pzcccccccxccccccki3=AAAAAAAAAAAAA",
"AAAAAAAAAAAAAAA20gzcccccccccccccxli2=AAAAAAAAAAAAA",
"AAAAAAAAAAAAAA2ufzxcxcccccccccccccg3*AAAAAAAAAAAAA",
"AAAAAAAAAAAAA=2ilxcccccccxccccxccvj3*AAAAAAAAAAAAA",
"AAAAAAAAAAAAA-3ikxccxcccccczxcccxvh5=AAAAAAAAAAAAA",
"AAAAAAAAAAAA-6rpkxcccccccczkzccccvli62AAAAAAAAAAAA",
"AAAAAAAAAAA22qffkxcccccxxxlflcccxxzg0-AAAAAAAAAAAA",
"AAAAAAAAAA-5ipffhxcccccccvlglcccvvxg02AAAAAAAAAAAA",
"AAAAAAAAAA-6pfffhcccccccczfrfzxczzkfq62AAAAAAAAAAA",
"AAAAAAAAAA-6pfffhxcccxcczg02egzxckfffp5-AAAAAAAAAA",
"AAAAAAAAAA-6pfpffkzzklczhf02efhzcjfpff6-AAAAAAAAAA",
"AAAAAAAAAA-6pffffflzhhzhfp6*6pphlhffff6-AAAAAAAAAA",
"AAAAAAAAAA-6fffffffhllggi6%o%6pggfpfff6-AAAAAAAAAA",
"AAAAAAAAAAA3eiprupfglkfi6%. +2ifffpre05AAAAAAAAAAA",
"AAAAAAAAAAAA2ri36pppffp6=. .+2ipfpi3--AAAAAAAAAAAA",
"AAAAAAAAAAAAA35236666652&.  .$366652--AAAAAAAAAAAA",
"AAAAAAAAAAAAA--AA-----=*$.   .%=&*-AA-AAAAAAAAAAAA",
"AAAAAAAAAAAAAAAAAAAAAAAo.AAAAAAo.OAAAAAAAAAAAAAAAA",
"AAAAAAAAAAAAAAAAAAAAAAA AAAAAAA  AAAAAAAAAAAAAAAAA",
"AAAAAAAAAAAAAAAAAAAAAA AAAAAAA  AAAAAAAAAAAAAAAAAA",
"AAAAAAAAAAAAAAAAAAAAAAAAAAAAAAAAAAAAAAAAAAAAAAAAAA",
"AAAAAAAAAAAAAAAAAAAAAAAAAAAAAAAAAAAAAAAAAAAAAAAAAA"
};
