/* XPM */
static char *result[] = {
/* columns rows colors chars-per-pixel */
"50 50 245 2 ",
"   c black",
".  c #010000",
"X  c #020000",
"o  c #020001",
"O  c #030001",
"+  c #030101",
"@  c #040101",
"#  c #060102",
"$  c #070606",
"%  c #080102",
"&  c #090102",
"*  c #090103",
"=  c #0A0103",
"-  c #0A0203",
";  c #0D0103",
":  c #0D0204",
">  c #0E0204",
",  c #0F0204",
"<  c #0F0205",
"1  c #090607",
"2  c #110103",
"3  c #120104",
"4  c #110305",
"5  c #120305",
"6  c #170407",
"7  c #190003",
"8  c #190105",
"9  c #1C0206",
"0  c #180407",
"q  c #1D0408",
"w  c #100D0E",
"e  c #161616",
"r  c #200509",
"t  c #23050A",
"y  c #23060A",
"u  c #25060B",
"i  c #2A060C",
"p  c #2C070D",
"a  c #2D070D",
"s  c #2E070D",
"d  c #2F070E",
"f  c #30070E",
"g  c #32080E",
"h  c #32080F",
"j  c #33080F",
"k  c #34080F",
"l  c #35080F",
"z  c #350810",
"x  c #360810",
"c  c #370810",
"v  c #370910",
"b  c #380910",
"n  c #390911",
"m  c #3A0911",
"M  c #3B0911",
"N  c #3C0912",
"B  c #3D0912",
"V  c #3D0A12",
"C  c #3E0A12",
"Z  c #3F0A12",
"A  c #2E2F2F",
"S  c #2F2F2F",
"D  c #400A13",
"F  c #410A13",
"G  c #420A13",
"H  c #430A14",
"J  c #450B14",
"K  c #460B14",
"L  c #460B15",
"P  c #470B15",
"I  c #410F17",
"U  c #480B15",
"Y  c #490B15",
"T  c #490C16",
"R  c #4A0C16",
"E  c #4B0C16",
"W  c #4D0C17",
"Q  c #4E0C17",
"!  c #4F0D17",
"~  c #430F18",
"^  c #4F0D18",
"/  c #500C18",
"(  c #500D18",
")  c #510D18",
"_  c #520D18",
"`  c #530D18",
"'  c #520D19",
"]  c #540D19",
"[  c #550D19",
"{  c #560D19",
"}  c #570D19",
"|  c #570D1A",
" . c #550E1A",
".. c #570E1A",
"X. c #580E1A",
"o. c #5A0E1B",
"O. c #5B0E1B",
"+. c #5B0F1B",
"@. c #5D0E1B",
"#. c #5D0F1C",
"$. c #5E0E1C",
"%. c #5F0F1C",
"&. c #5F0F1D",
"*. c #49161E",
"=. c #5F101D",
"-. c #600F1C",
";. c #620F1D",
":. c #630F1D",
">. c #640F1D",
",. c #6E0F1F",
"<. c #760E1F",
"1. c #61101D",
"2. c #63101E",
"3. c #64101D",
"4. c #64101E",
"5. c #65101E",
"6. c #66101E",
"7. c #67111F",
"8. c #68101F",
"9. c #69101F",
"0. c #6A101F",
"q. c #6B111F",
"w. c #691120",
"e. c #6B1120",
"r. c #6D1120",
"t. c #6F1121",
"y. c #6C1220",
"u. c #6D1221",
"i. c #6E1221",
"p. c #701121",
"a. c #711121",
"s. c #701221",
"d. c #721222",
"f. c #731222",
"g. c #741222",
"h. c #751222",
"j. c #761223",
"k. c #771223",
"l. c #771323",
"z. c #761324",
"x. c #771424",
"c. c #7B1223",
"v. c #781324",
"b. c #791324",
"n. c #7A1324",
"m. c #7B1324",
"M. c #7D1325",
"N. c #7E1325",
"B. c #781424",
"V. c #7D1425",
"C. c #7E1425",
"Z. c #7F1425",
"A. c #7C1526",
"S. c #7D1526",
"D. c #7E1426",
"F. c #7F1426",
"G. c #7E1526",
"H. c #7F1526",
"J. c #434544",
"K. c #434545",
"L. c #59484B",
"P. c #575858",
"I. c #585858",
"U. c #801426",
"Y. c #811426",
"T. c #811527",
"R. c #821426",
"E. c #831426",
"W. c #831427",
"Q. c #821527",
"!. c #831527",
"~. c #821627",
"^. c #841427",
"/. c #841527",
"(. c #851527",
"). c #851528",
"_. c #861528",
"`. c #871528",
"'. c #841628",
"]. c #851628",
"[. c #861629",
"{. c #871629",
"}. c #881528",
"|. c #891529",
" X c #881628",
".X c #881629",
"XX c #891629",
"oX c #8A1629",
"OX c #8B1629",
"+X c #89172A",
"@X c #8B162A",
"#X c #8A172A",
"$X c #8C172A",
"%X c #8D172A",
"&X c #8C172B",
"*X c #8D172B",
"=X c #8E172A",
"-X c #8E172B",
";X c #8F172B",
":X c #8D182B",
">X c #8E182B",
",X c #8F182B",
"<X c #8F182C",
"1X c #90172B",
"2X c #91172B",
"3X c #90182C",
"4X c #91182C",
"5X c #92182C",
"6X c #93182C",
"7X c #94182C",
"8X c #94182D",
"9X c #95192D",
"0X c #96182D",
"qX c #97182D",
"wX c #96192D",
"eX c #97192D",
"rX c #97192E",
"tX c #98192E",
"yX c #99192E",
"uX c #9A192E",
"iX c #9A192F",
"pX c #9B192F",
"aX c #981A2E",
"sX c #9A1A2F",
"dX c #9B1A2F",
"fX c #9C1A2F",
"gX c #9D1A2F",
"hX c #9C1A30",
"jX c #9D1A30",
"kX c #9E1A30",
"lX c #9F1B30",
"zX c #A01B31",
"xX c #A11B31",
"cX c #A21B31",
"vX c #A31B32",
"bX c #A41B32",
"nX c #A41C32",
"mX c #A51C32",
"MX c #A61C32",
"NX c #A61C33",
"BX c #A81C33",
"VX c #909291",
"CX c #A69598",
"ZX c #B9B9B9",
"AX c None",
/* pixels */
"AXAXAXAXAXAXAXAXAXAXAXAXAXAXAXAXAXAXAXAXAXAXAXAXAXAXAXAXAXAXAXAXAXAXAXAXAXAXAXAXAXAXAXAXAXAXAXAXAXAX",
"AXAXAXAXAXAXAXAXAXAXAXAXAXAXAXAXAXAXAXAXAXAXAXAXAXAXAXAXAXAXAXAXAXAXAXAXAXAXAXAXAXAXAXAXAXAXAXAXAXAX",
"AXAXAXAXAXAXAXAXAXAXAXAXAXAXAXAXAXAXAXAXAXAXAXAXAXAXAXAXAXAXAXAXAXAXAXAXAXAXAXAXAXAXAXAXAXAXAXAXAXAX",
"AXAXAXAXAXAXAXAXAXAXAXAXAXAXAXAXAXAXAXAXAXAXAXAXAXAXAXAXAXAXAXAXAXAXAXAXAXAXAXAXAXAXAXAXAXAXAXAXAXAX",
"AXAXAXAXAXAXAXAXAXAXAXAXAXAXAXAXAXAXAXAXAXAXAXAXAXAXAXAXAXAXAXAXAXAXAXAXAXAXAXAXAXAXAXAXAXAXAXAXAXAX",
"AXAXAXAXAXAXAXAXAXAXAXAXAXAXAXAXAXAXAXAXAXAXAXAXAXAXAXAXAXAXAXAXAXAXAXAXAXAXAXAXAXAXAXAXAXAXAXAXAXAX",
"AXAXAXAXAXAXAXAXAXAXAXAXAXAXAXAXAXAXAXAXAXAXAXAXAXAXAXAXAXAXAXAXAXAXAXAXAXAXAXAXAXAXAXAXAXAXAXAXAXAX",
"AXAXAXAXAXAXAXAXAXAXAXAXAXAXAXAXAXAXAXAXAXAXAXAXAXAXAXAXAXAXAXAXAXAXAXAXAXAXAXAXAXAXAXAXAXAXAXAXAXAX",
"AXAXAXAXAXAXAXAXAXAXAXAXAXAXAXAXAXAXAXAXAXAXAXAXAXAXAXAXAXAXAXAXAXAXAXAXAXAXAXAXAXAXAXAXAXAXAXAXAXAX",
"AXAXAXAXAXAXAXAXAXAXAXAXAXAXAXAXAXAXAXAXAXAXAXAXAXAXAXAXAXAXAXAXAXAXAXAXAXAXAXAXAXAXAXAXAXAXAXAXAXAX",
"AXAXAXAXAXAXAXAXAXAXAXAXAXAXAXAXAXAXAXn b b b b b b b b b b AXAXAXAXAXAXAXAXAXAXAXAXAXAXAXAXAXAXAXAX",
"AXAXAXAXAXAXAXAXAXAXAXAXAXAXAXAXAXAXW ..%.1.1.2.4.4.4.4.5.=.L AXAXAXAXAXAXAXAXAXAXAXAXAXAXAXAXAXAXAX",
"AXAXAXAXAXAXAXAXAXAXAXAXAXAXAXAXAXG 4.).wXhXdXtX9X9XwXwXaX].) M AXAXAXAXAXAXAXAXAXAXAXAXAXAXAXAXAXAX",
"AXAXAXAXAXAXAXAXAXAXAXAXAXAXAXAXE 3.Q.uXcXBXbXT.7.7.7.7.7.y.x.7.M AXAXAXAXAXAXAXAXAXAXAXAXAXAXAXAXAX",
"AXAXAXAXAXAXAXAXAXAXAXAXAXAXAXL -._.yXcXcXjX+X' p p a a i F S.B.' J AXAXAXAXAXAXAXAXAXAXAXAXAXAXAXAX",
"AXAXAXAXAXAXAXAXAXAXAXAXn x K 9./.yXzXcXvX'.( y * = - - % 6 G u.[.&.x AXAXAXAXAXAXAXAXAXAXAXAXAXAXAX",
"AXAXAXAXAXAXAXAXAXAXAXE ] ] @.n.2XzXnXsX~. .t &           @ 0 L z.i.#.T AXAXAXAXAXAXAXAXAXAXAXAXAXAX",
"AXAXAXAXAXAXAXAXAXAXn ] n.Z.N.U.=XlXmX,X] u #               o 0 F A.#X! k AXAXAXAXAXAXAXAXAXAXAXAXAX",
"AXAXAXAXAXAXAXAXAXAXn { Y._.R.Y.=XzXNX*XW q X                 4 m H.<X^ k AXAXAXAXAXAXAXAXAXAXAXAXAX",
"AXAXAXAXAXAXAXAXAXAXn _ a.M.R.R.@XuXvX:X^ r O                 3 N G.:X^ k AXAXAXAXAXAXAXAXAXAXAXAXAX",
"AXAXAXAXAXAXAXAXAXAXAXF E 0.W.E.W..XpX>X^ r O                 2 N G.:X^ k AXAXAXAXAXAXAXAXAXAXAXAXAX",
"AXAXAXAXAXAXAXAXAXAXAXAXm { 4.5.t.U.tX>X^ 9 1 K.I.e       e P.L.~ c.>X^ k AXAXAXAXAXAXAXAXAXAXAXAXAX",
"AXAXAXAXAXAXAXAXAXAXAXAXAXC V B | F.uX>X^ 7 w VXZXS       A ZXCX*.<.$X! k AXAXAXAXAXAXAXAXAXAXAXAXAX",
"AXAXAXAXAXAXAXAXAXAXAXAXAXAXl c ` Z.pX>XW 8 $ J.I.e       e P.L.I ,.D.E l AXAXAXAXAXAXAXAXAXAXAXAXAX",
"AXAXAXAXAXAXAXAXAXAXAXAXAXAXAXn ] F.0X*X%.h >                 3 m 9.g.U x AXAXAXAXAXAXAXAXAXAXAXAXAX",
"AXAXAXAXAXAXAXAXAXAXAXAXAXAXAXn [ C.`.XX-Xw.f ;               3 m 9.g.U x AXAXAXAXAXAXAXAXAXAXAXAXAX",
"AXAXAXAXAXAXAXAXAXAXAXAXAXAXAXAXQ 3.j.}.qX!.X.s < o       o < f [ ;.%.L AXAXAXAXAXAXAXAXAXAXAXAXAXAX",
"AXAXAXAXAXAXAXAXAXAXAXAXAXAXAXAXAXG 3.C.F.U.b.} d : . + . : d | f...B AXAXAXAXAXAXAXAXAXAXAXAXAXAXAX",
"AXAXAXAXAXAXAXAXAXAXAXAXAXAXAXAXAXAXW ` _ 6.Z.h.| a q r q a X.;.{ U AXAXAXAXAXAXAXAXAXAXAXAXAXAXAXAX",
"AXAXAXAXAXAXAXAXAXAXAXAXAXAXAXAXAXAXJ L K @.C.|.V.o.W ^ W +.C.s.R Z AXAXAXAXAXAXAXAXAXAXAXAXAXAXAXAX",
"AXAXAXAXAXAXAXAXAXAXAXAXAXAXAXAXAXB $.d.d.k.Y.5XyX3X*X:X*X4XyX%Xd./ v AXAXAXAXAXAXAXAXAXAXAXAXAXAXAX",
"AXAXAXAXAXAXAXAXAXAXAXAXAXAXAXAXU X.v.2X2X;X;XiXvXnXmXmXmXnXvXgX=Xe._ H AXAXAXAXAXAXAXAXAXAXAXAXAXAX",
"AXAXAXAXAXAXAXAXAXAXAXAXAXAXAXn ` m.7XzXzXlXlXzXxXxXxXxXxXxXxXxXjX%Xt.P x AXAXAXAXAXAXAXAXAXAXAXAXAX",
"AXAXAXAXAXAXAXAXAXAXAXAXAXAXAXx _ F.tXcXcXcXcXxXxXxXxXxXxXxXxXcXzX2Xd.P x AXAXAXAXAXAXAXAXAXAXAXAXAX",
"AXAXAXAXAXAXAXAXAXAXAXAXAXAXAXL %.).yXxXxXxXxXxXxXxXxXxXxXxXxXcXzX7Xl.Y z AXAXAXAXAXAXAXAXAXAXAXAXAX",
"AXAXAXAXAXAXAXAXAXAXAXAXAXAXP 9./.yXzXxXxXxXxXxXxXxXxXxXxXxXxXxXxXxX{.W k AXAXAXAXAXAXAXAXAXAXAXAXAX",
"AXAXAXAXAXAXAXAXAXAXAXAXAXk L f.5XzXcXxXxXxXxXxXxXxXxXcXxXxXxXxXxXMX&XW g AXAXAXAXAXAXAXAXAXAXAXAXAX",
"AXAXAXAXAXAXAXAXAXAXAXAXAXm E f.1XlXcXxXxXxXxXxXxXxXzXlXzXxXxXxXxXmX*X) b AXAXAXAXAXAXAXAXAXAXAXAXAX",
"AXAXAXAXAXAXAXAXAXAXAXAXm { q.m.;XlXcXxXxXxXxXxXxXcXuX1XuXcXxXxXxXvX9Xs.] m AXAXAXAXAXAXAXAXAXAXAXAX",
"AXAXAXAXAXAXAXAXAXAXAXF E 0.R.Y.%XlXcXxXxXxXxXxXzXfX1X/.1XfXzXxXxXcXjX-Xr.E F AXAXAXAXAXAXAXAXAXAXAX",
"AXAXAXAXAXAXAXAXAXAXn _ a.M.Y.U.%XlXcXxXxXxXxXcXfX$X/.R./.$XfXcXxXxXzXkX%Xd.) n AXAXAXAXAXAXAXAXAXAX",
"AXAXAXAXAXAXAXAXAXAXc ] Z.W.W.@XwXzXcXkXwXyXzXdX1X/.g.8.g./.1XsXxXvXlXtX1XU.] c AXAXAXAXAXAXAXAXAXAX",
"AXAXAXAXAXAXAXAXAXAXB ..M.W. XtXzXxXcXdXoX;XfX;XW.R.5.J 5.R.W.=XkXxXiXoX/.M...B AXAXAXAXAXAXAXAXAXAX",
"AXAXAXAXAXAXAXAXAXK %.p.Y.;X8X1XwXxXvXzXrX5X%X(.Y.^.5.G 5.^.Y.(.%X=X;X7X=XY.p.%.K AXAXAXAXAXAXAXAXAX",
"AXAXAXAXAXAXAXAXx U g.^.W.6XeX_.OXiXfXfXfX4XW.Y.U.l.{ x { l.U.R.Y.U.`.rX6XW.^.g.U x AXAXAXAXAXAXAXAX",
"AXAXAXAXAXAXAXAXx U g.(.R._.`.W./.}..X.XXX_.R.^.l.[ a 5 a [ l.^.R.Y.W.`._.R.(.g.U x AXAXAXAXAXAXAXAX",
"AXAXAXAXAXAXAXAXb G O.5.>.:.:.>.>.:.:.:.:.:.>.6.| s , o , s | 6.>.3.>.:.:.>.5.O.G b AXAXAXAXAXAXAXAX",
"AXAXAXAXAXAXAXAXm M V C C C C C C C C C C C C D j ,       , j D C C C C C C C V M m AXAXAXAXAXAXAXAX",
"AXAXAXAXAXAXAXAXAXAXAXAXAXAXAXAXAXAXAXAXAXAXAXAXAXAXAXAXAXAXAXAXAXAXAXAXAXAXAXAXAXAXAXAXAXAXAXAXAXAX",
"AXAXAXAXAXAXAXAXAXAXAXAXAXAXAXAXAXAXAXAXAXAXAXAXAXAXAXAXAXAXAXAXAXAXAXAXAXAXAXAXAXAXAXAXAXAXAXAXAXAX"
};
