/* XPM */
static char *result[] = {
/* columns rows colors chars-per-pixel */
"50 50 228 2 ",
"   c black",
".  c #010000",
"X  c #020000",
"o  c #020001",
"O  c #030001",
"+  c #030101",
"@  c #050000",
"#  c #040101",
"$  c #070001",
"%  c #050102",
"&  c #060102",
"*  c #060606",
"=  c #080102",
"-  c #090103",
";  c #0A0103",
":  c #0A0203",
">  c #0C0000",
",  c #0D0001",
"<  c gray5",
"1  c #100002",
"2  c #120305",
"3  c #140306",
"4  c #160306",
"5  c #170407",
"6  c #180407",
"7  c #1E0308",
"8  c #1B0408",
"9  c #1D0408",
"0  c #1E0408",
"q  c #1F0408",
"w  c #1E0509",
"e  c #1F0509",
"r  c #141615",
"t  c #151616",
"y  c #200509",
"u  c #22050A",
"i  c #23050A",
"p  c #24060B",
"a  c #25060B",
"s  c #27060B",
"d  c #2A060C",
"f  c #2C070D",
"g  c #2D070D",
"h  c #34080F",
"j  c #370810",
"k  c #380910",
"l  c #390911",
"z  c #3A0911",
"x  c #3B0911",
"c  c #3C0911",
"v  c #3C0912",
"b  c #3D0912",
"n  c #3D0A12",
"m  c #3E0A12",
"M  c #3F0A12",
"N  c #2C2D2D",
"B  c #2E2F2F",
"V  c #400A13",
"C  c #410A13",
"Z  c #420A13",
"A  c #430A14",
"S  c #430B14",
"D  c #440B14",
"F  c #450B14",
"G  c #450B15",
"H  c #460B14",
"J  c #460B15",
"K  c #470B15",
"L  c #480B15",
"P  c #490B15",
"I  c #4B0A15",
"U  c #4A0B16",
"Y  c #4B0B16",
"T  c #4C0A14",
"R  c #4F0B16",
"E  c #4A0C16",
"W  c #4B0C16",
"Q  c #4D0C16",
"!  c #4D0C17",
"~  c #4F0C17",
"^  c #4E0D17",
"/  c #4F0D18",
"(  c #500D18",
")  c #510D18",
"_  c #520D18",
"`  c #530D18",
"'  c #540D19",
"]  c #550D19",
"[  c #560D19",
"{  c #570D19",
"}  c #550E1A",
"|  c #570E1A",
" . c #580E1A",
".. c #590E1A",
"X. c #5A0F1B",
"o. c #5C0E1B",
"O. c #5E0F1C",
"+. c #600F1C",
"@. c #610F1C",
"#. c #610F1D",
"$. c #620F1D",
"%. c #630F1D",
"&. c #640F1D",
"*. c #60101D",
"=. c #61101D",
"-. c #62101D",
";. c #63101E",
":. c #64101D",
">. c #64101E",
",. c #65101E",
"<. c #66101E",
"1. c #67101E",
"2. c #67101F",
"3. c #67111F",
"4. c #68101E",
"5. c #68101F",
"6. c #6A101F",
"7. c #6B111F",
"8. c #6A1120",
"9. c #6D1120",
"0. c #6E1120",
"q. c #6F1121",
"w. c #6E1221",
"e. c #701121",
"r. c #711121",
"t. c #701222",
"y. c #721222",
"u. c #731222",
"i. c #721322",
"p. c #731323",
"a. c #741222",
"s. c #751222",
"d. c #741323",
"f. c #751323",
"g. c #761223",
"h. c #761324",
"j. c #771424",
"k. c #7A1324",
"l. c #7B1324",
"z. c #7C1324",
"x. c #7D1325",
"c. c #7E1325",
"v. c #781424",
"b. c #791424",
"n. c #791425",
"m. c #7A1425",
"M. c #7B1425",
"N. c #7C1425",
"B. c #7E1425",
"V. c #7F1425",
"C. c #7D1526",
"Z. c #7F1426",
"A. c #4D3236",
"S. c #4D3237",
"D. c gray27",
"F. c #575858",
"G. c #5E5F5F",
"H. c #636060",
"J. c #7F6469",
"K. c #801426",
"L. c #811426",
"P. c #801527",
"I. c #821426",
"U. c #831426",
"Y. c #831427",
"T. c #841427",
"R. c #841527",
"E. c #851527",
"W. c #861528",
"Q. c #871528",
"!. c #861629",
"~. c #881528",
"^. c #8B1529",
"/. c #881628",
"(. c #881629",
"). c #891629",
"_. c #881729",
"`. c #891729",
"'. c #8A1629",
"]. c #8B1629",
"[. c #8B172A",
"{. c #8C162A",
"}. c #8D162A",
"|. c #8C172A",
" X c #8D172A",
".X c #8E172A",
"XX c #8F172B",
"oX c #8D182B",
"OX c #8E182B",
"+X c #8F182B",
"@X c #90172B",
"#X c #91172B",
"$X c #91182C",
"%X c #92182C",
"&X c #93182C",
"*X c #94182D",
"=X c #95182D",
"-X c #94192D",
";X c #95192D",
":X c #96192D",
">X c #97192D",
",X c #96192E",
"<X c #97192E",
"1X c #98192E",
"2X c #99192E",
"3X c #9A192E",
"4X c #9A192F",
"5X c #991A2E",
"6X c #9A1A2F",
"7X c #9B1A2F",
"8X c #9C1A2F",
"9X c #9D1A2F",
"0X c #9C1A30",
"qX c #9D1A30",
"wX c #9E1A30",
"eX c #9F1B30",
"rX c #A01B30",
"tX c #A01B31",
"yX c #A11B31",
"uX c #A21B31",
"iX c #A31B32",
"pX c #A41C32",
"aX c #A51C32",
"sX c #A91C33",
"dX c #929292",
"fX c #B9B9B9",
"gX c #CDCACA",
"hX c None",
/* pixels */
"hXhXhXhXhXhXhXhXhXhXhXhXhXhXhXhXhXhXhXhXhXhXhXhXhXhXhXhXhXhXhXhXhXhXhXhXhXhXhXhXhXhXhXhXhXhXhXhXhXhX",
"hXhXhXhXhXhXhXhXhXhXhXhXhXhXhXhXhXhXhXhXhXhXhXhXhXhXhXhXhXhXhXhXhXhXhXhXhXhXhXhXhXhXhXhXhXhXhXhXhXhX",
"hXhXhXhXhXhXhXhXhXhXhXhXhXhXhXhXhXhXhXhXhXhXhXhXhXhXhXhXhXhXhXhXhXhXhXhXhXhXhXhXhXhXhXhXhXhXhXhXhXhX",
"hXhXhXhXhXhXhXhXhXhXhXhXhXhXhXhXhXhXhXhXhXhXhXhXhXhXhXhXhXhXhXhXhXhXhXhXhXhXhXhXhXhXhXhXhXhXhXhXhXhX",
"hXhXhXhXhXhXhXhXhXhXhXhXhXhXhXhXhXhXhXhXhXhXhXhXhXhXhXhXhXhXhXhXhXhXhXhXhXhXhXhXhXhXhXhXhXhXhXhXhXhX",
"hXhXhXhXhXhXhXhXhXhXhXhXhXhXhXhXhXhXhXhXhXhXhXhXhXhXhXhXhXhXhXhXhXhXhXhXhXhXhXhXhXhXhXhXhXhXhXhXhXhX",
"hXhXhXhXhXhXhXhXhXhXhXhXhXhXhXhXhXhXhXhXhXhXhXhXhXhXhXhXhXhXhXhXhXhXhXhXhXhXhXhXhXhXhXhXhXhXhXhXhXhX",
"hXhXhXhXhXhXhXhXhXhXhXhXhXhXhXhXhXhXhXhXhXhXhXhXhXhXhXhXhXhXhXhXhXhXhXhXhXhXhXhXhXhXhXhXhXhXhXhXhXhX",
"hXhXhXhXhXhXhXhXhXhXhXhXhXhXhXhXhXhXhXhXhXhXhXhXhXhXhXhXhXhXhXhXhXhXhXhXhXhXhXhXhXhXhXhXhXhXhXhXhXhX",
"hXhXhXhXhXhXhXhXhXhXhXhXhXhXhXhXhXhXhXhXhXhXhXhXhXhXhXhXhXhXhXhXhXhXhXhXhXhXhXhXhXhXhXhXhXhXhXhXhXhX",
"hXhXhXhXhXhXhXhXhXhXhXhXhXhXhXhXhXhXhXhXl l k k k k k k k k k hXhXhXhXhXhXhXhXhXhXhXhXhXhXhXhXhXhXhX",
"hXhXhXhXhXhXhXhXhXhXhXhXhXhXhXhXhXhXhXC ) ..*.=.-.;.>.>.>.>.>.X.hXhXhXhXhXhXhXhXhXhXhXhXhXhXhXhXhXhX",
"hXhXhXhXhXhXhXhXhXhXhXhXhXhXhXhXhXhXz W y.|.6X0X6X<X;X:X:X,X<Xd.G hXhXhXhXhXhXhXhXhXhXhXhXhXhXhXhXhX",
"hXhXhXhXhXhXhXhXhXhXhXhXhXhXhXhXhXz ' 9.|.wXiXsX7Xd.,.3.3.3.3.t.j. .hXhXhXhXhXhXhXhXhXhXhXhXhXhXhXhX",
"hXhXhXhXhXhXhXhXhXhXhXhXhXhXhXhXV W 9..XqXiXyX5Xm.V d g g f f } !.8.! hXhXhXhXhXhXhXhXhXhXhXhXhXhXhX",
"hXhXhXhXhXhXhXhXhXhXhXhXhXhXk k ) y.|.qXyXpXwXi.V 5 = : : ; - p ( m.P.! hXhXhXhXhXhXhXhXhXhXhXhXhXhX",
"hXhXhXhXhXhXhXhXhXhXhXhXhX~ ] ' <.Y.1XiXuX-Xh.S 6 #           = i X.v.3. .hXhXhXhXhXhXhXhXhXhXhXhXhX",
"hXhXhXhXhXhXhXhXhXhXhXhXm %.B.c.c.Y.=XuXiXC.Z 6 o               & a ' [.v.V hXhXhXhXhXhXhXhXhXhXhXhX",
"hXhXhXhXhXhXhXhXhXhXhXhXm <.W.R.L.Y.=XiXiXn.z 2                 X 9 ^ $XN.V hXhXhXhXhXhXhXhXhXhXhXhX",
"hXhXhXhXhXhXhXhXhXhXhXhXm O.g.V.I.Y.#XqXyXm.n 3                 . 0 ( +Xm.V hXhXhXhXhXhXhXhXhXhXhXhX",
"hXhXhXhXhXhXhXhXhXhXhXhXhXA ` g.T.I.R. XqXM.n 3                   7 ( +Xm.V hXhXhXhXhXhXhXhXhXhXhXhX",
"hXhXhXhXhXhXhXhXhXhXhXhXhXhXA O.,.1.a.~.8XM.n 1 t F.D.*       N H.A.R XXM.V hXhXhXhXhXhXhXhXhXhXhXhX",
"hXhXhXhXhXhXhXhXhXhXhXhXhXhXhXm v Z ,.).qXM.n > B fXdX<       G.gXJ.T ^.n.V hXhXhXhXhXhXhXhXhXhXhXhX",
"hXhXhXhXhXhXhXhXhXhXhXhXhXhXhXhXh v $.'.wXM.l , r F.D.*       N H.S.I c.w.M hXhXhXhXhXhXhXhXhXhXhXhX",
"hXhXhXhXhXhXhXhXhXhXhXhXhXhXhXhXhXm %.~.1XP./ p $                 7 P s.<.m hXhXhXhXhXhXhXhXhXhXhXhX",
"hXhXhXhXhXhXhXhXhXhXhXhXhXhXhXhXhXm :.R.Q. X_.} i @               q P s.1.m hXhXhXhXhXhXhXhXhXhXhXhX",
"hXhXhXhXhXhXhXhXhXhXhXhXhXhXhXhXhXm { 6.z..X=Xf.U u ;         % 5 m o.%. .m hXhXhXhXhXhXhXhXhXhXhXhX",
"hXhXhXhXhXhXhXhXhXhXhXhXhXhXhXhXhXhXz W r.K.V.K.r.L i & X O o 5 x :.q.W z hXhXhXhXhXhXhXhXhXhXhXhXhX",
"hXhXhXhXhXhXhXhXhXhXhXhXhXhXhXhXhXhXhXhX) _ ] r.V.9.P i w e e c @.O._ hXhXhXhXhXhXhXhXhXhXhXhXhXhXhX",
"hXhXhXhXhXhXhXhXhXhXhXhXhXhXhXhXhXhXhXhXH F U 6.T.~.y._ ! ^ ^ 2.L.#.F hXhXhXhXhXhXhXhXhXhXhXhXhXhXhX",
"hXhXhXhXhXhXhXhXhXhXhXhXhXhXhXhXhXhXhXJ 5.u.u.k.W.>X<XOXoXoXoX-X1XR.4.F hXhXhXhXhXhXhXhXhXhXhXhXhXhX",
"hXhXhXhXhXhXhXhXhXhXhXhXhXhXhXhXhXhXQ +.R.%X@X.X%XwXpXaXaXaXaXpXyX2XR.+.Q hXhXhXhXhXhXhXhXhXhXhXhXhX",
"hXhXhXhXhXhXhXhXhXhXhXhXhXhXhXhXhXm #.E.2XtXeXeXtXyXyXyXyXyXyXyXyXyX2XE.#.m hXhXhXhXhXhXhXhXhXhXhXhX",
"hXhXhXhXhXhXhXhXhXhXhXhXhXhXhXhXhXv $.).8XiXuXuXuXyXyXyXyXyXyXyXyXiX8X).%.m hXhXhXhXhXhXhXhXhXhXhXhX",
"hXhXhXhXhXhXhXhXhXhXhXhXhXhXhXhXC W 9. X9XuXyXyXyXyXyXyXyXyXyXyXyXuXqX X1.M hXhXhXhXhXhXhXhXhXhXhXhX",
"hXhXhXhXhXhXhXhXhXhXhXhXhXhXhXl ) u.|.9XtXyXyXyXyXyXyXyXyXyXyXyXyXyXyXqXp.V hXhXhXhXhXhXhXhXhXhXhXhX",
"hXhXhXhXhXhXhXhXhXhXhXhXhXhXhXj ` L.1XuXuXyXyXyXyXyXyXyXuXuXyXyXyXyXuXiXj.m hXhXhXhXhXhXhXhXhXhXhXhX",
"hXhXhXhXhXhXhXhXhXhXhXhXhXhXhXb { Z.:XyXyXyXyXyXyXyXyXyXtXrXyXyXyXyXuXuXb.D hXhXhXhXhXhXhXhXhXhXhXhX",
"hXhXhXhXhXhXhXhXhXhXhXhXhXhXA O.e.L.=XyXyXyXyXyXyXyXuXyX=X$XwXuXyXyXuXuX`.<.Y hXhXhXhXhXhXhXhXhXhXhX",
"hXhXhXhXhXhXhXhXhXhXhXhXhXA ` g.U.Y.*XyXyXyXyXyXyXyXeX3X'.W.=XwXyXyXyXyX2XW.+.J hXhXhXhXhXhXhXhXhXhX",
"hXhXhXhXhXhXhXhXhXhXhXhXm O.g.V.L.I.*XyXyXyXyXyXyXuX<X(.Y.I.W.%XtXuXyXyXtX4XR.5.K hXhXhXhXhXhXhXhXhX",
"hXhXhXhXhXhXhXhXhXhXhXhXv :.T.L.E.XX4XyXyX7X=X8XtX1X}.K.0.6.k.).*XqXuXuXqX*X}.u.J h hXhXhXhXhXhXhXhX",
"hXhXhXhXhXhXhXhXhXhXhXhXZ <.I.Y. X8XtXyXyX=X~.=X4X).Y.x.[ U u.Y.R.*XtXtX=XW.R.u.W z hXhXhXhXhXhXhXhX",
"hXhXhXhXhXhXhXhXhXhXhX~ ,.g.W.%X&X@X6XiXiXqX=X@X].Y.Y.V.' K a.T.L./..X.X#X&X'.l.7.| m hXhXhXhXhXhXhX",
"hXhXhXhXhXhXhXhXhXhXl ] V.Y.Q.<X%XR.@X8X8X8X6X{.L.I.B.r.K x ,.z.L.I.L.L.{.2X XI.Y.,.m hXhXhXhXhXhXhX",
"hXhXhXhXhXhXhXhXhXhXl ] V.T.Y.Q.W.I.E././.)./.R.I.U.9.P y 4 x #.V.Y.I.I.E.~.E.Y.T.,.m hXhXhXhXhXhXhX",
"hXhXhXhXhXhXhXhXhXhXl U $.,.&.%.%.&.%.%.%.%.%.&.,.,.E u = + 6 v +.<.:.:.%.%.%.>.,.` v hXhXhXhXhXhXhX",
"hXhXhXhXhXhXhXhXhXhXz c m m m m m m m m m m m m M M s &     o 8 x V m m m m m m m v z hXhXhXhXhXhXhX",
"hXhXhXhXhXhXhXhXhXhXhXhXhXhXhXhXhXhXhXhXhXhXhXhXhXhXhXhXhXhXhXhXhXhXhXhXhXhXhXhXhXhXhXhXhXhXhXhXhXhX",
"hXhXhXhXhXhXhXhXhXhXhXhXhXhXhXhXhXhXhXhXhXhXhXhXhXhXhXhXhXhXhXhXhXhXhXhXhXhXhXhXhXhXhXhXhXhXhXhXhXhX"
};
