/* XPM */
static char *result[] = {
/* columns rows colors chars-per-pixel */
"50 50 216 2 ",
"   c black",
".  c #010000",
"X  c #020000",
"o  c #020001",
"O  c #030001",
"+  c #030101",
"@  c #040101",
"#  c #050102",
"$  c #060102",
"%  c #070102",
"&  c #080102",
"*  c #090103",
"=  c #0A0103",
"-  c #0A0203",
";  c #110305",
":  c #120305",
">  c #140306",
",  c #170407",
"<  c #180407",
"1  c #1D0408",
"2  c #1E0509",
"3  c #1F0509",
"4  c #200509",
"5  c #22050A",
"6  c #23050A",
"7  c #23060B",
"8  c #24060B",
"9  c #25060B",
"0  c #2A060C",
"q  c #2C070D",
"w  c #2D070D",
"e  c #32080F",
"r  c #33080F",
"t  c #34080F",
"y  c #35080F",
"u  c #360810",
"i  c #370910",
"p  c #380910",
"a  c #390911",
"s  c #3A0911",
"d  c #3B0911",
"f  c #3C0911",
"g  c #3C0912",
"h  c #3D0912",
"j  c #3D0A12",
"k  c #3E0A12",
"l  c #3F0A12",
"z  c #3F0A13",
"x  c #400A13",
"c  c #410A13",
"v  c #420A13",
"b  c #430A14",
"n  c #430B14",
"m  c #450B14",
"M  c #450B15",
"N  c #460B14",
"B  c #460B15",
"V  c #470B15",
"C  c #480B15",
"Z  c #490B15",
"A  c #490B16",
"S  c #4A0B16",
"D  c #4A0C16",
"F  c #4B0C16",
"G  c #4C0C16",
"H  c #4C0C17",
"J  c #4D0C17",
"K  c #4E0C17",
"L  c #4E0D17",
"P  c #4F0D18",
"I  c #500D18",
"U  c #510D18",
"Y  c #520D18",
"T  c #530D18",
"R  c #540D19",
"E  c #560D19",
"W  c #570D19",
"Q  c #570D1A",
"!  c #550E1A",
"~  c #580E1A",
"^  c #590E1A",
"/  c #5B0E1B",
"(  c #5A0F1B",
")  c #5C0E1B",
"_  c #5D0E1B",
"`  c #5E0E1C",
"'  c #5E0F1C",
"]  c #600F1C",
"[  c #610F1C",
"{  c #610F1D",
"}  c #620F1D",
"|  c #630F1D",
" . c #640F1D",
".. c #60101D",
"X. c #61101D",
"o. c #62101D",
"O. c #63101E",
"+. c #64101D",
"@. c #64101E",
"#. c #65101E",
"$. c #66101E",
"%. c #67101E",
"&. c #67101F",
"*. c #67111F",
"=. c #68101F",
"-. c #69101F",
";. c #6A101F",
":. c #6A1120",
">. c #6B1120",
",. c #6C1120",
"<. c #6D1120",
"1. c #6E1120",
"2. c #6F1121",
"3. c #6E1221",
"4. c #6F1221",
"5. c #711121",
"6. c #701221",
"7. c #711221",
"8. c #701222",
"9. c #721222",
"0. c #731222",
"q. c #721322",
"w. c #741222",
"e. c #751222",
"r. c #751223",
"t. c #741323",
"y. c #761223",
"u. c #771223",
"i. c #761323",
"p. c #761324",
"a. c #771424",
"s. c #781324",
"d. c #7B1324",
"f. c #7D1325",
"g. c #7E1325",
"h. c #781424",
"j. c #791425",
"k. c #7A1425",
"l. c #7B1425",
"z. c #7C1425",
"x. c #7E1425",
"c. c #7F1425",
"v. c #7D1526",
"b. c #7F1426",
"n. c #801426",
"m. c #811426",
"M. c #801527",
"N. c #811527",
"B. c #821426",
"V. c #831426",
"C. c #821427",
"Z. c #831427",
"A. c #821527",
"S. c #841427",
"D. c #841527",
"F. c #851527",
"G. c #861528",
"H. c #871528",
"J. c #861629",
"K. c #871629",
"L. c #881528",
"P. c #881628",
"I. c #881629",
"U. c #891629",
"Y. c #881729",
"T. c #8A1629",
"R. c #8B172A",
"E. c #8C162A",
"W. c #8C172A",
"Q. c #8D172B",
"!. c #8E172A",
"~. c #8F172B",
"^. c #8D182B",
"/. c #8E182B",
"(. c #8F182B",
"). c #91172B",
"_. c #91172C",
"`. c #92172C",
"'. c #90182C",
"]. c #91182C",
"[. c #92182C",
"{. c #93182C",
"}. c #93182D",
"|. c #93192D",
" X c #94182D",
".X c #95182D",
"XX c #94192D",
"oX c #95192D",
"OX c #96192D",
"+X c #97192D",
"@X c #96192E",
"#X c #97192E",
"$X c #98192E",
"%X c #99192E",
"&X c #9A192F",
"*X c #991A2E",
"=X c #9A1A2F",
"-X c #9B1A2F",
";X c #9C1A2F",
":X c #9D1A2F",
">X c #9C1A30",
",X c #9D1A30",
"<X c #9E1A30",
"1X c #9F1A30",
"2X c #9F1B30",
"3X c #A01B31",
"4X c #A11B31",
"5X c #A21B31",
"6X c #A31B31",
"7X c #A31B32",
"8X c #A41B32",
"9X c #A41C32",
"0X c #A51C32",
"qX c #A61C32",
"wX c #A91C33",
"eX c None",
/* pixels */
"eXeXeXeXeXeXeXeXeXeXeXeXeXeXeXeXeXeXeXeXeXeXeXeXeXeXeXeXeXeXeXeXeXeXeXeXeXeXeXeXeXeXeXeXeXeXeXeXeXeX",
"eXeXeXeXeXeXeXeXeXeXeXeXeXeXeXeXeXeXeXeXeXeXeXeXeXeXeXeXeXeXeXeXeXeXeXeXeXeXeXeXeXeXeXeXeXeXeXeXeXeX",
"eXeXeXeXeXeXeXeXeXeXeXeXeXeXeXeXeXeXeXeXeXeXeXeXeXeXeXeXeXeXeXeXeXeXeXeXeXeXeXeXeXeXeXeXeXeXeXeXeXeX",
"eXeXeXeXeXeXeXeXeXeXeXeXeXeXeXeXeXeXeXeXeXeXeXeXeXeXeXeXeXeXeXeXeXeXeXeXeXeXeXeXeXeXeXeXeXeXeXeXeXeX",
"eXeXeXeXeXeXeXeXeXeXeXeXeXeXeXeXeXeXeXeXeXeXeXeXeXeXeXeXeXeXeXeXeXeXeXeXeXeXeXeXeXeXeXeXeXeXeXeXeXeX",
"eXeXeXeXeXeXeXeXeXeXeXeXeXeXeXeXeXeXeXeXeXeXeXeXeXeXeXeXeXeXeXeXeXeXeXeXeXeXeXeXeXeXeXeXeXeXeXeXeXeX",
"eXeXeXeXeXeXeXeXeXeXeXeXeXeXeXeXeXeXeXeXeXeXeXeXeXeXeXeXeXeXeXeXeXeXeXeXeXeXeXeXeXeXeXeXeXeXeXeXeXeX",
"eXeXeXeXeXeXeXeXeXeXeXeXeXeXeXeXeXeXeXeXeXeXeXeXeXeXeXeXeXeXeXeXeXeXeXeXeXeXeXeXeXeXeXeXeXeXeXeXeXeX",
"eXeXeXeXeXeXeXeXeXeXeXeXeXeXeXeXeXeXeXeXeXeXeXeXeXeXeXeXeXeXeXeXeXeXeXeXeXeXeXeXeXeXeXeXeXeXeXeXeXeX",
"eXeXeXeXeXeXeXeXeXeXeXeXeXeXeXeXeXeXeXeXeXeXeXeXeXeXeXeXeXeXeXeXeXeXeXeXeXeXeXeXeXeXeXeXeXeXeXeXeXeX",
"eXeXeXeXeXeXeXeXeXeXeXeXeXeXeXeXeXeXeXeXeXeXeXeXeXeXeXeXeXeXeXeXeXeXeXeXeXeXeXeXeXeXeXeXeXeXeXeXeXeX",
"eXeXeXeXeXeXeXeXeXeXeXeXeXeXeXeXeXeXeXeXeXeXeXeXeXeXeXeXeXeXeXeXeXeXeXeXeXeXeXeXeXeXeXeXeXeXeXeXeXeX",
"eXeXeXeXeXeXeXeXeXeXeXeXeXeXeXeXeXeXeXeXeXeXeXeXeXeXeXeXeXeXeXeXeXeXeXeXeXeXeXeXeXeXeXeXeXeXeXeXeXeX",
"eXeXeXeXeXeXeXeXeXeXeXeXeXeXeXeXeXeXeXeXeXeXeXeXeXeXeXeXeXeXeXeXeXeXeXeXeXeXeXeXeXeXeXeXeXeXeXeXeXeX",
"eXeXeXeXeXeXeXeXeXeXeXeXeXeXeXeXeXeXeXeXeXeXeXeXeXeXeXeXeXeXeXeXeXeXeXeXeXeXeXeXeXeXeXeXeXeXeXeXeXeX",
"eXeXeXeXeXeXeXeXeXeXeXeXeXeXeXeXeXeXeXa a a p p p p p p p p p eXeXeXeXeXeXeXeXeXeXeXeXeXeXeXeXeXeXeX",
"eXeXeXeXeXeXeXeXeXeXeXeXeXeXeXeXeXeXK R R ^ ..X.o.O.@.@.@.@.@.( eXeXeXeXeXeXeXeXeXeXeXeXeXeXeXeXeXeX",
"eXeXeXeXeXeXeXeXeXeXeXeXeXk k k g v $.b.c.T.=X>X=X#XoXOXOX@X#Xt.M eXeXeXeXeXeXeXeXeXeXeXeXeXeXeXeXeX",
"eXeXeXeXeXeXeXeXeXeXeXeXk ~ @.+.| %.A.+X+X;X7XwX-Xt.#.*.*.*.*.8.a.~ eXeXeXeXeXeXeXeXeXeXeXeXeXeXeXeX",
"eXeXeXeXeXeXeXeXeXeXeXeXk #.S.Z.m.D..X5X5X5X4X*Xk.x 0 w w q q ! J.:.J eXeXeXeXeXeXeXeXeXeXeXeXeXeXeX",
"eXeXeXeXeXeXeXeXeXeXeXeXk #.S.V.m.Z..X5X5X9X<Xq.x , & - - = * 8 I k.M.J eXeXeXeXeXeXeXeXeXeXeXeXeXeX",
"eXeXeXeXeXeXeXeXeXeXeXeXk W ;.f.B.Z..X7X5XXXp.n < @           & 6 ( h.*.~ eXeXeXeXeXeXeXeXeXeXeXeXeX",
"eXeXeXeXeXeXeXeXeXeXeXeXeXs F 5.n.C.{.4X5Xv.v < o               $ 9 R R.h.x eXeXeXeXeXeXeXeXeXeXeXeX",
"eXeXeXeXeXeXeXeXeXeXeXeXeXeXx U %.m.T.{.1Xk.s :                 X 1 L ].z.x eXeXeXeXeXeXeXeXeXeXeXeX",
"eXeXeXeXeXeXeXeXeXeXeXeXeXeXeXi U 7.d.P.;Xl.j >                 + 4 I (.k.x eXeXeXeXeXeXeXeXeXeXeXeX",
"eXeXeXeXeXeXeXeXeXeXeXeXeXeXeXeXc F -.U.:Xl.j >                 + 4 I (.k.x eXeXeXeXeXeXeXeXeXeXeXeX",
"eXeXeXeXeXeXeXeXeXeXeXeXeXeXeXeXeXg } U.,Xl.j >                 + 3 I '.l.x eXeXeXeXeXeXeXeXeXeXeXeX",
"eXeXeXeXeXeXeXeXeXeXeXeXeXeXeXeXeXk | U.,Xl.j >                 + 4 I ^.j.x eXeXeXeXeXeXeXeXeXeXeXeX",
"eXeXeXeXeXeXeXeXeXeXeXeXeXeXeXeXeXk  .E.<Xl.a ;                 + 4 G b.3.l eXeXeXeXeXeXeXeXeXeXeXeX",
"eXeXeXeXeXeXeXeXeXeXeXeXeXeXeXeXeXk _ z..XN.P 7 % .             O 4 Z e.$.k eXeXeXeXeXeXeXeXeXeXeXeX",
"eXeXeXeXeXeXeXeXeXeXeXeXeXeXeXeXeXeXb R d.~.Y.! 6 %             o 4 Z e.%.k eXeXeXeXeXeXeXeXeXeXeXeX",
"eXeXeXeXeXeXeXeXeXeXeXeXeXeXeXeXeXeXeXv _ z.{.i.S 5 =         # , k )  .^ k eXeXeXeXeXeXeXeXeXeXeXeX",
"eXeXeXeXeXeXeXeXeXeXeXeXeXeXeXeXeXeXeXeXh Q d.B.5.C 6 $ X O o , d @.1.S s eXeXeXeXeXeXeXeXeXeXeXeXeX",
"eXeXeXeXeXeXeXeXeXeXeXeXeXeXeXeXeXeXeXy t k Y 5.g.<.Z 6 2 3 3 f [ ' K d r eXeXeXeXeXeXeXeXeXeXeXeXeX",
"eXeXeXeXeXeXeXeXeXeXeXeXeXeXeXeXeXeXm Z J H I 6.U.U.9.Y J L L &.A.$.F C B eXeXeXeXeXeXeXeXeXeXeXeXeX",
"eXeXeXeXeXeXeXeXeXeXeXeXeXeXeXeXeXk _ s.I.^.Q.oX-X;XOX/.^.^.^.}.&X|.K.s.` k eXeXeXeXeXeXeXeXeXeXeXeX",
"eXeXeXeXeXeXeXeXeXeXeXeXeXeXeXeXe g >..X5XqX0X7X5X5X7X0X0X0X0X8X5X0X1XT.} g eXeXeXeXeXeXeXeXeXeXeXeX",
"eXeXeXeXeXeXeXeXeXeXeXeXeXeXeXk g m k.4X5X4X4X4X4X4X4X4X4X4X4X4X4X5X;XT.$.v eXeXeXeXeXeXeXeXeXeXeXeX",
"eXeXeXeXeXeXeXeXeXeXeXeXeXeXb ` ,.k.[.5X5X4X4X4X4X4X4X4X4X4X4X4X4X4X2X$XN.#.F eXeXeXeXeXeXeXeXeXeXeX",
"eXeXeXeXeXeXeXeXeXeXeXeXeXb T r.).4X6X4X4X4X4X4X4X4X4X4X4X4X4X4X4X4X4X5X%XG.] B eXeXeXeXeXeXeXeXeXeX",
"eXeXeXeXeXeXeXeXeXeXeXeXk ' y.x.~.3X5X4X4X4X4X4X4X4X4X4X4X4X4X4X4X4X4X4X3X%XD.=.V eXeXeXeXeXeXeXeXeX",
"eXeXeXeXeXeXeXeXeXeXeXu g  .G.E.OX3X5X4X4X4X4X5X5X4X5X4X&X X X&X4X5X4X4X5X3X`.0.N t eXeXeXeXeXeXeXeX",
"eXeXeXeXeXeXeXeXeXeXs s c $.L.&X4X4X4X4X4X4X4X3X3X4X4X<X!.B.B.!.<X4X4X4X5X2X).w.F s eXeXeXeXeXeXeXeX",
"eXeXeXeXeXeXeXeXeXeXa A +.y.P.,X9X5X4X4X4X5X4X.X[.<X-X!.G.B.n.F.!.=X5X5X7X4X;XW.2.E k eXeXeXeXeXeXeX",
"eXeXeXeXeXeXeXeXeXeXa E c.Z.H.OX;X;X2X5X5X3X=XT.G.OX{.B.u.y.c.m.Z._.;X;X-X-X:X$XU. .k u eXeXeXeXeXeX",
"eXeXeXeXeXeXeXeXeXa a E c.S.Z.H.L.T.$X7X7X$XU.Z.Z.H.L.c.) Y y.S.B.G.P.P.P.P.U.L.F.$.k p s eXeXeXeXeX",
"eXeXeXeXeXeXeXeXs s a D } #. .| }  .4.a.a.4.+.|  .| @.{ V x / $. .| | | | | | | @.R g a s eXeXeXeXeX",
"eXeXeXeXeXeXeXeXs s s f k k k k k k z x x z k k k k k k d d j k k k k k k k k k k h s s s eXeXeXeXeX",
"eXeXeXeXeXeXeXeXeXeXeXeXeXeXeXeXeXeXeXeXeXeXeXeXeXeXeXeXeXeXeXeXeXeXeXeXeXeXeXeXeXeXeXeXeXeXeXeXeXeX",
"eXeXeXeXeXeXeXeXeXeXeXeXeXeXeXeXeXeXeXeXeXeXeXeXeXeXeXeXeXeXeXeXeXeXeXeXeXeXeXeXeXeXeXeXeXeXeXeXeXeX"
};
