/* XPM */
static char *result[] = {
/* columns rows colors chars-per-pixel */
"50 50 60 1 ",
"  c #010000",
". c #0C0203",
"X c #0C0B0B",
"o c #150306",
"O c #190204",
"+ c #1E0409",
"@ c #110E0E",
"# c #141313",
"$ c #22050A",
"% c #2D070D",
"& c #30070E",
"* c #34080F",
"= c #360810",
"- c #3B0911",
"; c #1F2020",
": c #292A2A",
"> c #342326",
", c #323232",
"< c #373838",
"1 c gray22",
"2 c #440B14",
"3 c #4C0C16",
"4 c #4F0D18",
"5 c #540D19",
"6 c #5D0F1B",
"7 c #49161E",
"8 c #5F101D",
"9 c #630F1D",
"0 c #6F0F1F",
"q c #770E1F",
"w c #65101E",
"e c #69101F",
"r c #4C1921",
"t c #780F20",
"y c #6D1221",
"u c #741222",
"i c #7D1425",
"p c #3E4040",
"a c #554446",
"s c #525252",
"d c #821426",
"f c #861528",
"g c #8C162A",
"h c #8E182B",
"j c #91172B",
"k c #94182D",
"l c #9A192F",
"z c #9E1B30",
"x c #A21B31",
"c c #A81C33",
"v c #828483",
"b c #98878A",
"n c #999B9B",
"m c #AF9EA1",
"M c #A7A8A8",
"N c #ABABAB",
"B c #C2B2B4",
"V c #C5C5C5",
"C c #DEDEDE",
"Z c None",
/* pixels */
"ZZZZZZZZZZZZZZZZZZZZZZZZZZZZZZZZZZZZZZZZZZZZZZZZZZ",
"ZZZZZZZZZZZZZZZZZZZZZZZZZZZZZZZZZZZZZZZZZZZZZZZZZZ",
"ZZZZZZZZZZZZZZZZZZZZZZZZZZZZZZZZZZZZZZZZZZZZZZZZZZ",
"ZZZZZZZZZZZZZZZZZZZZZZZZZZZZZZZZZZZZZZZZZZZZZZZZZZ",
"ZZZZZZZZZZZZZZZZZZZZZZZZZZZZZZZZZZZZZZZZZZZZZZZZZZ",
"ZZZZZZZZZZZZZZZZZZZZZZZZZZZZZZZZZZZZZZZZZZZZZZZZZZ",
"ZZZZZZZZZZZZZZZZZZZZZZZZZZZZZZZZZZZZZZZZZZZZZZZZZZ",
"ZZZZZZZZZZZZZZZZZZZZZZZZZZZZZZZZZZZZZZZZZZZZZZZZZZ",
"ZZZZZZZZZZZZZZZZZZZZZZZZZZZZZZZZZZZZZZZZZZZZZZZZZZ",
"ZZZZZZZZZZZZZZZZZZZZZZZZZZZZZZZZZZZZZZZZZZZZZZZZZZ",
"ZZZZZZZZZZZZZZZZZZZ--**=-*-*-=ZZZZZZZZZZZZZZZZZZZZ",
"ZZZZZZZZZZZZZZZZZZ458wwwwwwwww2ZZZZZZZZZZZZZZZZZZZ",
"ZZZZZZZZZZZZZZZZZ2wdllllkkkkkf4-ZZZZZZZZZZZZZZZZZZ",
"ZZZZZZZZZZZZZZZZ3wdlxcxfwywywyue-ZZZZZZZZZZZZZZZZZ",
"ZZZZZZZZZZZZZZZ2wflxxlg7%%%%%2ii52ZZZZZZZZZZZZZZZZ",
"ZZZZZZZZZZZZZZ2edlzxxf4+.... o2yf8=ZZZZZZZZZZZZZZZ",
"ZZZZZZZZZZZZZ46ihxxld5$.      O2uy82ZZZZZZZZZZZZZZ",
"ZZZZZZZZZZZZ29iihlxk5$.        +2ig4=ZZZZZZZZZZZZZ",
"ZZZZZZZZZZZ39uddhxch7$         .-dh4=ZZZZZZZZZZZZZ",
"ZZZZZZZZZZ-5ddddhlxh4+ ;:X   X:>-ih4=ZZZZZZZZZZZZZ",
"ZZZZZZZZZZ-5iddddflk3OXvM:   :Mb7qh4*ZZZZZZZZZZZZZ",
"ZZZZZZZZZZZ39w9eedkh3O@NC<   <CBrqh3*ZZZZZZZZZZZZZ",
"ZZZZZZZZZZZZ-2--6ilh5O@nV,   ,Vmrug5*ZZZZZZZZZZZZZ",
"ZZZZZZZZZZZZZZ*=5ilk3O as#   #sa20i3*ZZZZZZZZZZZZZ",
"ZZZZZZZZZZZZZZZ-5dkg9&.        o-9u2=ZZZZZZZZZZZZZ",
"ZZZZZZZZZZZZZZZ-5ifghy&.       o-yu3=ZZZZZZZZZZZZZ",
"ZZZZZZZZZZZZZZZZ49ifkd5&o     .&5992ZZZZZZZZZZZZZZ",
"ZZZZZZZZZZZZZZZZZ29iidi5%.   .&5u5-ZZZZZZZZZZZZZZZ",
"ZZZZZZZZZZZZZZZZZ-2559du5%+++%6643ZZZZZZZZZZZZZZZZ",
"ZZZZZZZZZZZZZZZZZ-2226igi63546iu32ZZZZZZZZZZZZZZZZ",
"ZZZZZZZZZZZZZZZZZ-6uuudhlhjhhklgu4-ZZZZZZZZZZZZZZZ",
"ZZZZZZZZZZZZZZZZ35ihjhhzcxxcxxxlh5-ZZZZZZZZZZZZZZZ",
"ZZZZZZZZZZZZZZZ-5ikzxlzxzxxxxxzxlw-ZZZZZZZZZZZZZZZ",
"ZZZZZZZZZZZZZZZ-5dkzxxxxxxzxxxxxxd62ZZZZZZZZZZZZZZ",
"ZZZZZZZZZZZZZZZ-6dlxxxxxzxxxzxxxxki2=ZZZZZZZZZZZZZ",
"ZZZZZZZZZZZZZZZ=6kxxxxxxxxxxxxxxxzg3*ZZZZZZZZZZZZZ",
"ZZZZZZZZZZZZZZZ=wlxxxzxxxxxxzxxxxxh3*ZZZZZZZZZZZZZ",
"ZZZZZZZZZZZZZZZ-9lcxxxxxxxzlxxzxxxh3*ZZZZZZZZZZZZZ",
"ZZZZZZZZZZZZZZ26dlxxxxxxxxlklxxxxch3&ZZZZZZZZZZZZZ",
"ZZZZZZZZZZZZZ=3ukzxxzxxlllhifzxzlxk63ZZZZZZZZZZZZZ",
"ZZZZZZZZZZZZZ*3ujzzxxxzjffe5ejlkgkzju-ZZZZZZZZZZZZ",
"ZZZZZZZZZZZZZ36dlxxzllzjdd929fkjhlxli53ZZZZZZZZZZZ",
"ZZZZZZZZZZZZ-9flzxzlfjljdi6-9idhlxlgii5-ZZZZZZZZZZ",
"ZZZZZZZZZZZZ-ukjkzlhfdhfi9-+-9ifhhhddi5*ZZZZZZZZZZ",
"ZZZZZZZZZZZ-3ilfhlduidii9-O +3uddddddd62ZZZZZZZZZZ",
"ZZZZZZZZZZ-5udfdfd65idiw-O  +3udddddddi02ZZZZZZZZZ",
"ZZZZZZZZZZ-39w99w6226ww3%.  o&5w99999w962-ZZZZZZZZ",
"ZZZZZZZZZZ--2-2-2-------*.   .*2-2---2----ZZZZZZZZ",
"ZZZZZZZZZZZZZZZZZZZZZZZZZZZZZZZZZZZZZZZZZZZZZZZZZZ",
"ZZZZZZZZZZZZZZZZZZZZZZZZZZZZZZZZZZZZZZZZZZZZZZZZZZ"
};
