/* XPM */
static char *result[] = {
/* columns rows colors chars-per-pixel */
"50 50 61 1 ",
"  c #010000",
". c #0B0203",
"X c gray5",
"o c #150306",
"O c #180407",
"+ c #1F0509",
"@ c #141515",
"# c #23050A",
"$ c #2B060C",
"% c #31070E",
"& c #33080F",
"* c #360810",
"= c #3A0911",
"- c #371118",
"; c #1E2020",
": c #272A29",
"> c gray17",
", c #332A2C",
"< c #440B14",
"1 c #4A0C16",
"2 c #5E0715",
"3 c #500C17",
"4 c #5E0816",
"5 c #540D19",
"6 c #5C0E1B",
"7 c #630F1D",
"8 c #64101E",
"9 c #69111F",
"0 c #421C22",
"q c #6D1120",
"w c #731222",
"e c #7C1325",
"r c #573137",
"t c #5F393F",
"y c #653F45",
"u c #3E4040",
"i c #555656",
"p c #5C5455",
"a c gray35",
"s c #646565",
"d c #717272",
"f c #831426",
"g c #861528",
"h c #8B162A",
"j c #8E182B",
"k c #91172B",
"l c #94182D",
"z c #9A1A2F",
"x c #9E1B30",
"c c #A11B31",
"v c #A81C33",
"b c #828483",
"n c #999B9A",
"m c #ADAEAE",
"M c #B2A9AB",
"N c #B6B6B6",
"B c #CFC7C8",
"V c gray84",
"C c #E8E0E1",
"Z c #F1F1F1",
"A c None",
/* pixels */
"AAAAAAAAAAAAAAAAAAAAAAAAAAAAAAAAAAAAAAAAAAAAAAAAAA",
"AAAAAAAAAAAAAAAAAAAAAAAAAAAAAAAAAAAAAAAAAAAAAAAAAA",
"AAAAAAAAAAAAAAAAAAAAAAAAAAAAAAAAAAAAAAAAAAAAAAAAAA",
"AAAAAAAAAAAAAAAAAAAAAAAAAAAAAAAAAAAAAAAAAAAAAAAAAA",
"AAAAAAAAAAAAAAAAAAAAAAAAAAAAAAAAAAAAAAAAAAAAAAAAAA",
"AAAAAAAAAAAAAAAAA=***=*==*==AAAAAAAAAAAAAAAAAAAAAA",
"AAAAAAAAAAAAAAAA<568888888885AAAAAAAAAAAAAAAAAAAAA",
"AAAAAAAAAAAAAAA=6ekxzzkllllk8=AAAAAAAAAAAAAAAAAAAA",
"AAAAAAAAAAAAAA<6elxvvjq8898qwq1AAAAAAAAAAAAAAAAAAA",
"AAAAAAAAAAAAA<5elxcxl8&$%%$&qg61AAAAAAAAAAAAAAAAAA",
"AAAAAAAAAAAA<6elxxcl8%......%6gw=AAAAAAAAAAAAAAAAA",
"AAAAAAAAAAAA=7hzvxgq*.      .-qw85AAAAAAAAAAAAAAAA",
"AAAAAAAAAAAA<8gzczq&.        .&9k8*AAAAAAAAAAAAAAA",
"AAAAAAAAAAA18whzvzq$.         $9z8=AAAAAAAAAAAAAAA",
"AAAAAAAAAA<6ffglxz8$.@>@    ;,-8l8=AAAAAAAAAAAAAAA",
"AAAAAAAAA<qefffgll8$.iNi   XbMr6l8*AAAAAAAAAAAAAAA",
"AAAAAAAA&1wgfq9ejzq# dZd   XmCy4lq*AAAAAAAAAAAAAAA",
"AAAAAAAA*<wfe51wlz8$.sVs   XnBt4jq*AAAAAAAAAAAAAAA",
"AAAAAAAAA<555=<wlz8$ >a>   .ip06f6=AAAAAAAAAAAAAAA",
"AAAAAAAAAA====1wklw-o         $6e5=AAAAAAAAAAAAAAA",
"AAAAAAAAAAAAA=<wggke<o       .$6e5*AAAAAAAAAAAAAAA",
"AAAAAAAAAAAAAA<7qflj8=O      #1675AAAAAAAAAAAAAAAA",
"AAAAAAAAAAAAAAA=6efee8=o    #1q7<AAAAAAAAAAAAAAAAA",
"AAAAAAAAAAAAAAAA<536ee8=+#+#1763AAAAAAAAAAAAAAAAAA",
"AAAAAAAAAAAAAAAA<1<5wgfq1515we5<AAAAAAAAAAAAAAAAAA",
"AAAAAAAAAAAAAAA=5qwwehzljjjjzle6=AAAAAAAAAAAAAAAAA",
"AAAAAAAAAAAAAAA=5hljhlxccccvcxkw51AAAAAAAAAAAAAAAA",
"AAAAAAAAAAAAAAA=8zcxcccccccccccle5=AAAAAAAAAAAAAAA",
"AAAAAAAAAAAAAA16excccccccccccccze5=AAAAAAAAAAAAAAA",
"AAAAAAAAAAAAA*1wlccccccccxccccczg6=AAAAAAAAAAAAAAA",
"AAAAAAAAAAAAA&3gcccccxcxcccccccxl6=AAAAAAAAAAAAAAA",
"AAAAAAAAAAAAA&3jccccccccccccccccx6*AAAAAAAAAAAAAAA",
"AAAAAAAAAAAAA&3hcccccccccxccccccx7=AAAAAAAAAAAAAAA",
"AAAAAAAAAAAAA%3hcccccccczllxccccxe7<AAAAAAAAAAAAAA",
"AAAAAAAAAAAAA<6jvcccccccxghcccccckw<*AAAAAAAAAAAAA",
"AAAAAAAAAAAA=6elccccccccxghxccccxkw1*AAAAAAAAAAAAA",
"AAAAAAAAAAAA<8hzcccccccxhqwlcccxlhw<*AAAAAAAAAAAAA",
"AAAAAAAAAAAA=8hzccccccxhw15flcclgfw1*AAAAAAAAAAAAA",
"AAAAAAAAAAAA=7fhlclkxzhhw15ehlzlffw1*AAAAAAAAAAAAA",
"AAAAAAAAAAAA<7ffhlhhllfe7=<wegllffw<*AAAAAAAAAAAAA",
"AAAAAAAAAAAA=8gffhllhgf7=o+1qfhgfgw1*AAAAAAAAAAAAA",
"AAAAAAAAAAAA=59efghlge7=O o=7ffw9ww1*AAAAAAAAAAAAA",
"AAAAAAAAAAAA==1wfeeee9=O  o=7fe8<7w<*AAAAAAAAAAAAA",
"AAAAAAAAAAAA=&<3555551=o   +=561=15<AAAAAAAAAAAAAA",
"AAAAAAAAAAAA=AA======*$o    #*%&===AAAAAAAAAAAAAAA",
"AAAAAAAAAAAAAAAAAAAAAo..AAAAAA..AAAAAAAAAAAAAAAAAA",
"AAAAAAAAAAAAAAAAAAAAA  AAAAAAA AAAAAAAAAAAAAAAAAAA",
"AAAAAAAAAAAAAAAAAAAA  AAAAAA  AAAAAAAAAAAAAAAAAAAA",
"AAAAAAAAAAAAAAAAAAAAAAAAAAAAAAAAAAAAAAAAAAAAAAAAAA",
"AAAAAAAAAAAAAAAAAAAAAAAAAAAAAAAAAAAAAAAAAAAAAAAAAA"
};
