/* XPM */
static char *result[] = {
/* columns rows colors chars-per-pixel */
"50 50 32 1 ",
"  c #361F0C",
". c #37200D",
"X c #3A220D",
"o c #3E2511",
"O c #42270E",
"+ c #462A0E",
"@ c #4B2D0F",
"# c #4F300F",
"$ c #53320F",
"% c #402712",
"& c #452B15",
"* c #492D16",
"= c #4A2F18",
"- c #502F16",
"; c #512F18",
": c #4F3010",
"> c #4D3119",
", c #553311",
"< c #5A3611",
"1 c #5E3912",
"2 c #543118",
"3 c #5C3518",
"4 c #603B12",
"5 c #693D17",
"6 c #6B3E18",
"7 c #6D4017",
"8 c #754517",
"9 c #794716",
"0 c #7B4914",
"q c #844F15",
"w c #865016",
"e c #895215",
/* pixels */
"$$<$<4444444444444444444444444444$oX<4144444444444",
"$<444444114444441444444444444444444#<#<44444444444",
"$<444414$<144444444144444441444444441<<44444444444",
"$1441<@,@$514444444444414<1<144444444444444444<4<4",
"$<44<**<1111444<<44441111+<$144444444444444444##@<",
"$<<<,$11<<1<<<<@@<<<<<<<$@<<<<<<<<<<<<<1<<<<<<<$+$",
"$#$#$$##$$#$#---#$##$$$$$$$##$$$#$$##$::##$$#$$##$",
" XXX  X XXXXX o XXXXXXXXXXXXXXXXXXXXXXXXXXX...XXXX",
"+++@+++            .   .  ...   ........  ..+@++oo",
"1441441X  X     ........ ...........  .....+14444<",
"111111<XX-3343412-&&&&&&X%&&&%&&=oo&..o>>&XO4441<1",
"<$$<<11X%<0wqqqq83=>====:&>>>>*>=>==>=o>>>XO144<$1",
"$$$<11<Xo*9eeeeee83;===&=>>&>>*>===&=>>>&%.O4441$$",
"<$$$1<<O%*5wewqeee832*===&&>>&>&=====&==&&.O144<$$",
"$$$<111XX=;6wq5qqwe832>>>&&>>>>&========&=X+1111$$",
"$$<$14<X%==;6qqe9qew832&>>>>&&>>==========oO,<41$<",
"$$$<14* %===>5weeeeew84;=======%=>>&o=====.o<<4<$$",
"$$$$41< o====26weeqqw464;==*======>=o&====o%1111$$",
"$<$<14<Oo*===;26qe08q4q84;;;======&=&=====.%1$<1$$",
"$$$<44<Xo&&&==226qeqeeee65;;=============&o%4441$<",
"$$<$4<; o&%====>36qeeeeewq32;=============o%<44<$$",
"$$$$$2<Xo=*====>--6weeeewe66;;========&===.O4441$$",
"$$$$-4<X%====&&=*O26qeeeeee63;;=====&=%=&&oO144<$$",
"$$$<441Xo==&=oooX%;26qeeeeee64;;===&&%o%&=oo441<$<",
"<$$$441Xo=*o&>==**;;26qeeeeew662;=====*%XOXO41@+$$",
"$$$<441X%=*%2>>=====226qeeeeee632;======*+XO14$@$$",
"$$$$141Xo===>========226wweeeee95;;=====>=XO1411<$",
"$$$<411Xo===>====&====;36weeeeee64;;====>=X+4411$$",
"$<$$14<Xo>====o=&oo====;25qeeeeew93;;>*>&&X%4441<$",
"$$$<41+ o=====o>=&&=====225qeeeeee932*==oo.O1141$$",
"$$$$14# o=====&=========;;25weeeeew832;*=*XO1111$$",
"<$$<411Xo=>===============225weeeeew842;==oO$<1<<$",
"$$$<44<XO@&>>*>============><70eeeeee8322=oO-$41$<",
"@$$$144XX:>=&>=========>==>>>,70eeeeew832= O1411$$",
"O$<$441Xo>*&&>==========*&&oo&>7weeeeee842o%$<11$$",
"X$$<141Xo>&&>>========oooo&ooo>>7weeeeee83oO@$41<$",
"X+$$44<Xo=o=>>>========&o>=o===>>7qeeeeee6XO$$44$$",
"+O$$$<1Xo&=>>>==========>>>>====>>5qeeeee6OO4413$$",
"$++$<<<Xo&>>===============>====>>24qweee6XO1411$$",
"$$+@4<<Xo>>================o=>>>==>25qeee6OO441<@#",
"$$@X$1#.o=>=====>==>>=:====o&&+@%&*-$5qee6OO1111-$",
"$$$+X+X..ooXooooXXXoooooooo.....  %OOO$<1$XX+$4<#$",
"OOOXXXXXXXXXXX.XXX......X...XXXX O   X    X  O++OO",
"#$##$$$$,##$$#$$$$$$$$$$$#X+$$##$-$$$$$$$$$$$<4<$$",
"$$$$$1<<<<,,,<<<<<<<<<<<<<+#<<<<<1<<<<<<<<11<44-$<",
"$$$$#$44413,O<44444444444<$<4444144144444444442+$4",
"<$<$$1444441,21444444444<@<44444444444444444134314",
"$$$$<44444444<1444444444<o444444444444414411141441",
"$$$$<$<444144444414444441$714444444444441444414444",
"$$<$$<11444444444444444144114444444444144441444444"
};
