/* XPM */
static char *result[] = {
/* columns rows colors chars-per-pixel */
"50 50 101 2 ",
"   c #361F0C",
".  c #2B270C",
"X  c #272C0D",
"o  c #2C2C0D",
"O  c #36210D",
"+  c #3A220D",
"@  c #332D0E",
"#  c #3C2C0E",
"$  c #2E320F",
"%  c #31320F",
"&  c #3D310F",
"*  c #372610",
"=  c #3E2511",
"-  c #362D11",
";  c #3D2D13",
":  c #333410",
">  c #3C3313",
",  c #353A11",
"<  c #3C3D12",
"1  c #42270E",
"2  c #452B0E",
"3  c #4B2D0F",
"4  c #44310F",
"5  c #4D330F",
"6  c #52320F",
"7  c #402712",
"8  c #452C15",
"9  c #492E16",
"0  c #4A2F18",
"q  c #502F15",
"w  c #522F18",
"e  c #443415",
"r  c #4C3513",
"t  c #433C13",
"y  c #4B3B12",
"u  c #4B3119",
"i  c #4A3B18",
"p  c #543312",
"a  c #5A3611",
"s  c #543B12",
"d  c #5D3A12",
"f  c #543118",
"g  c #5B3418",
"h  c #513918",
"j  c #5B3818",
"k  c #603B12",
"l  c #693D17",
"z  c #6B3E18",
"x  c #3C4113",
"c  c #434314",
"v  c #4B4414",
"b  c #454B16",
"n  c #4B4C16",
"m  c #4A4318",
"M  c #494918",
"N  c #544414",
"B  c #5B4214",
"V  c #524B16",
"C  c #5D4D16",
"Z  c #4A5118",
"A  c #535217",
"S  c #565619",
"D  c #5D5619",
"F  c #565818",
"G  c #5B5C19",
"H  c #654314",
"J  c #6D4117",
"K  c #654A14",
"L  c #6A4B15",
"P  c #744417",
"I  c #794716",
"U  c #744D15",
"Y  c #7C4C14",
"T  c #774B18",
"R  c #655316",
"E  c #65501A",
"W  c #6B5C19",
"Q  c #765517",
"!  c #7C5115",
"~  c #785917",
"^  c #765C19",
"/  c #65631A",
"(  c #6C651B",
")  c #71671B",
"_  c #756A1B",
"`  c #76731E",
"'  c #7E7A1F",
"]  c #844F15",
"[  c #865115",
"{  c #895215",
"}  c #86651A",
"|  c #866E1C",
" . c #8B6B1B",
".. c #84731D",
"X. c #887A1F",
"o. c #9E771D",
"O. c #857E20",
"+. c #8A8120",
"@. c #918420",
"#. c #9E8C22",
"$. c #999124",
/* pixels */
"x c v t x x x , x x x Z N d k k k k k k k d 4 $ , y a k k k k k k 6 1 + a d d k k k k k k k k k k k ",
"< v V d y v y v y v c b V B k k k k k k 5 4 , x y s k k k k k k k d d 6 a q a k k k k k k d k k k k ",
"< b Z V k k d d 6 6 s x b n d k k k k y o , c 5 s k k d k k k k k k k d H d a d k k d k k k k k d k ",
"y n ' G d d 8 p 5 6 d t x b V d k k 5 % , v s d d a d a d k k d k k k Q #...n B d V V B d d a d d k ",
"t ` | N v q 3 a d d k s x G A a d a @ x v s d k d 2 6 a d k k k k k H _ / ` Z n b b Z Z n N 3 p 9 a ",
"x R L a y 6 a d a a a s t / V 8 3 s , c s a a a a 3 d 6 a d a a a a 6 v x c x b b x c c x s d 6 2 6 ",
"4 t 6 6 6 6 6 6 6 6 6 5 5 r < e 3 5 % & 5 6 6 6 6 6 6 6 6 6 6 6 6 6 6 < t 5 u t x < < t 5 5 6 6 6 6 ",
"O . +   +       + + + + + + # # + + o < & + + + + + + + + + + + + + + O O + + * O O O + + + + O + + ",
"# $ # 2 3 2 1                 +     . , < O                     O                     + 2 2 2 2 2 1 ",
"s x v d k k d +       +         O O O o , >             +   +   O O   O               1 k k k d a a ",
"s x x s d d d + + q g g g g a a w q 0 - : < 8 8 1 1 8 8 8 8 9 9 8 8 ; 0   * = u 0 7   1 k k k d a k ",
"5 x c 6 g d d + = g Y { ] { ] [ P g w > X : e 0 9 8 0 u u ; t t u 0 0 0 w 0 7 u u f + 1 k k k d 6 a ",
"5 x 5 s d d a + = 9 I { { { { { { P g w ; > < e 8 u u u M : $ x x ; u 0 0 0 u f 8 7   1 d k k d 6 6 ",
"< $ 5 6 d a a + 1 9 l ] { [ ] { { { P g f 9 : e 0 0 8 0 i M > x < < 0 0 0 0 0 0 8 8 + 1 k k k a y c ",
", @ 6 s N d d + = 0 w l ] ] l { ] ] { P g u - : e 0 0 0 u u u u < i 0 0 0 0 0 8 9 0 = 1 d d d n x x ",
"x @ 6 s N k a + = 9 8 9 l ] ] { P ] { { P g 0 : > 0 0 u ; ; u u 0 u 0 0 0 0 0 0 0 0   1 p a N n x y ",
"x $ 4 s N d 3 O 7 u , : u z [ { { { { { { P g 9 - e u 0 : : e 8 0 u u 8 7 0 0 0 0 0   7 a s n b x 5 ",
"b % 2 s V H v O 7 u m x : 0 z [ { { { ] ] k z k > , e > , x t 9 0 0 0 0 * 8 0 0 0 0 + 7 d a M b x x ",
"Z x 2 s +...M + = 9 e m m e f z { { Y z ] k ] P p : < x x c c u 0 0 8 0 0 9 0 0 0 9 + 7 k p v n c x ",
"b , # V $.X.y + = 8 8 u i , ; g z ] { { { { { { J % < t < u e t > 0 0 0 0 0 0 0 0 0 + 7 d k B N 6 c ",
"x x $ A O.E q + = 8 7 9 u < > u g l ] { { { { { ! < u h < e u i , e u 0 0 0 0 0 0 9   1 k k k a 5 x ",
"y b b N d p g + = 0 9 0 0 u 0 0 q w l ] { { { { ! c x h h t e 0 u , > 0 0 0 0 0 0 0 = 7 k k k a c 5 ",
"6 N b c 9 k d   = 0 9 0 0 0 0 0 8 7 w z ] { { { [ N x i f i < u u e , u 8 0 8 8 9 0   7 k k k d y 5 ",
"6 v x y d k d = = 0 0 9 0 = = = = 7 w g l ] { { { U x x H g i < e u u 0 ; = = 7 7 0 = 7 k k d a y y ",
"6 4 % s d k d + = 0 0 * 0 0 0 u 8 0 0 f g l ] { { { C c ! P g r < t 0 0 0 0 0 7 + 1 + 1 k k 3 3 y x ",
"6 4 o t d d d + = 0 0 = w u 0 u 0 0 0 8 u f z ] { { ~ S ! { P g u t 0 0 0 0 0 0 9 2 + 1 k k 6 3 6 < ",
"6 6 @ < d k d + = i i 0 0 0 0 0 0 0 e $ > f f z [ { } ' ^ { { P j < u 9 0 0 0 0 9 0 + 1 k k k 6 5 x ",
"a 3 @ < d k d + = m b m u 0 0 0 0 8 u t , - f g l ] Y ) O.{ { { P y y f 0 0 0 0 9 u + 1 d k k d y x ",
"6 & , c d k s + = u x b M u = 0 8 = = u t : > f f l ] C F ^ { { { Q n u w 0 0 0 u 8 + 1 k k k s x x ",
"& % c < d d 1 O = ; , x x t ; u 0 8 8 8 u < : ; f f l K n ..{ { {  .` M w w 0 0 = =   1 d d H R x x ",
"o , b c d d 6 + = ; o < , , 8 0 8 0 u u 0 u > $ - f p l ) V U { { ! _ S g w q 0 0 0 = 1 d H ..( x < ",
"X $ x v d k d + = u ; $ o - 0 0 0 0 0 0 0 u u > o 0 f f D Z K { { { W ..T g w 0 0 0 + 1 6 a / b x 5 ",
"& % b s k k a + 1 3 0 9 9 0 0 0 0 0 8 e 0 0 0 0 0 0 0 u c x K { [ | ( D [ P j f w 0 + 7 q 6 v y y y ",
"2 t b 5 d k d + + 9 9 9 0 0 0 0 0 u > $ > 0 0 0 0 0 0 < , , B ] ! / W Y { [ P j w w + 1 k k N v 5 < ",
"1 v b s k k d + 1 u u 8 9 u 0 0 0 u < $ ; 0 0 0 8 8 u : o > u z T ' o.{ { { { P k w = 7 6 a d s 6 c ",
"+ & c s k k d + + u 9 8 u u 0 0 0 0 , x 0 0 8 * = ; i $ * 8 u f j n Q { { { { { z l = 7 3 p k d 6 y ",
"1 . x N d k d + * 0 ; 0 u 0 0 0 8 > x , : 0 9 9 8 > - - 0 0 0 u i t L { { { { { { z + 1 6 a d d 6 s ",
"3 O % n 6 d d + = 7 0 g u u 0 0 - : x x > 8 0 u < , o ; 0 0 0 u c t k ] { { { { { z 1 1 d k d d 6 5 ",
"6 # . c d 6 d + = 0 u u 0 0 0 0 8 o : > ; 0 0 e < $ ; 0 0 0 0 0 e < h l ] { [ { { z 1 1 a k k d 6 t ",
"6 # x n d a a + = 0 u 0 0 0 0 0 0 0 8 0 0 0 t x : ; 0 0 0 0 u 0 u e t i z ] { { { z + 1 k k k a 2 < ",
"4 $ c < 6 a 6   = 0 0 9 0 9 0 0 r 9 0 9 0 e x , @ u 9 1 8 9 9 2 8 8 t t p l ] { { P + 1 k k d 6 5 t ",
"4 , b 2 1 2 1   + 7 1 7 7 = = = + 1 1 = > : $ o * = =       O O   + = @ # 2 3 a a 3 + + 2 a d s x 5 ",
"+ , c 2     + + +     +         + + + @ % X . O + +   + + + + +   + + + + O + +   + + + + 1 2 2 # # ",
"4 x c 6 6 6 6 6 q q 6 6 p 6 6 p 6 6 6 y $ % # r 6 3 + 2 6 6 6 6 6 6 6 6 6 4 t 4 e 5 6 6 6 a a d 6 6 ",
"s b x s 6 a a a a a a 6 a a a a a a s & X 4 a a d a 2 3 d a a a a a d a s t < n W y a a d d d q 6 a ",
"< c % 5 6 6 k k k k a q 1 a k k k k s x % & d d d a q d k k d k d d H d t v N @.+.t d k d d a 9 6 k ",
"x b $ 4 p k k k k k k k p w k k d k a / F % s k k 8 a k d k d s c t ) A , x v R K a d k k k d a d d ",
"Z c % % p k k k k k k k k a k k k k k v b < 2 k a 1 d k d s v x t c Z b x x t c s k k k k a k k k k ",
"b x % % 6 6 a k k k k k k d k k k k d s v , & d d 6 k d y x v s d s N N c x v < x s k k k k k k k k ",
"b x X & 6 a d k k d k k k k k k k k k k s < & y k d k N c s s k k k k k s s s y x v d k k d k k k k "
};
