/* XPM */
static char *result[] = {
/* columns rows colors chars-per-pixel */
"50 50 101 2 ",
"   c #BD5216",
".  c #BE5618",
"X  c #BF591A",
"o  c #C05417",
"O  c #C25519",
"+  c #C25A1B",
"@  c #CB5C1D",
"#  c #C3631E",
"$  c #C45E22",
"%  c #C36620",
"&  c #CD6323",
"*  c #C66C23",
"=  c #CB6E24",
"-  c #C86129",
";  c #D36222",
":  c #D96523",
">  c #D76925",
",  c #DD6926",
"<  c #DF6E2B",
"1  c #C77125",
"2  c #C87226",
"3  c #C97628",
"4  c #CB7B2A",
"5  c #D37429",
"6  c #DB752B",
"7  c #D57A2B",
"8  c #DA7C2E",
"9  c #CD6C33",
"0  c #D97136",
"q  c #DF7E30",
"w  c #D2733D",
"e  c #D37A3D",
"r  c #E06B27",
"t  c #E36D2A",
"y  c #E4722D",
"u  c #E17A2F",
"i  c #E57433",
"p  c #E17E31",
"a  c #E6793B",
"s  c #D47940",
"d  c #DA7B45",
"f  c #D87C48",
"g  c #E57D42",
"h  c #CD822E",
"j  c #CF8630",
"k  c #DE8433",
"l  c #D18C33",
"z  c #DB8B35",
"x  c #D48B3B",
"c  c #D39336",
"v  c #D99136",
"b  c #D69539",
"n  c #D9963A",
"m  c #D69C3B",
"M  c #D99E3C",
"N  c #E28233",
"B  c #EC8935",
"V  c #E49537",
"C  c #E49539",
"Z  c #E09D3C",
"A  c #DDA13E",
"S  c #E1A43F",
"D  c #D88944",
"F  c #DB8C4B",
"G  c #DD9545",
"H  c #D79B40",
"J  c #DA9C44",
"K  c #DD9B4B",
"L  c #DE8654",
"P  c #DF9750",
"I  c #E68246",
"U  c #E18E45",
"Y  c #E78349",
"T  c #E8844B",
"R  c #E48E4D",
"E  c #E0984E",
"W  c #E98B55",
"Q  c #E38A58",
"!  c #E98E59",
"~  c #E19256",
"^  c #E19B53",
"/  c #E9925E",
"(  c #E49B5B",
")  c #E3A640",
"_  c #E6A942",
"`  c #EAAC43",
"'  c #F2AB43",
"]  c #F2AE4F",
"[  c #EFB045",
"{  c #F2B246",
"}  c #F6B648",
"|  c #F8B749",
" . c #F9B849",
".. c #EDA852",
"X. c #F1A55F",
"o. c #F6B152",
"O. c #E79363",
"+. c #EA9564",
"@. c #E69B61",
"#. c #E99B66",
"$. c #EB9A6A",
/* pixels */
" . .} M m m m m m m l . ; t t I $.J m M [  . . . . .` m m m m m l .   O r t y / $.$.E m m ` | |  . .",
"` ` ` _ _ _ _ A m z 7 . @ ; t Y #.J m m [  . . .} ` S m m l 4 4 * . + ; t t y +.$.$.K m m S ` | { ` ",
"m m M { } }  .[ M N , X X + y Y #.J m m [  .} } { M m m m h         ; t t t y / #.#.K b M M A } ` m ",
"m m m A A A }  .{ Z c l l l c n J m m m [ } A A A m m m m h       o o O O ; y n J J m A { { } | S A ",
"m l j m m m ` [  .` ) ) S _ S S S S S S ` ` m m m m m m m l * * * * * # * 5 N c M m A ` | { ` [ S m ",
"m 1 . b m m m S  . . .|  . . . . . . . .S m m m m m m m m m m m m m m m m m M M m M [ | | S m m m m ",
"% + + ~ K m m A S {  .|  .} S S S }  .| { ` m m m m ) [ [ [ { ` ` { { ` ` { ` { { [ } { S A m m m m ",
"O + - O.( J m m m `  . . .} M m M ` } |  .{ A S A A `  .{ { { { { { { { { { { { { { { ` m m m l l l ",
"t t i +.$.#.J m M [  . . .| A m m m )  . .| |  . . . . .A M M m M M M m M m m m m m m m m m c X . o ",
"t t t g W $.J m m [ } _ S S ` S m m A ) ) `  .` _ S S S M m m z 8 = D ( ( U k N z m m m m h %   + ; ",
"t t t t I $.J m M { { m m M { _ m m m m m A { _ M A m m n c l 6 : O d +.$.T t t k m m m m *     @ t ",
"t t t t I $.J M m ` { m m m M M m m m m m m M `  .} _ m u > + O + r t a +.T t t q m m m m *       o ",
": ; ; I ! $.J A _ ` S M j 4 k v m m m m m m m S ` } _ m z 5     + t t i +.T t q z m m m m h 3 4 3 3 ",
". o $ O.$.#.J S } S M M 2 o r N m m m m m m m m A } ` m M h X   O < t i +.I u b m m m m m m m m m m ",
"c c x #.X.o.} ` A ` } } 7 O r I @.J m m m m m m A { ` m m b l #   O : t i k b m m m m m m m m m m m ",
"m m M ^ .. . .{ S ` _ V = O r a W P K K m m m m A } { S S A m 4 = 5 N B B C ) ) ) ) ) S m m m m m m ",
"M M m m _  . . . .S l .   O < t y O.$.$.K m m A A } } | | [ A m A  . . . . . . .}  . .` m m M m m m ",
"{ ` { { {  . . . .S l . @ , t t y i T $.J m m S [ A [ |  .} [ [ {  . .} ) A A A `  . . .{ [ { [ { { ",
"{ {  .{ { {  . .} ) l o $ r t t t i g / J b A [ } S _ { [ [ [ { { { { ` M m m m A {  .} { { ' { { ` ",
"M ` } M m M {  .} ) l o o O t t y +.W t v m m S | | ` m m A m m m m M M m m m m m m { { M m M m M M ",
"m A ) m m m {  . .[ _ h %   + 0 W ^ G z n A [ }  . .S m m l 1 * * * D ( ( K m m A ` } { m m m M m m ",
"J m m m m M ` }  .} ` m 4 X + e #.J A A A S  . . . .S m m h     o o d +.$.P m m _  . .[ m b c c c c ",
"#.K m m m m m ) } _ M m b b b m M { } | } | |  . . .` A A h     + r y a +.P m m _  . .' m 2 X O X + ",
"$.R k m m m m )  .` ) M m m m A ` } } S S ` S |  . .S m m l 3 X o ; : i $.^ m m )  . .' z &   # ; @ ",
"O.I u n m m m A } | { A m M m ` } } _ m m m m `  . .[ A m m A # .   ; i / ^ m m S }  .S y @ O , r r ",
"$ f / m m m m M A [ | { { } { ` M A M m m m m M S  .S m m A { A h   ; t i N m m M M S M n *   O O O ",
"9 L $.J m m m M ) {  . .{ ` [ ) m m m m m m m m A } S m A [ } [ M 7 N B B C m ) S S A m m 4 * * * * ",
"$.$.@.J m m m )  . . .| ) m m m m m m m m m m m A } [ A {  .} } | |  . . .` m {  . .A m m A m M M m ",
"o.o.] m m m ` {  . .' S M m m m m ( R 8 v m m m A } { { }  . .S A A S A A _ { }  . .} { [ [ { { [ { ",
"{ [ [ ) A ) }  . . .{ m m m m m J #.! a n m m m A } | [ { [ { S m m m m m ` |  . .' ` { { { { ` { { ",
"m m M }  .}  . . . .{ M m m m m m @.$.$.J m m m m } ` m m m A m m m m m m _  . .` m M M M m m m m m ",
"m m M ) `  . . . .` ) m m m m j = 9 f $.K m m ) [  .` m m K ^ z k m m m m _ } ` S m m m m m m m m m ",
"m m m M `  .{ } } ) M m m m n 3   o 9 $.K m m ` { { _ m n G / g p m m M A ` | A m m m m m m m m m m ",
"m m A { } } A _  . .{ m m b u ; . : g +.K m m m M M M m u y i W / M m A { | } A m m m m m m m m m m ",
"m A ` } { _ M A _ } { m M c ; + . g R ^ J m m S _ M l 2 ; ; t ! #.m m M } [ ) A m m 4 j P P P k l M ",
"m `  .} ` m m m m [ { M m c # o O Q ( m m m M ` ' M 2 o o @ y ! @.m m A } _ m m m c # - $.O./ i x m ",
"m ` } A A m m m m `  .{ S m c 2 . < k m [ { { ) Z u ;   : < y W @.m m A } _ m m j + . + i i a / P A ",
"S ` _ h x K K E K ` [ | _ m m j 1 8 z H [ } [ A b : @ o , t t / @.m m A } ` m m 4   @ ; t t i $.@.P ",
" ._ c X w $.$.$.$.K A } _ m m m m m m m [ [ m A c X     , t y W @.M m A } ` m m j . : t t t i +.$.$.",
"A A c X & a i T $.K m A ` [ m m m m A { ) A m m c O   . , u v G K { { ` A _ [ A 4   O @ + : i +.$.$.",
"m m c X @ y i Y $.K M A [ } ) A S S _  ._ S S M b # X . , 8 m m A |  .} ) ` | ) l = * % % 5 p / P @.",
"m A c X @ y / $.$.K A }  . . . . . . . . . .} _ A m 4 . , k m m A |  . .|  .| |  . .M m b m m m m m ",
"m m c X @ y a I K M A  .` ) ) `  . .| |  . . ._ m m l h k v m m A  . . . . .| _ `  .' ` ` A m m m m ",
"m m c + @ r y k m M ) } ) m m _ { { { { { {  ._ A A A A A A A A )  .| | } { [ A S { } }  .` A m m m ",
"m m c X   X l m m ` |  ._ m m m A A m m A S } } {  . .| } } } }  . . .} A m m m m A m S  . .{ M m m ",
"m m m 4 3 4 c A ` { } ` A m m K P H m m A A S S S S {  . . . .[ _ _ _ ) A m m m m m m A _ { { M m m ",
"A A A A A A A )  .| [ m m b c K $.J m m m m m m m A S  .| } } A m m m m m H H m m m m m m ` } A A A ",
"[ { { [ { } { |  .) m m 3 X X s #.m m m m m m m A {  . .| [ A m m m A m m K @.H m m m m m ` | } | { ",
" .[ ` ` ` S [ S S A A m 1   @ e $.J m m m A S S S  . . .[ S m m m m j h 4 F #.P G z m m m ) [ } | | ",
" .S m A A m A A m m A m 1   , I $.J m A m A | |  .|  . .A A m m m m *     w $.$.W i z m m m A } | | "
};
