/* XPM */
static char *result[] = {
/* columns rows colors chars-per-pixel */
"50 50 206 2 ",
"   c #131516",
".  c #2A1912",
"X  c #38261D",
"o  c #1F2526",
"O  c #1F292A",
"+  c #1F2628",
"@  c #163B3B",
"#  c #183A3A",
"$  c #202425",
"%  c #252A2D",
"&  c #282D2F",
"*  c #202629",
"=  c #382D25",
"-  c #352D28",
";  c #292E31",
":  c #262F31",
">  c #2A373A",
",  c #5B240A",
"<  c #52321F",
"1  c #672A0E",
"2  c #7D320C",
"3  c #662E15",
"4  c #6A2F14",
"5  c #6C3015",
"6  c #6C341A",
"7  c #7E3815",
"8  c #7B2F08",
"9  c #502F21",
"0  c #492F23",
"q  c #673821",
"w  c #7F4021",
"e  c #654331",
"r  c #78553B",
"t  c #744B35",
"y  c #2E3D40",
"u  c #1D4142",
"i  c #2D4548",
"p  c #3E4C4E",
"a  c #334347",
"s  c #244F50",
"d  c #275858",
"f  c #3D5254",
"g  c #3B5E5E",
"h  c #3A4E53",
"j  c #3A5F61",
"k  c #276666",
"l  c #2B6564",
"z  c #276768",
"x  c #266868",
"c  c #2A6A6A",
"v  c #396464",
"b  c #396865",
"n  c #3B6E71",
"m  c #367A7B",
"M  c #2E7373",
"N  c #445657",
"B  c #4F524F",
"V  c #695B51",
"C  c #72675C",
"Z  c #756354",
"A  c #4D686E",
"S  c #526D74",
"D  c #4F777C",
"F  c #46767A",
"G  c #50757A",
"H  c #5A796C",
"J  c #767266",
"K  c #747878",
"L  c #687063",
"P  c #83350D",
"I  c #833915",
"U  c #8D3C14",
"Y  c #8A3D18",
"T  c #803717",
"R  c #903E16",
"E  c #8A401D",
"W  c #94421B",
"Q  c #9D461C",
"!  c #9E481E",
"~  c #A44B1E",
"^  c #8D4B2C",
"/  c #9C4A22",
"(  c #934B2A",
")  c #954A28",
"_  c #995128",
"`  c #9A5231",
"'  c #99573A",
"]  c #85553E",
"[  c #A34D22",
"{  c #A94E22",
"}  c #A55326",
"|  c #AA5326",
" . c #AB5329",
".. c #AC5B2F",
"X. c #A5552B",
"o. c #B25427",
"O. c #B3552A",
"+. c #B65A2C",
"@. c #BA5B2B",
"#. c #AB5732",
"$. c #AD5A32",
"%. c #A15C3D",
"&. c #A75633",
"*. c #B45B33",
"=. c #BA5F34",
"-. c #9A603D",
";. c #BC6134",
":. c #B1653B",
">. c #BE6239",
",. c #B4663A",
"<. c #AD643D",
"1. c #C15E2E",
"2. c #C36234",
"3. c #C4663A",
"4. c #C96639",
"5. c #CD6A3C",
"6. c #CA6838",
"7. c #D36C3C",
"8. c #D96D37",
"9. c #DA723B",
"0. c #E5763D",
"q. c #AC6541",
"w. c #A66B4D",
"e. c #AB6648",
"r. c #B86A45",
"t. c #BE7547",
"y. c #B7775A",
"u. c #AD6F54",
"i. c #C96E44",
"p. c #CC744B",
"a. c #C2724E",
"s. c #D37443",
"d. c #C47958",
"f. c #F47E42",
"g. c #6F8B7C",
"h. c #958566",
"j. c #A98762",
"k. c #B08960",
"l. c #D7894D",
"z. c #CE8D5B",
"x. c #C88A59",
"c. c #D48C54",
"v. c #D68E5A",
"b. c #DA8F5A",
"n. c #DC915B",
"m. c #FD8345",
"M. c #FB8949",
"N. c #FD904E",
"B. c #E2925A",
"V. c #EC9455",
"C. c #FC9D59",
"Z. c #F79755",
"A. c #F7A25E",
"S. c #EEA060",
"D. c #F6A561",
"F. c #368889",
"G. c #3D9B9C",
"H. c #399192",
"J. c #3CA5A5",
"K. c #4B878B",
"L. c #4A8A8E",
"P. c #5C868C",
"I. c #4A8C90",
"U. c #489598",
"Y. c #479598",
"T. c #579A9F",
"R. c #698688",
"E. c #6D959C",
"W. c #68989C",
"Q. c #668D95",
"!. c #579DA1",
"~. c #459FA0",
"^. c #6C9DA5",
"/. c #609FA5",
"(. c #4CA9AA",
"). c #48A6A8",
"_. c #59ADAF",
"`. c #4DAEB0",
"'. c #59ADB1",
"]. c #4EB2B4",
"[. c #4ABDBE",
"{. c #4AB7B8",
"}. c #5CB2B6",
"|. c #5FB5BA",
" X c #5DBABF",
".X c #53B5B8",
"XX c #67A5AC",
"oX c #69A5AC",
"OX c #65AAAD",
"+X c #66ABB2",
"@X c #68AAB1",
"#X c #62B5BA",
"$X c #63B7BC",
"%X c #5DBDC2",
"&X c #62BDC2",
"*X c #49C2C4",
"=X c #5DC4C9",
"-X c #5ACACD",
";X c #55CACC",
":X c #58CED0",
">X c #55D5D7",
",X c #5DD1D4",
"<X c #55D6D9",
"1X c #61C2C7",
"2X c #61C5C9",
"3X c None",
/* pixels */
"3X3X3X3X3X3X3X3X3X3X3X3X3X3X3X3X3X3X3X3X3X3X@ k k k d < } _ E W 3X3X3X3X3X3X3X3X3X3X3X3X3X3X3X3X3X3X",
"3X3X3X3X3X3X3X3X3X3X3X3X3X3X3X3X3X3X3X3Xd F.J.:X%X'.g.>.V.t.o.;.T 3X3X3X3X3X3X3X3X3X3X3X3X3X3X3X3X3X",
"3X3X3X3X3X3X3X3X3X3X3X3X3X3X3X3X3X3Xd J.'.+X+X=XXXJ 4.Z.A.,.+.6.} X.3X3X3X3X3X3X3X3X3X3X3X3X3X3X3X3X",
"3X3X3X3X3X3X3X3X3X3X3X3X3X3X3X3Xl F.`.=X&X^.P.n g _ m.B.l.@.+.6.O.3.6 3X3X3X3X3X3X3X3X3X3X3X3X3X3X3X",
"3X3X3X3X3X3X3X3X3X3X3X3X3X3X3Xl {.=X^.^.!.n : + X | N.c.2.=.@.6.O.6.r c 3X3X3X3X3X3X3X3X3X3X3X3X3X3X",
"3X3X3X3X3X3X3X3X3X3X3X3X3X3Xl !.@X$X!.N > * % & 6 9.N.c.2.2.@.2.O.6.7 H m 3X3X3X3X3X3X3X3X3X3X3X3X3X",
"3X3X3X3X3X3X3X3X3X3X3X3X3Xd (.XXE.P.s $ % ; ; - w f.C.t.1.2.@.2.O.5.U Z }.M 3X3X3X3X3X3X3X3X3X3X3X3X",
"3X3X3X3X3X3X3X3X3X3X3X3X3XM =X$XP.a % ; ; ; ; 0 @.M.D.:.1.2.@.2.o.5.[ -._.Y.3X3X3X3X3X3X3X3X3X3X3X3X",
"3X3X3X3X3X3X3X3X3X3X3X3X# (.oX!.a % ; ; ; ; : 0 6.M.D.:.1.2.@.>. .7.{ &.R.}.l 3X3X3X3X3X3X3X3X3X3X3X",
"3X3X3X3X3X3X3X3X3X3X3X3XF._.E.A * ; ; ; & ; & q 8.N.S.:.1.2.@.>.O.7.o.#.J ^.).3X3X3X3X3X3X3X3X3X3X3X",
"3X3X3X3X3X3X3X3X3X3X3Xs ).=XXX> % ; ; ; ; ; - } m.Z.n.*.1.=.@.2.O.7.o.3.Z #X.Xc 3X3X3X3X3X3X3X3X3X3X",
"3X3X3X3X3X3X3X3X3X3X3Xk  X+XF % & ; ; ; ; ; = | m.C.n.+.@.=.@.4.O.5.o.7.] !.$XH.3X3X3X3X3X3X3X3X3X3X",
"3X3X3X3X3X3X3X3X3X3X3Xx #XE.h o ; ; ; ; : ; = | m.C.b.#.1.;.+.3.O.5.o.7.6 N oXH.3X3X3X3X3X3X3X3X3X3X",
"3X3X3X3X3X3X3X3X3X3X3XG.#XP.> % ; & ; ; ; ; = | 0.;.$.R O.O.+.>.O.4.| 7.5 f +X].d 3X3X3X3X3X3X3X3X3X",
"3X3X3X3X3X3X3X3X3X3X@ *X,XU.O & ; ; ; ; ; ; = / @.5.7.=.[ Q ~ } | 3. .5.5 b -X>Xx 3X3X3X3X3X3X3X3X3X",
"3X3X3X3X3X3X3X3X3X3X@ ].oXD o ; ; ; ; ; ; ; = ~ +.7.t.d.p.5.@.| Q / [ 3.3 f ^. Xx 3X3X3X3X3X3X3X3X3X",
"3X3X3X3X3X3X3X3X3X3X@ ].oXS o & ; ; ; ; ; ; = } 9.{ Y %.q.y.p.p.i.=.{ [ 1 B E.|.z 3X3X3X3X3X3X3X3X3X",
"3X3X3X3X3X3X3X3X3X3X# [.1XL.+ & ; ; ; ; : ; = | m.9._ 7 7 ) ` u.a.d.p.5.[ L &X;Xz 3X3X3X3X3X3X3X3X3X",
"3X3X3X3X3X3X3X3X3X3X# [.$XL.+ ; ; ; ; ; ; & = | m.C.c.[ ~ U 2 Y Y %.r.y.q.J #X-Xz 3X3X3X3X3X3X3X3X3X",
"3X3X3X3X3X3X3X3X3X3X# `.^.S o ; ; ; ; ; : & = | m.C.n.$.@.#.{ / P P T ( ^ V E.}.z 3X3X3X3X3X3X3X3X3X",
"3X3X3X3X3X3X3X3X3X3X# {.oXD O : ; ; ; ; ; ; = | m.C.B.#.=.=.+.=. .#.R R , f ^.%Xz 3X3X3X3X3X3X3X3X3X",
"3X3X3X3X3X3X3X3X3X3X# *X,XU.O ; ; ; ; ; ; ; = | m.C.b.` @.=.+.3.O.3. .2.3 v -X>Xx 3X3X3X3X3X3X3X3X3X",
"3X3X3X3X3X3X3X3X3X3X@ {.oXD o & ; ; ; ; ; ; = | m.C.k.V <.=.+.4.O.3. .4.3 h ^.%Xz 3X3X3X3X3X3X3X3X3X",
"3X3X3X3X3X3X3X3X3X3X# ].^.S o & ; ; ; ; ; ; = o.m.C.h.K w.=.+.4.+.2. .s.4 p E.|.z 3X3X3X3X3X3X3X3X3X",
"3X3X3X3X3X3X3X3X3X3X# J.,XI.O & ; ; ; ; ; ; = | m.C.j.C e.;.+.4.+.3. .7.5 j &X;Xk 3X3X3X3X3X3X3X3X3X",
"3X3X3X3X3X3X3X3X3X3X# %X2XI.O & ; ; ; ; ; : = } m.C.x.e *.2.@.3.o.7.o.7.5 j &X-Xk 3X3X3X3X3X3X3X3X3X",
"3X3X3X3X3X3X3X3X3X3X# `.^.S o & ; ; ; ; : ; = | m.C.v.e @.2.@.>.O.5.o.7.5 N E.}.x 3X3X3X3X3X3X3X3X3X",
"3X3X3X3X3X3X3X3X3X3X# {.oXD + & ; ; ; ; & ; = | m.C.z.e +.2.@.>.O.5. .5.4 f ^.|.k 3X3X3X3X3X3X3X3X3X",
"3X3X3X3X3X3X3X3X3X3X# *X,XU.* & & ; ; ; : & = | m.C.x.e @.2.@.3.o.3. .7.5 v -X>Xx 3X3X3X3X3X3X3X3X3X",
"3X3X3X3X3X3X3X3X3X3X# {.@XD * & & ; ; ; ; ; = | m.C.j.V :.2.@.4.+.3. .7.5 f oX%Xk 3X3X3X3X3X3X3X3X3X",
"3X3X3X3X3X3X3X3X3X3X# `.^.S $ ; ; ; ; ; : ; = } m.C.h.K w.=.@.6.O.4.O.7.5 p E.}.x 3X3X3X3X3X3X3X3X3X",
"3X3X3X3X3X3X3X3X3X3X@ [.1XK.% & ; ; ; ; ; ; = } m.C.j.C q.=.+.2.+.5.o.7.4 g $X-Xz 3X3X3X3X3X3X3X3X3X",
"3X3X3X3X3X3X3X3X3X3X@ %X=XI.+ % ; ; ; ; ; ; = | m.C.z.` @.=.+.>.o.5. .i.3 j &X:Xx 3X3X3X3X3X3X3X3X3X",
"3X3X3X3X3X3X3X3X3X3X@ ].^.S o : ; ; ; ; ; ; = | m.C.n.*.1.2.@.>. .3.| 2.4 B W.#Xx 3X3X3X3X3X3X3X3X3X",
"3X3X3X3X3X3X3X3X3X3X@ ].XXD o & ; ; ; ; ; ; = | m.C.n.$.1.2.@.=.| +.W +./ t R. Xx 3X3X3X3X3X3X3X3X3X",
"3X3X3X3X3X3X3X3X3X3X# *X,XY.O & ; ; ; ; ; ; = | m.C.B.&.=.O.{  .Q 1.6.i.i.^ W.<Xx 3X3X3X3X3X3X3X3X3X",
"3X3X3X3X3X3X3X3X3X3X# {.@XD o & ; ; ; ; ; ; = | m.C.c./ [ O.o.5.s.d.a.y.' ] R.%Xx 3X3X3X3X3X3X3X3X3X",
"3X3X3X3X3X3X3X3X3X3X# ].^.S o & ; ; ; ; & ; = | 0.@...@.2.p.p.y.r.e.( Y 1 B E.|.k 3X3X3X3X3X3X3X3X3X",
"3X3X3X3X3X3X3X3X3X3X# [.&XK.O & ; ; ; ; : ; = } @.5.5.d.a.y.%.` T 2 P R , g $X-Xx 3X3X3X3X3X3X3X3X3X",
"3X3X3X3X3X3X3X3X3X3X# *X=XI.O & ; ; ; ; : ; = / @.5.t.w.) Y 8 8 U / ~ 4.4 v &X:Xx 3X3X3X3X3X3X3X3X3X",
"3X3X3X3X3X3X3X3X3X3X@ ].^.S o ; ; ; ; ; ; ; = } 9.{ I P P P ~ +. .5. .7.5 p E.$Xk 3X3X3X3X3X3X3X3X3X",
"3X3X3X3X3X3X3X3X3X3X@ (.E.A o % & ; ; & % & = | m.s.X.Y +.+.+.4.+.7.O.5.3 p Q.'.k 3X3X3X3X3X3X3X3X3X",
"3X3X3X3X3X3X3X3X3X3X3Xs i ;                 . | m.C.B.*.1.2.@.2.O.5. .6.3 o y i i 3X3X3X3X3X3X3X3X3X",
"3X3X3X3X3X3X3X3X3X3X3X3X3X3X3X3X3X3X3X3X3X3X3Xo.m.C.b.*.1.2.@.>.O.3.! X.3X3X3X3X3X3X3X3X3X3X3X3X3X3X",
"3X3X3X3X3X3X3X3X3X3X3X3X3X3X3X3X3X3X3X3X3X3X3Xo.f.C.b.*.1.2.@.>.| *.3X3X3X3X3X3X3X3X3X3X3X3X3X3X3X3X",
"3X3X3X3X3X3X3X3X3X3X3X3X3X3X3X3X3X3X3X3X3X3X3XO.m.C.b.#.=.=.o.*.T 3X3X3X3X3X3X3X3X3X3X3X3X3X3X3X3X3X",
"3X3X3X3X3X3X3X3X3X3X3X3X3X3X3X3X3X3X3X3X3X3X3XO.m.C.b.&.@.=.W ) 3X3X3X3X3X3X3X3X3X3X3X3X3X3X3X3X3X3X",
"3X3X3X3X3X3X3X3X3X3X3X3X3X3X3X3X3X3X3X3X3X3X3Xo.m.C.b.&. .X.3X3X3X3X3X3X3X3X3X3X3X3X3X3X3X3X3X3X3X3X",
"3X3X3X3X3X3X3X3X3X3X3X3X3X3X3X3X3X3X3X3X3X3X3Xo.m.Z.x._ 7 3X3X3X3X3X3X3X3X3X3X3X3X3X3X3X3X3X3X3X3X3X",
"3X3X3X3X3X3X3X3X3X3X3X3X3X3X3X3X3X3X3X3X3X3X3XW ~ } _ 3X3X3X3X3X3X3X3X3X3X3X3X3X3X3X3X3X3X3X3X3X3X3X"
};
