/* XPM */
static char *result[] = {
/* columns rows colors chars-per-pixel */
"50 50 194 2 ",
"   c #2F150B",
".  c #39271C",
"X  c #3A261A",
"o  c #1A1F21",
"O  c #1C2F31",
"+  c #322E2A",
"@  c #2A383B",
"#  c #393831",
"$  c #521D02",
"%  c #54230B",
"&  c #5A250B",
"*  c #5B2106",
"=  c #462515",
"-  c #43281B",
";  c #5F2A13",
":  c #6A2603",
">  c #6C2C0E",
",  c #642406",
"<  c #772C07",
"1  c #742D0C",
"2  c #7B2F09",
"3  c #7A2E07",
"4  c #7B300B",
"5  c #6C2D10",
"6  c #662F16",
"7  c #6D3217",
"8  c #7A3717",
"9  c #452D21",
"0  c #433228",
"q  c #3D4135",
"w  c #5F4A3D",
"e  c #6B4C3B",
"r  c #1C3F40",
"t  c #1D4E4E",
"y  c #1E4646",
"u  c #1D504F",
"i  c #1E4F50",
"p  c #1D5050",
"a  c #264547",
"s  c #3E4E52",
"d  c #255A5A",
"f  c #3C5355",
"g  c #3D595B",
"h  c #3D5E61",
"j  c #266464",
"k  c #2C6B6A",
"l  c #296161",
"z  c #396264",
"x  c #346D6E",
"c  c #38666A",
"v  c #366E70",
"b  c #397678",
"n  c #434E4F",
"m  c #455558",
"M  c #515554",
"N  c #6F5B4E",
"B  c #785647",
"V  c #775647",
"C  c #705C51",
"Z  c #6C645A",
"A  c #7F6558",
"S  c #465C60",
"D  c #456166",
"F  c #536161",
"G  c #4F6F74",
"H  c #407276",
"J  c #577479",
"K  c #74726E",
"L  c #893E1A",
"P  c #863B17",
"I  c #903D17",
"U  c #8B411C",
"Y  c #94431C",
"T  c #9B461D",
"R  c #A2491E",
"E  c #924522",
"W  c #9D4B24",
"Q  c #9D4E2A",
"!  c #984823",
"~  c #9D502E",
"^  c #93502D",
"/  c #844F36",
"(  c #904F32",
")  c #935232",
"_  c #9C5231",
"`  c #975C3E",
"'  c #8A5033",
"]  c #A34C23",
"[  c #AA4F27",
"{  c #A24F29",
"}  c #AD5124",
"|  c #A2522D",
" . c #AC542C",
".. c #B55629",
"X. c #B6592B",
"o. c #BC5C2C",
"O. c #B55527",
"+. c #A45431",
"@. c #A95634",
"#. c #AB5A35",
"$. c #AF5E3B",
"%. c #B25B35",
"&. c #B65E37",
"*. c #B3623E",
"=. c #BC643E",
"-. c #BE6035",
";. c #C3602F",
":. c #C56231",
">. c #CB6534",
",. c #CE6A37",
"<. c #C3663D",
"1. c #CE6A3A",
"2. c #D36B37",
"3. c #D06A39",
"4. c #D06735",
"5. c #D5713F",
"6. c #885C44",
"7. c #9C6249",
"8. c #B36544",
"9. c #B96744",
"0. c #BC6946",
"q. c #B16A4D",
"w. c #BD6A48",
"e. c #B46846",
"r. c #B06D51",
"t. c #A86742",
"y. c #C46C46",
"u. c #CB6E46",
"i. c #C36C48",
"p. c #CD6F48",
"a. c #D16F46",
"s. c #CE7046",
"d. c #CF7148",
"f. c #D57145",
"g. c #D97343",
"h. c #D37348",
"j. c #D5794C",
"k. c #DB7548",
"l. c #CD7A55",
"z. c #D47E53",
"x. c #E17643",
"c. c #CA815F",
"v. c #D38055",
"b. c #CA8463",
"n. c #567B82",
"m. c #3D8082",
"M. c #358586",
"N. c #359090",
"B. c #3E9495",
"V. c #3CAAAB",
"C. c #4A898C",
"Z. c #56868C",
"A. c #508D92",
"S. c #589499",
"D. c #6B8A8D",
"F. c #6C8E95",
"G. c #6B9096",
"H. c #6D949C",
"J. c #649996",
"K. c #70949E",
"L. c #60A29C",
"P. c #6C9CA4",
"I. c #6B9FA8",
"U. c #48A7A8",
"Y. c #57A8AA",
"T. c #45B2B3",
"R. c #54B2B5",
"E. c #54B6B9",
"W. c #59BBBF",
"Q. c #58B8BC",
"!. c #5BACB0",
"~. c #69A3AA",
"^. c #66A3A8",
"/. c #67ACB3",
"(. c #69A9B0",
"). c #63B0B5",
"_. c #64B6BB",
"`. c #61BABF",
"'. c #5CBEC2",
"]. c #62BDC2",
"[. c #5AC1C5",
"{. c #5DCACD",
"}. c #59C7CA",
"|. c #54CFD1",
" X c #59CED1",
".X c #53D2D4",
"XX c #5BD2D5",
"oX c #53DBDD",
"OX c #59D5D8",
"+X c #4ECCCC",
"@X c #61C1C6",
"#X c #57DFE1",
"$X c #55E1E2",
"%X c None",
/* pixels */
"%X%X%X%X%X%X%X%X%X%X%X%X%X%X%X%X%X%X%X%X%X%Xy l j d l j O %X%X%X%X%X%X%X%X%X%X%X%X%X%X%X%X%X%X%X%X%X",
"%X%X%X%X%X%X%X%X%X%X%X%X%X%X%X%X%X%X%X%Xk N.T..XW.'.'.OXV.N.j %X%X%X%X%X%X%X%X%X%X%X%X%X%X%X%X%X%X%X",
"%X%X%X%X%X%X%X%X%X%X%X%X%X%X%X%X%X%Xd T.R././.}.~.H.(.{././.E.V.d %X%X%X%X%X%X%X%X%X%X%X%X%X%X%X%X%X",
"%X%X%X%X%X%X%X%X%X%X%X%X%X%X%X%Xk N.[.{._.G.G.C.g m h C.H.H.`.{.W.N.j %X%X%X%X%X%X%X%X%X%X%X%X%X%X%X",
"%X%X%X%X%X%X%X%X%X%X%X%X%X%X%Xb .X].H.H.U.f + = $ $ $ - + g Y.H.H.@X+Xk %X%X%X%X%X%X%X%X%X%X%X%X%X%X",
"%X%X%X%X%X%X%X%X%X%X%X%X%X%Xb !.~.@XZ.n X & : I T U Y 4 : % . f S.].~.Y.x %X%X%X%X%X%X%X%X%X%X%X%X%X",
"%X%X%X%X%X%X%X%X%X%X%X%X%Xk E.P.H.Z.# $ 3 W T :.y.w.w.Q } ] 1 $ q Z.H.P.R.l %X%X%X%X%X%X%X%X%X%X%X%X",
"%X%X%X%X%X%X%X%X%X%X%X%X%XB. X/.J 9 P Y *.0. .:.y.0.0.Q >.f.*.Y 1 0 n./.XXM.%X%X%X%X%X%X%X%X%X%X%X%X",
"%X%X%X%X%X%X%X%X%X%X%X%Xd W.~.A.9 : o.g.0.y. .:.y.0.0.Q >.d.u.a.] : 0 S.I.W.y %X%X%X%X%X%X%X%X%X%X%X",
"%X%X%X%X%X%X%X%X%X%X%X%XU.^.G.n & E ;.g.y.u. .:.s.y.i.Q >.y.u.a.[ } $ S H.(.U.%X%X%X%X%X%X%X%X%X%X%X",
"%X%X%X%X%X%X%X%X%X%X%Xk Q.[.Z.X L +.o.a.y.p.| :.d.p.i.Q >.y.u.u.Q >.P . S.[.E.d %X%X%X%X%X%X%X%X%X%X",
"%X%X%X%X%X%X%X%X%X%X%XN._./.f & @.+.o.p.a.p.| :.d.f.0.Q >.y.y.u.Q 3.+.% h /.`.M.%X%X%X%X%X%X%X%X%X%X",
"%X%X%X%X%X%X%X%X%X%X%XN.(.F.+ P 0.+.o.p.y.y.{ :.u.a.y.Q >.y.0.p.{ 4.0.8 # H.).M.%X%X%X%X%X%X%X%X%X%X",
"%X%X%X%X%X%X%X%X%X%Xd R.(.G = E w.+.o.u.y.y.+.:.a.u.y.Q >.y.0.a.[ 1.i.P . J /.U.y %X%X%X%X%X%X%X%X%X",
"%X%X%X%X%X%X%X%X%X%Xj #XXXx > 1.0.+.o.u.0.0.Q >.g.y.p.Q >.i.0.a.[ ,.i.$.% m.OXoXu %X%X%X%X%X%X%X%X%X",
"%X%X%X%X%X%X%X%X%X%Xj '.P.f 5 a.0.~ o.y.8.9.Q ;.a.0.y.W :.y.*.y.] >.0.$.% D P.[.p %X%X%X%X%X%X%X%X%X",
"%X%X%X%X%X%X%X%X%X%Xj `.G.N I R W T T ] R W T R R R R T R ] R T T R R T P Z F.W.a %X%X%X%X%X%X%X%X%X",
"%X%X%X%X%X%X%X%X%X%Xj OXJ. .x.f.v.g.g.5.z.j.5.g.g.z.j.f.a.5.z.j.5.f.z.j.f.~ Y..Xp %X%X%X%X%X%X%X%X%X",
"%X%X%X%X%X%X%X%X%X%Xj OXJ. .y.8.r.8.*.*.q.e.*.*.*.r.e.8.*.*.r.8.*.*.q.q.*.' J..Xp %X%X%X%X%X%X%X%X%X",
"%X%X%X%X%X%X%X%X%X%Xj `.G.N 1 4 4 4 4 4 4 2 4 4 2 2 2 4 4 4 4 4 2 4 2 4 1 Z H.'.p %X%X%X%X%X%X%X%X%X",
"%X%X%X%X%X%X%X%X%X%Xj [.~.m , } Q U T  .Q Q U R  .W Q Y R | W Q P ] } W * D ^.W.p %X%X%X%X%X%X%X%X%X",
"%X%X%X%X%X%X%X%X%X%Xj #XXXx > g.i.+.o.k.y.0.| :.f.0.y. .,.y.0.0.Q 4.h.=.% m.XXoXp %X%X%X%X%X%X%X%X%X",
"%X%X%X%X%X%X%X%X%X%Xj @XP.f 5 5.7.) o.d.u.0.| :.f.y.y. .>.i.0.0.W 2.f.<.& D I.[.p %X%X%X%X%X%X%X%X%X",
"%X%X%X%X%X%X%X%X%X%Xj `.H.f 5 e.K e o.f.u.i.~ :.d.u.s.{ >.i.i.0.Q 2.p.y.& m K.W.p %X%X%X%X%X%X%X%X%X",
"%X%X%X%X%X%X%X%X%X%Xj XX].z 5 e.K e o.u.y.u.| :.p.u.u.{ >.y.y.y.W 2.f.<.% H ]..Xp %X%X%X%X%X%X%X%X%X",
"%X%X%X%X%X%X%X%X%X%Xj OX@Xz > g.B ) o.u.0.p.| :.y.u.f.Q >.y.u.0.W 2.f.<.% H `..Xp %X%X%X%X%X%X%X%X%X",
"%X%X%X%X%X%X%X%X%X%Xj `.H.s > g.V ^ ;.u.0.y.| ;.u.y.a.Q >.y.y.y.W 2.f.=.% S K.W.p %X%X%X%X%X%X%X%X%X",
"%X%X%X%X%X%X%X%X%X%Xj @XP.f 5 g.V ( o.u.0.p. .:.y.u.a.{ >.y.y.y.Q 4.d.=.% D ~.[.p %X%X%X%X%X%X%X%X%X",
"%X%X%X%X%X%X%X%X%X%Xj #XXXv > s.C e o.3.8.y...>.y.u.a.Q >.u.a.u.W ,.d.<.& m.OXoXp %X%X%X%X%X%X%X%X%X",
"%X%X%X%X%X%X%X%X%X%Xj [.~.f > t.K N o.p.0.i.@.:.y.u.p.{ >.u.a.u.W ,.s.<.% D I.[.p %X%X%X%X%X%X%X%X%X",
"%X%X%X%X%X%X%X%X%X%Xj `.K.n > y.A / o.p.e.i...:.u.0.y.Q >.a.u.u.Q ,.s.=.% m K.W.p %X%X%X%X%X%X%X%X%X",
"%X%X%X%X%X%X%X%X%X%Xj  X`.z > k.e.| o.u.0.i. .:.y.0.0.W 4.a.y.u.Q 1.i.*.% H `.|.p %X%X%X%X%X%X%X%X%X",
"%X%X%X%X%X%X%X%X%X%Xj OX@Xz > g.w.+.o.s.w.i. .>.u.w.w.Q 4.a.i.p.[ 4.i.*.% b @X.Xu %X%X%X%X%X%X%X%X%X",
"%X%X%X%X%X%X%X%X%X%Xj `.K.M > -.#.! } $.@.#.! } %.@.#.E X.-.#.%.T X.#.| % F K.W.u %X%X%X%X%X%X%X%X%X",
"%X%X%X%X%X%X%X%X%X%Xj @XD.6.O.X.X...X.X.X.X.X.X.X.X.X...X.X.X.X.X.X.X.X.O.6.G.[.u %X%X%X%X%X%X%X%X%X",
"%X%X%X%X%X%X%X%X%X%Xj $XL.X.k.d.b.l.f.d.b.l.h.d.d.b.l.p.p.h.b.l.p.h.b.l.f.^ !.oXu %X%X%X%X%X%X%X%X%X",
"%X%X%X%X%X%X%X%X%X%Xj @XD.`  .~ _ ~ Q Q _ ~ Q Q ~ _ Q Q ~ Q ~ ~ Q Q ~ ~ ~ B G.[.p %X%X%X%X%X%X%X%X%X",
"%X%X%X%X%X%X%X%X%X%Xj W.K.M , 4 2 < 2 4 2 2 1 2 2 2 2 < 2 2 2 2 < 2 4 2 * F K.W.p %X%X%X%X%X%X%X%X%X",
"%X%X%X%X%X%X%X%X%X%Xj XX_.z > 1.<.{ O.=.=.9.W X.0.=.=.! o.0.=.=.! :.*.#.& H `..Xu %X%X%X%X%X%X%X%X%X",
"%X%X%X%X%X%X%X%X%X%Xj OX@Xc > g.p.@.o.p.y.i.+.:.a.p.p.{ >.p.u.p.Q 4.i.*.% H @X.Xu %X%X%X%X%X%X%X%X%X",
"%X%X%X%X%X%X%X%X%X%Xj `.K.n > g.u.%.o.a.y.i._ :.f.y.s.{ >.y.i.i.W ,.i.*.% D K.W.p %X%X%X%X%X%X%X%X%X",
"%X%X%X%X%X%X%X%X%X%Xj Q.H.s > 5.0.@.o.a.0.9.Q ;.f.0.y. .>.=.0.9.W ,.0.8.% m H.Q.p %X%X%X%X%X%X%X%X%X",
"%X%X%X%X%X%X%X%X%X%X%Xa @ o   U U 7 7 Y L U 6 8 Y L U 6 8 U U U ; 8 U 8   o @ a %X%X%X%X%X%X%X%X%X%X",
"%X%X%X%X%X%X%X%X%X%X%X%X%X%X%X%X%X%X%X%X%X%X%X%X%X%X%X%X%X%X%X%X%X%X%X%X%X%X%X%X%X%X%X%X%X%X%X%X%X%X",
"%X%X%X%X%X%X%X%X%X%X%X%X%X%X%X%X%X%X%X%X%X%X%X%X%X%X%X%X%X%X%X%X%X%X%X%X%X%X%X%X%X%X%X%X%X%X%X%X%X%X",
"%X%X%X%X%X%X%X%X%X%X%X%X%X%X%X%X%X%X%X%X%X%X%X%X%X%X%X%X%X%X%X%X%X%X%X%X%X%X%X%X%X%X%X%X%X%X%X%X%X%X",
"%X%X%X%X%X%X%X%X%X%X%X%X%X%X%X%X%X%X%X%X%X%X%X%X%X%X%X%X%X%X%X%X%X%X%X%X%X%X%X%X%X%X%X%X%X%X%X%X%X%X",
"%X%X%X%X%X%X%X%X%X%X%X%X%X%X%X%X%X%X%X%X%X%X%X%X%X%X%X%X%X%X%X%X%X%X%X%X%X%X%X%X%X%X%X%X%X%X%X%X%X%X",
"%X%X%X%X%X%X%X%X%X%X%X%X%X%X%X%X%X%X%X%X%X%X%X%X%X%X%X%X%X%X%X%X%X%X%X%X%X%X%X%X%X%X%X%X%X%X%X%X%X%X",
"%X%X%X%X%X%X%X%X%X%X%X%X%X%X%X%X%X%X%X%X%X%X%X%X%X%X%X%X%X%X%X%X%X%X%X%X%X%X%X%X%X%X%X%X%X%X%X%X%X%X"
};
