/* XPM */
static char *result[] = {
/* columns rows colors chars-per-pixel */
"50 50 195 2 ",
"   c #245600",
".  c #265A00",
"X  c #285E00",
"o  c #345B05",
"O  c #2B6300",
"+  c #2E6B00",
"@  c #266101",
"#  c #326403",
"$  c #316D00",
"%  c #3E6C07",
"&  c #396107",
"*  c #347300",
"=  c #3C7304",
"-  c #367B00",
";  c #3A7C01",
":  c #4F4C0E",
">  c #5A4F0F",
",  c #684811",
"<  c #7A4A1B",
"1  c #705C14",
"2  c #74591D",
"3  c #735215",
"4  c #416207",
"5  c #576708",
"6  c #5C6E0E",
"7  c #536909",
"8  c #427407",
"9  c #437C04",
"0  c #477509",
"q  c #4E7D0A",
"w  c #547E0F",
"e  c #59780A",
"r  c #5D6D10",
"t  c #5A7511",
"y  c #67690C",
"u  c #776E0D",
"i  c #61770F",
"p  c #627B0E",
"a  c #646512",
"s  c #696F10",
"d  c #6C6815",
"f  c #786914",
"g  c #6B7510",
"h  c #647B13",
"j  c #6F7916",
"k  c #7B7813",
"l  c #767413",
"z  c #745B20",
"x  c #864B17",
"c  c #885119",
"v  c #95541D",
"b  c #945C1D",
"n  c #83740E",
"m  c #896C1B",
"M  c #9B6C14",
"N  c #9E6B1B",
"B  c #98651C",
"V  c #8A7C1C",
"C  c #8B751E",
"Z  c #917C1B",
"A  c #917E13",
"S  c #A5621E",
"D  c #AA661B",
"F  c #A46A1B",
"G  c #AD711E",
"H  c #8A4E28",
"J  c #884C25",
"K  c #8C542C",
"L  c #8F582D",
"P  c #925222",
"I  c #9B5B24",
"U  c #9B6A24",
"Y  c #9A6C2E",
"T  c #8D7623",
"R  c #937A22",
"E  c #977427",
"W  c #AB6A24",
"Q  c #A66427",
"!  c #AB7526",
"~  c #A67B25",
"^  c #AB7728",
"/  c #B27324",
"(  c #BD7C26",
")  c #B3772A",
"_  c #B87728",
"`  c #B57B2A",
"'  c #BA7A2C",
"]  c #AF7534",
"[  c #B57A32",
"{  c #B47E3B",
"}  c #B67631",
"|  c #C67D27",
" . c #C07928",
".. c #AE7744",
"X. c #B17B47",
"o. c #3C8401",
"O. c #3E8B04",
"+. c #418501",
"@. c #4B8305",
"#. c #438B00",
"$. c #4C8E04",
"%. c #548C04",
"&. c #5F880C",
"*. c #54850A",
"=. c #459301",
"-. c #4A9500",
";. c #4C9900",
":. c #459A00",
">. c #549C02",
",. c #5D900D",
"<. c #579808",
"1. c #608A0D",
"2. c #649A07",
"3. c #6C8B15",
"4. c #658410",
"5. c #748118",
"6. c #7D891A",
"7. c #7C8616",
"8. c #6D9F13",
"9. c #4BA205",
"0. c #4BA408",
"q. c #54A200",
"w. c #59A700",
"e. c #59AB00",
"r. c #51A804",
"t. c #59B40E",
"y. c #6AB106",
"u. c #79A114",
"i. c #818315",
"p. c #86851C",
"a. c #8B821B",
"s. c #838E1A",
"d. c #908318",
"f. c #8A991B",
"g. c #998527",
"h. c #979628",
"j. c #A88929",
"k. c #BD832B",
"l. c #B5852B",
"z. c #A9962C",
"x. c #A9982B",
"c. c #A78833",
"v. c #B28139",
"b. c #BF8539",
"n. c #BA8831",
"m. c #B69934",
"M. c #98B32A",
"N. c #B8A92F",
"B. c #ABA434",
"V. c #B7A43A",
"C. c #A6BB35",
"Z. c #C4852D",
"A. c #C6872A",
"S. c #C2932D",
"D. c #C18331",
"F. c #C58A34",
"G. c #CC8E37",
"H. c #C68E3D",
"J. c #CD903A",
"K. c #C39B3C",
"L. c #CF9A3D",
"P. c #C49338",
"I. c #D2993E",
"U. c #C3A33B",
"Y. c #DBA53D",
"T. c #B1C137",
"R. c #BB8844",
"E. c #BFA340",
"W. c #CC9443",
"Q. c #D89E41",
"!. c #C5A747",
"~. c #DFAC49",
"^. c #DDA24B",
"/. c #D1B040",
"(. c #D5A657",
"). c #DCB45C",
"_. c #EBB24D",
"`. c #E4BF6E",
"'. c #ECC354",
"]. c #EDC757",
"[. c #FBC358",
"{. c #DBC963",
"}. c #EDC963",
"|. c #E6C16E",
" X c #EFC764",
".X c #F1C76B",
"XX c #F1C86C",
"oX c #E5C170",
"OX c #EAD57B",
"+X c #F4D173",
"@X c #F5DF93",
"#X c #F5E09B",
"$X c #FBEAA4",
"%X c #FFF3B1",
"&X c None",
/* pixels */
"&X&X&X&X&X&X&X&X&X&X&X&X&X&X&X&X&X&X&X&X&X&X&X&X&X&X&X&X&X&X&X&X&X&X&X&X&X&X&X&X&X&X&X&X&X&X&X&X&X&X",
"&X&X&X&X&X&X&X&X&X&X&X&X&X&X&X&X&X&X&X&X&X&X&X&X&X&X&X&X&X&X&X&X&X&X&X&X&X&X&X&X&X&X&X&X&X&X&X&X&X&X",
"&X&X&X&X&X&X&X&X&X&X&X&X&X&X&X&X&X&X&X&X&X&X&X&X&X&X&X&X&X&X&X&X&X&X&X&X&X&X&X&X&X&X&X&X&X&X&X&X&X&X",
"&X&X&X&X&X&X&X&X&X&X&X&X&X&X&X&X&X&X&X&X&X&X&X&X&X&X&X&X&X&X&X&X&X&X&X&X&X&X&X&X&X&X&X&X&X&X&X&X&X&X",
"&X&X&X&X&X&X&X&X&X&X&X&X&X&X&X&X&X&X&X&X&X&X&X&X&X&X&X&X&X&X&X&X&X&X&X&X&X&X&X&X&X&X&X&X&X&X&X&X&X&X",
"&X&X&X&X&X&X&X&X&X&X&X&X&X&X&X&X&X&X&X&X&X&X&X&X&X&X&X&X&X&X&X&X        &X&X&X&X&X&X&X&X&X&X&X&X&X&X",
"&X&X&X&X&X&X&X&X&X&X&X&X&X&X&X&X&X&X&X&X&X&X&X&X&X&X&X&X&X  . . @ O O .       &X&X&X&X&X&X&X&X&X&X&X",
"&X&X&X&X&X&X&X&X&X&X&X&X&X&X&X&X&X&X&X&X&X&X&X&X&X&X&X  . O O + $ + * $ # X &X    &X&X&X&X&X&X&X&X&X",
"&X&X&X&X&X&X&X&X&X&X&X&X&X&X&X&X&X&X&X&X&X&X&X&X&X&X&X. O + - 8 * + = 0 * * + . &X&X&X&X&X&X&X&X&X&X",
"&X&X&X&X&X&X&X&X&X&X&X&X&X&X&X&X&X&X&X&X&X&X&X&X&X  &XO $ w B.U.V.h.m.U.z.t $ @ . &X  &X&X&X&X&X&X&X",
"&X&X&X&X&X&X&X&X&X&X&X&X&X&X&X&X&X&X&X&X&X&X&X&X&X&XX $ * h.I.D.'.'.[ [ ~.j.o.+ O .   &X&X&X&X&X&X&X",
"&X&X&X&X&X&X&X&X&X&X&X&X&X&X&X&X&X&X&X&X&X&X&X&X. O * @.3.E.n.C /.'.g.f n.k.Z n 7 O .   &X&X&X&X&X&X",
"&X&X&X&X&X&X&X&X&X&X&X&X&X&X&X&X&X&X&X&X&X&X&X  @ * *.j.n.H.j.* 5.Y.h.* V A.A.J.F 5 O . &X&X&X&X&X&X",
"&X&X&X&X&X&X&X&X&X&X&X&X&X&X&X&X&X&X&X&X&X&X&X. + - s._ J Q V o.q F.z.- h ~ ~ ^ S m + O . &X&X&X&X&X",
"&X&X&X&X&X&X&X&X&X&X&X&X&X&X&X&X&X&X&X&X&X&X&X@ + o.h.A.R p.6.3.6.n.S.a.V Z A M D u $ + . &X&X&X&X&X",
"&X&X&X&X&X&X&X&X&X&X&X&X&X&X&X&X&X&X&X&X&X&X&XO * ; g.k.` [ k.k.A.F.F.W /  .| |  .E 8 + O &X&X&X&X&X",
"&X&X&X&X&X&X&X&X&X&X&X&X&X&X&X&X&X&X&X&X&X&X&X+ - ; 4.G c P Q W / Z.Z.v b ~ ~ l.G ' h + O &X&X&X&X&X",
"&X&X&X&X&X&X&X&X&X&X&X&X&X&X&X&X&X&X&X&X&X&XO * o.O.,./ N k 7.7.&.i.( k <.%.i.a.k.F.w + X &X&X&X&X&X",
"&X&X&X&X&X&X&X&X&X&X&X&X&X&X&X&X&X&X&X&X&X&XO $ ; 9.8.P._ N F A =.&./ n ;.&./ Q } g.; O . &X&X&X&X&X",
"&X&X&X&X&X&X&X&X&X&X&X&X&X&X&X&X&X&X&X&X&X&X&X; -.e.y.N.P.^ D M %.$.N M @.&.) ! T 4.- O &X&X&X&X&X&X",
"&X&X&X&X&X&X&X&X&X&X&X&X&X&X&X&X&X&X&X&X&X+ ; -.9.y.C.@X#X~.W W.x.a.F / n.c.b.j +.o.- O &X&X&X&X&X&X",
"&X&X&X&X&X&X&X&X&X&X&X&X&X&X&X&X&X&X&X&X# - +.0.t.C.@X%X#XR.g.}.|.W.I ] ~.W.Y 0 - - + O &X&X&X&X&X&X",
"&X&X&X&X&X&X&X&X&X&X&X&X&X&X&X&X&X&X&X+ - +.#.=.u.{.$X@X(.B <.M.E.c.d 5.z.g.t - $ + + &X&X&X&X&X&X&X",
"&X&X&X&X&X&X&X&X&X&X&X&X&X&X&X&X&X&X$ - o.#.#.a K.].).] P u e.e.<.+.o.- - - ; + + + O &X&X&X&X&X&X&X",
"&X&X&X&X&X&X&X&X&X&X&X&X&X&X&X&X&X$ * O.=.#.a { +X|.^ x y %.q.q.#.o.; - $ $ + + O O &X&X&X&X&X&X&X&X",
"&X&X&X&X&X&X&X&X&X&X&X&X&X&X&X&X&X; o.:.9.i { XX`...J y -.=.;.=.- ; * O X O O O . &X&X&X&X&X&X&X&X&X",
"&X&X&X&X&X&X&X&X&X&X&X&X&X&X&X&X- +.#.=.p v..X|...K 1 #.#.+.;.=.O $ X .     &X&X&X&X&X&X&X&X&X&X&X&X",
"&X&X&X&X&X&X&X&X&X&X&X&X&X&X&X$ #.=.#.p v.XX`...K d @.+.; - - + O &X&X&X&X&X&X&X&X&X&X&X&X&X&X&X&X&X",
"&X&X&X&X&X&X&X&X&X&X&X&X&X&X+ o.-.-.i v..X`...K s #.O.o.* $ # &X&X&X&X&X&X&X&X&X&X&X&X&X&X&X&X&X&X&X",
"&X&X&X&X&X&X&X&X&X&X&X&X  O ; =.;.p v.XXoX..K g #.+.; * * $ &X&X&X&X&X&X&X&X&X&X&X&X&X&X&X&X&X&X&X&X",
"&X&X&X&X&X&X&X&X&X&X&X&X. * #.-.p v.XX|...K s -.#.; - * * &X&X&X&X&X&X&X&X&X&X&X&X&X&X&X&X&X&X&X&X&X",
"&X&X&X&X&X&X&X&X&X&X&X  + - o.i v.XX|...K g -.+.; &X&X&X&X&X&X&X&X&X&X&X&X&X&X&X&X&X&X&X&X&X&X&X&X&X",
"&X&X&X&X&X&X&X&X&X&X  O * o.6 v..X|...K j >.q.#.- &X&X&X&X&X&X&X&X&X&X&X&X&X&X&X&X&X&X&X&X&X&X&X&X&X",
"&X&X&X&X&X&X&X&X&X&X+ * - 6 { XX|...K l w.q.;.o.; $ &X&X&X&X&X&X&X&X&X&X&X&X&X&X&X&X&X&X&X&X&X&X&X&X",
"&X&X&X&X&X&X&X&X&XO * - r v..X|...H b j.f.>.#.o.- + &X&X&X&X&X&X&X&X&X&X&X&X&X&X&X&X&X&X&X&X&X&X&X&X",
"&X&X&X&X&X&X&X&X&X$ - j !.+XoX..H c _ G.n.x.B.*.* $   &X&X&X&X&X&X&X&X&X&X&X&X&X&X&X&X&X&X&X&X&X&X&X",
"&X&X&X&X&X&X&X&X&X* 8 j. XOXX.J x S ' G.Q._.[.E.% O &X&X&X&X&X&X&X&X&X&X&X&X&X&X&X&X&X&X&X&X&X&X&X&X",
"&X&X&X&X&X&X&X&X&X# * T I.H.K < v W _ F.J.b.^.E # O &X&X&X&X&X&X&X&X&X&X&X&X&X&X&X&X&X&X&X&X&X&X&X&X",
"&X&X&X&X&X&X&X&X&XO O 4 2 < s d P P / D.Y > z & O O &X&X&X&X&X&X&X&X&X&X&X&X&X&X&X&X&X&X&X&X&X&X&X&X",
"&X&X&X&X&X&X&X&X&XO O O $ 9 ;.&.1 x Q _ m $ $ O O &X&X&X&X&X&X&X&X&X&X&X&X&X&X&X&X&X&X&X&X&X&X&X&X&X",
"&X&X&X&X&X&X&X&X&X&XO O + - =.=.+.3 I W U 4 + O &X&X&X&X&X&X&X&X&X&X&X&X&X&X&X&X&X&X&X&X&X&X&X&X&X&X",
"&X&X&X&X&X&X&X&X&X&X&X&X. . O * - & , v 2 # O &X&X&X&X&X&X&X&X&X&X&X&X&X&X&X&X&X&X&X&X&X&X&X&X&X&X&X",
"&X&X&X&X&X&X&X&X&X&X&X&X&X&X&X&XO O o : o &X&X&X&X&X&X&X&X&X&X&X&X&X&X&X&X&X&X&X&X&X&X&X&X&X&X&X&X&X",
"&X&X&X&X&X&X&X&X&X&X&X&X&X&X&X&X&X&X&X&X&X&X&X&X&X&X&X&X&X&X&X&X&X&X&X&X&X&X&X&X&X&X&X&X&X&X&X&X&X&X",
"&X&X&X&X&X&X&X&X&X&X&X&X&X&X&X&X&X&X&X&X&X&X&X&X&X&X&X&X&X&X&X&X&X&X&X&X&X&X&X&X&X&X&X&X&X&X&X&X&X&X",
"&X&X&X&X&X&X&X&X&X&X&X&X&X&X&X&X&X&X&X&X&X&X&X&X&X&X&X&X&X&X&X&X&X&X&X&X&X&X&X&X&X&X&X&X&X&X&X&X&X&X",
"&X&X&X&X&X&X&X&X&X&X&X&X&X&X&X&X&X&X&X&X&X&X&X&X&X&X&X&X&X&X&X&X&X&X&X&X&X&X&X&X&X&X&X&X&X&X&X&X&X&X",
"&X&X&X&X&X&X&X&X&X&X&X&X&X&X&X&X&X&X&X&X&X&X&X&X&X&X&X&X&X&X&X&X&X&X&X&X&X&X&X&X&X&X&X&X&X&X&X&X&X&X",
"&X&X&X&X&X&X&X&X&X&X&X&X&X&X&X&X&X&X&X&X&X&X&X&X&X&X&X&X&X&X&X&X&X&X&X&X&X&X&X&X&X&X&X&X&X&X&X&X&X&X",
"&X&X&X&X&X&X&X&X&X&X&X&X&X&X&X&X&X&X&X&X&X&X&X&X&X&X&X&X&X&X&X&X&X&X&X&X&X&X&X&X&X&X&X&X&X&X&X&X&X&X"
};
