/* XPM */
static char *result[] = {
/* columns rows colors chars-per-pixel */
"50 50 42 1 ",
"  c #665F41",
". c #676042",
"X c #6B6446",
"o c #6F694A",
"O c #726B4E",
"+ c #736D50",
"@ c #7E785C",
"# c #837D5B",
"$ c #8B8463",
"% c #8C876A",
"& c #8F8A6D",
"* c #918C6E",
"= c #99926D",
"- c #918C70",
"; c #959173",
": c #989375",
"> c #9E9875",
", c #9B967A",
"< c #9E997C",
"1 c #A59E79",
"2 c #A7A079",
"3 c #A9A37C",
"4 c #9F9B81",
"5 c #A09B82",
"6 c #ACA681",
"7 c #AFAA86",
"8 c #AEAB8E",
"9 c #B0AB87",
"0 c #B2AD8B",
"q c #B4B08F",
"w c #AFAC90",
"e c #B6B292",
"r c #B8B595",
"t c #BAB798",
"y c #BCBA9C",
"u c #BFBDA1",
"i c #C1BFA3",
"p c #C2C0A5",
"a c #C7C4AC",
"s c #C9C7AE",
"d c #C9C7B0",
"f c #CBC9B1",
/* pixels */
".. .    ... .       .....    .  X..X. X        X  ",
" #4444444144;$<544444444<;*$<14455=#155555555=#$$#",
" ;faafffffffr7asaaasssssatq6psssifr6ifiififfft3662",
" -p7qpppppppuypr339ttttttreettttttrrttite6iiiiyyq2",
" *pqripiiiiipupt033rre9eyyyyyyyyttutytrre7riyyyeqq",
" *piuiiuiiiiupuii96rre3eiuuuuuiiuiiiiyerrteerre1qi",
" &u70ttttttttrttreerrreer6qrtrtttttttttyiiiiiye1qi",
" *p0qttttyttytrrrrrrreqqr78rrrrrrrrr0etyiyyiyre7ri",
" *pppiipupiiputrrrrrrq27rrrrrrrrrrre37ttteerrerrti",
" &piuppt9qttttrrrrrrrrqerrrrrrrrrere336tuuuiuit6ri",
" *piutuy9qtqerrrrrrrrrrrrrqqqqqqeeqq666tiiiiiiy0ri",
" &ppr2tpupy39rrrrerrrrrrrr9223797033eerrtiiiiiiiui",
" &ppr2qqqeq2376960q0qq000776669777330q0qqeeq9ti0ri",
" &yir2699972222226797777623777777763777799962ry6ei",
" #3yr2399999322379797783222222223777777777997tiiii",
" $3yyqre336973667777777736366636677777797777300q00",
" $3ypipy623777777797777777777777707777777707333233",
" $3yppiiyq77777777777722323222323777777077eiiyt20y",
" @3yyeeee76677777qrerq63333333336eeeeeeeeeiitte0ti",
" $3yr222222267779yiiiy0008070778qiiiiiiiiiit700iii",
" @2riyye322777777wqwyiyyyur8763riirqwqqq0qq07000ti",
" $9ypiye336weqqeq077ryyyyyq7773riitqqqqeqqeeqqeeet",
" *iiiiq7770iiiiiuq7779907777777yiiiiiiiiiiiiiiiiq2",
" =pippyyyyyipppipyr3333333637730eeiiiiiiiiiiiiiie2",
" $888w8wwwwwwwwwww6=========>>=>1>5888wwwwwwwwww3=",
" XXoXXXXXXXXXXXXXXXXXXXXXXXXXXXXXoooXXXXXXXoXXXXX.",
"<44444:;;,4444444444<44,*o@444<<555555555565555555",
"ssffssuttaffdffffffffffp0o&fffffffffifffiiiffiffif",
"rttippiiiipppppipppppppprO$ttyipiiiiiyttit77iiiiit",
"rrruppiiiiiipiiiiiiiuyyyeo%ityiiiiiiiiyyiiweiiiiyi",
"rrruiiiiiiiiiiiiiiiitrrr8o*fytiiiiiiiiiiiiiiiiiiii",
"rrrtrttrryrryrttrtttrrrr8o*fpiiyttettttrryrttttttt",
"rrrrrrrrrrrrrrrrrrrttyyirO-diiytrytytytyyttt0etrrr",
"rrrrrrrrrrrrrrrrrrtiiiiiiO-dyeettiiiiiiiiiit30errr",
"rrrrtrrrrrrrrrrrrrtttr7yi+-ieqrrrtttttttttytqeteer",
"qqeqqqrqqqqeeeqettrrre6ti+;fqwttytttttttttttqqqqqq",
"237977777777999eitetrerii+-ftwiiiiiiiiiiiiit313323",
"677777877777qtyrq000007yi+-fewiiy0qqeeeeeee0666333",
"777907777qq0tiiy0777073ti+#iwwiir36777767677999965",
"787777777riuiiiii637777yi+#tw877077776221169999977",
"777063637qrrrrere767776yi+%y0979777777666677166977",
"77776333777777777778773ii+&dr999800077779996311977",
"78779997777977777777tiyii+&fiiuuiyiy07779999999987",
"36797999777777787eeettrii+%itrtrtttr77979666366666",
"33999999998797997iiie76yi+#89997777799797333113366",
"22332223yyyyuyyyyitq877ii+#569977777999tytyyyyytii",
"6996777qpuyyytppiiiqqq7iiO#139967777769yiiiiiiiiii",
"pippiiippq777qypiiiiiy7iiO#122121797313yiiiiiiiiii",
"aaaaaaapq07779qeeiaaap0q7o@111227iiiiiiiififififfi",
"fffffffa077777777afdfa976O#122210iffffffffffffffff"
};
